<svg xmlns="http://www.w3.org/2000/svg" width="499.044" height="328" overflow="visible" xml:space="preserve"><g fill-rule="evenodd" clip-rule="evenodd">
        fill="#804000"
        d="M291.044 13c-1.705.41.21 1.29 0 3a2251.429 2251.429 0 0 0-2 85h-5c.123-29.21.873-57.794 2-86v-3c.533-3.466-1.485-9.485 2-10 5.11-.443 2.26 7.074 3 11z"/><path
        fill="maroon"
        d="M286.044 12v3c-8.813 23.187-8.782 55.218-10 86-26.606-11.061-54.46-20.873-81-32-1.382-2.951-4.618-4.049-6-7v-1c32.849-15.818 63.616-33.717 97-49z"/><path
        fill="#FFF"
        d="M286.044 15c-1.127 28.206-1.877 56.79-2 86h-8c1.218-30.782 1.186-62.813 10-86zM186.044 66c-2.437-2.348 1.116-2.238 2-4h1c1.382 2.951 4.618 4.049 6 7-3.675-.325-5.533-2.467-9-3z"/><path
        fill="maroon"
        d="M181.044 67c26.535 24.798 51.956 50.71 78 76-49.547 35.453-101.571 68.429-151 104h-2c24.135-60.532 52.649-116.684 74-180h1zM79.044 78c2.837 24.163 2.875 51.124 7 74-16.239-7.095-30.976-15.691-46-24a14.09 14.09 0 0 0-5-5v-1c13.749-15.251 29.251-28.749 43-44h1z"/><path
        fill="#804000" d="M275.044 104c1.289-1.378 4.344-.99 7-1v23h-7v-1c3.092-4.465-1.017-10.286 0-16v-5z"/><path
        fill="#FFF" d="M282.044 103h2c-1.019 6.981-1.204 14.796-1 23h-1v-23z"/><path fill="#804000"
                                                                                     d="M284.044 103h2c.586 2.081 2.102 3.232 3 5-2.315 4.018-.347 12.32-1 18h-5c-.204-8.204-.019-16.019 1-23z"/><path
        fill="#FFF"
        d="M289.044 108c1.964 1.703 4.998 2.335 6 5 29.177 47.49 60.836 92.497 91 139-.261 1.405-2.193 1.14-3 2-32.728-41.272-69.227-78.772-101-121 5.841 1.508 6.163-2.504 9-4 .182-2.182-.818-3.182-3-3 .653-5.68-1.315-13.982 1-18zM33.044 125c.113-1.22.299-2.368 2-2a14.09 14.09 0 0 1 5 5c-3.073-.26-4.497-2.169-7-3z"/><path
        fill="#512A04"
        d="M275.044 126h13c2.182-.182 3.182.818 3 3-2.837 1.496-3.159 5.508-9 4v-5c-2.169-.168-.453 3.547-1 5-2.478-3.713-2.246-4.619-6-6-2.037 1.402.982 3.445-1 6-2.017-1.317-3.384-3.283-4-6 1.161-.839 2.681-1.319 5-1z"/><path
        fill="maroon" d="M264.044 141c3.03-1.97 5.97-4.03 9-6 .05 5.049-.39 9.61-2 13a27.673 27.673 0 0 1-7-7z"/><path
        fill="#804000" d="M278.044 135c2.635-.301 3.282 1.385 3 4h-3v-4z"/><path fill="#FFF"
                                                                                 d="M287.044 144c-3.959 32.707-2.56 70.773-4 106 29.302 5.031 62.157 6.509 93 10-4.075 6.899-13.77 4.163-22 4-24.234-.479-50.92-1.039-73-1-.474-33.382 1.463-82.521 1-125 1.541 2.126 3.609 3.724 5 6z"/><path
        fill="#804000"
        d="M278.044 140h3c-.547 1.453 1.169 5.168-1 5-3.36 1.027-1.557-3.11-2-5zM261.044 144c.239-1.427 1.646-1.687 2-3h1a27.673 27.673 0 0 0 7 7v6a56.543 56.543 0 0 1-10-10z"/><path
        fill="maroon"
        d="M111.044 246c48.375-34.958 99.464-67.202 148-102h2a56.543 56.543 0 0 0 10 10c-5.73 31.27-9.033 64.967-15 96h-3c-40.354-9.343-95.874-5.714-142-4zM287.044 144c31.937 36.73 63.952 73.381 95 111v2c-2.039.294-1.961 2.706-4 3h-2c-30.843-3.491-63.698-4.969-93-10 1.44-35.227.041-73.293 4-106z"/><path
        fill="#804000"
        d="M281.044 146c-.575 1.758 1.209 5.875-1 6h-3c-.271-3.604-.25-6.917 4-6zM279.044 159c-8.191-6.663 8.191-6.663 0 0z"/><path
        fill="#FFF" d="M86.044 154c.776.224 1.973.027 2 1v21c-1.923-6.077-.675-15.325-2-22z"/><path fill="#804000"
                                                                                                    d="M276.044 160h5v6h-5v-6zM276.044 167h5v6h-6c-.023-2.355 1.723-2.944 1-6z"/><path
        fill="maroon" d="M268.044 175c1.182-1.151 3.535-1.132 6-1v5h-6v-4z"/><path fill="#804000"
                                                                                   d="M275.044 174h6v6h-6v-6z"/><path
        fill="maroon"
        d="M273.044 186h-6c-.723-3.056 1.022-3.645 1-6 1.758.575 5.875-1.209 6 1 .409 2.409-1.826 2.174-1 5zM273.044 187v6h-7c-.789-5.122 1.78-6.887 7-6zM272.044 200h-7c-.723-3.056 1.022-3.645 1-6h7c-1.151 1.182-1.132 3.535-1 6zM270.044 224h-9c1.378-1.289.989-4.344 1-7h9c-.319 2.348-1.58 3.754-1 7zM273.044 218v7h-2c.011-2.656-.378-5.711 1-7h1z"/><path
        fill="#804000" d="M273.044 218h7v7h-7v-7z"/><path fill="maroon"
                                                          d="M269.044 234h-9c-.535-3.868 1.785-4.882 1-9h9c.688 4.021-.958 5.708-1 9z"/><path
        fill="maroon" d="M273.044 226v9c-5.469 1.239-2.425-8.816 0-9z"/><path fill="#804000"
                                                                              d="M273.044 226h7v9h-7v-9z"/><path
        fill="maroon"
        d="M269.044 240h-10c-1.771-6.771 5.252-4.748 10-5v5zM273.044 236c.075 1.742-.224 3.11-1 4h-2c-.279-2.612-.338-5.004 3-4z"/><path
        fill="#FFF" d="M95.044 238c1.915 6.751 1.941 15.393 3 23h-2c.778-8.777-1.467-14.533-1-23z"/><path fill="#008500"
                                                                                                          d="M259.044 240h21c.086 1.419.165 2.832-1 3h-9c-3.367-.633-9.288 1.288-11-1v-2z"/><path
        fill="#FFF"
        d="M36.044 247c-9.665.331-16.894-1.772-27-1 7.166-4.142 20.17-1.336 27 1zM253.044 250c-48.118-.549-95.345-1.988-143-3 .057-.61.149-1.184 1-1 46.126-1.714 101.646-5.343 142 4z"/><path
        fill="maroon" d="M258.044 244h10v6h-10v-6z"/><path fill="#804000"
                                                           d="M106.044 247h4c47.655 1.012 94.882 2.451 143 3h3v5c-44.004.338-84.582-2.752-129-2h-3c-7.436-1.563-22.055 4.055-22-5 1.003.003 1.19-.81 2-1h2z"/><path
        fill="#FFF" d="M94.044 249c2.295 2.038.362 8.305 1 12-2.295-2.038-.362-8.305-1-12z"/><path fill="#804000"
                                                                                                   d="M257.044 256v-5h11c.319 2.319-.161 3.839-1 5h-10z"/><path
        fill="#FFF"
        d="M127.044 253c44.418-.752 84.996 2.338 129 2-.994 3.716-2.136 2.614-1 7-42.82-.18-84.483-1.518-127-2-.01-2.656.378-5.711-1-7zM68.044 254c5.593 1.407 13.26.739 19 2v5c-2.391.609-7.255-1.255-8 1-5.846.513-7.179-3.487-12-4-.224-1.891 1.127-2.206 1-4zM257.044 256h10c-.122 4.212-7.674.993-11 2 .19-.81 1.003-.997 1-2zM268.044 256c1.496.171 3.69-.357 4 1v2c-2.612.279-5.004.338-4-3z"/><path
        fill="maroon" d="M380.044 260c.294-2.039 2.706-1.961 3-4 2.793 1.282-.457 4.761-2 5-.851.184-.943-.39-1-1z"/><path
        fill="#FFF" d="M267.044 263c-4.125.125-6.262-1.738-11-1-1.045-5.712 7.435-1.898 11-3v4z"/><path fill="#FF8040"
                                                                                                        d="M123.044 260v2c-9.778-.778-16.589 1.41-26 1-.779-.221-1.163-.837-1-2h3c7.904-.429 15.148-1.519 24-1zM128.044 260c42.517.482 84.18 1.82 127 2 .003 1.003-.81 1.19-1 2-42.497-.169-83.897-1.437-126-2v-2z"/><path
        fill="#FFF"
        d="M272.044 260v3h-4c-1.004-3.338 1.388-3.279 4-3zM377.044 260h1c-.067 2.933-2.286 3.714-4 5-5.15-.867 3.439-2.478 3-5zM381.044 261c-1.129 1.871-1.183 4.817-5 4 1.166-1.834 2.614-3.386 4-5 .057.61.149 1.184 1 1zM380.044 265c.521-1.479 1.479-2.521 2-4h5c2.055.279 1.996 2.671 3 4h-10z"/><path
        fill="maroon"
        d="M123.044 262c.841 2.492 1.309 5.357 1 9-9.076-.591-18.051-1.282-27-2v-6c9.411.41 16.222-1.778 26-1zM125.044 271c1.218-3.63-2-7.895 0-9 3.578.423 2.813 5.187 3 9h-3z"/><path
        fill="maroon"
        d="M128.044 262c42.103.563 83.503 1.831 126 2v4c-41.326 1.341-82.433 2.901-125 3 .688-4.021-.958-5.708-1-9z"/><path
        fill="#FF8040"
        d="M256.044 262c4.738-.738 6.875 1.125 11 1v2c-5.03.697-6.97-1.697-12-1 .19-.81 1.003-.997 1-2z"/><path
        fill="maroon"
        d="M86.044 268c-12.921.588-22.022-2.645-34-3 7.345-1.665 21.655-1.665 29 0-.065-1.716 1.564-2.484 6-2 .409 2.409-1.826 2.174-1 5zM88.044 266c2.784 2.49 5.512-1.139 7-3 1.151 1.182 1.132 3.535 1 6-3.129-.204-7.341.675-9-1-.003-1.003.81-1.19 1-2zM255.044 264c5.03-.697 6.97 1.697 12 1 .282 1.615-.945 1.722-1 3h-11v-4zM268.044 265c1.583.083 3.814-.48 4 1v2h-5c.529-.804 1.043-1.623 1-3zM281.044 265h37c2.173 1.917-7.312.631-10 1-7.796 1.871-19.023.31-27 2v-3z"/><path
        fill="#FF8040"
        d="M378.044 267c.212-1.122 1.109-1.557 2-2h10c5.538 3.414-8.285 1.528-12 2zM87.044 268c1.659 1.675 5.871.796 9 1 .775 3.508-8.247 2.33-9 1v-2zM254.044 268c-.224.776-.027 1.973-1 2-24.822 1.948-52.078.924-79 2-26.709 1.067-54.547 3.788-77-3 8.949.718 17.924 1.409 27 2h5c42.567-.099 83.674-1.659 125-3zM255.044 268h11c.394 3.235-11.395 3.235-11 0zM267.044 268h13c-.685 4.315-9.08.92-13 2v-2z"/><path
        fill="#804000"
        d="M396.044 268h75c1.182.145 2.268 1.78 3 0 1.742-.075 3.11.224 4 1-3.345 5.42-12.002 3-18 3h-64c-3.965-.369-9.583.917-12-1-.299-5.299 7.854-2.146 12-3z"/><path
        fill="#512A04" d="M251.044 273c8.056-2.043 23.263-.154 33-1-6.885 3.873-24.479 2.063-33 1z"/><path fill="red"
                                                                                                           d="M77.044 323c-5.331-13.002-12.113-24.554-18-37 105.745 9.925 226.484 10.178 337 12 .115 9.115-.11 17.89-4 23-101.023 4.645-210.65.684-315 2z"/><path
        fill="#804000"
        d="M181.044 67c-.19-.81-1.003-.997-1-2 .482-5.907 6.598-.013 9-4v1h-1c-.884 1.762-4.437 1.652-2 4 .733.934 1.818 1.515 3 2a163.476 163.476 0 0 0 17 17c.733.934 1.818 1.515 3 2 3.742 5.258 9.258 8.742 13 14 .027.973 1.224.776 2 1 12.336 13.331 25.205 26.128 39 38-.19.81-1.003.997-1 2-.804.529-1.623 1.043-3 1-26.044-25.29-51.465-51.202-78-76z"/><path
        fill="#512A04"
        d="M93.044 210c2.981 16.019 3.834 34.166 6 51h-1c-1.059-7.607-1.085-16.249-3-23-1.157-8.843-1.812-18.187-2-28zM14.044 250c8.447.22 16.399.935 24 2 6.685 1.328 17.915 3.401 24 2h6c.127 1.794-1.224 2.109-1 4 4.821.513 6.154 4.513 12 4-1.01 2.815-4.247-.276-6 0-11.357-11.349-40.226-5.802-59-12z"/><path
        fill="red"
        d="M57.044 285c.851-.184.943.39 1 1 5.922 12.411 12.621 24.046 18 37-15.094-4.175-25.198-18.476-19-38z"/><path
        d="M289.044 104c58.624 54.709 120.075 106.592 180 160-59.322-82.678-117.853-166.147-178-248 .21-1.71-1.705-2.59 0-3 60.703 85.296 120.901 171.099 183 255-.732 1.78-1.818.145-3 0 .184-.851-.39-.943-1-1-58.432-51.234-116.256-103.078-175-154-1.002-2.665-4.036-3.297-6-5-.898-1.768-2.414-2.919-3-5 .804.529 1.623 1.043 3 1z"/><path
        fill="#512A04"
        d="M195.044 69c26.54 11.127 54.394 20.939 81 32h13c1.78.733.145 1.818 0 3-1.377.043-2.196-.471-3-1h-4c-2.656.01-5.711-.378-7 1-2.193-5.226-13.039-7.908-21-11-17.35-6.739-37.245-14.161-55-21-2.797-1.869-6.875-2.459-10-4-1.182-.485-2.267-1.066-3-2 3.467.533 5.325 2.675 9 3z"/><path
        fill="#FFF"
        d="M291.044 16c60.147 81.853 118.678 165.322 178 248-59.925-53.408-121.376-105.291-180-160 .145-1.182 1.78-2.267 0-3 .142-28.858.812-57.187 2-85zM189.044 68c3.125 1.541 7.203 2.131 10 4 3.238 6.762 9.974 10.026 14 16-2.503-.831-3.927-2.74-7-3a163.378 163.378 0 0 1-17-17zM209.044 87c2.503.831 3.927 2.74 7 3 2.96 3.706 6.165 7.169 9 11h-3c-3.742-5.258-9.258-8.742-13-14zM224.044 102c1.794-.127 2.109 1.224 4 1 11.392 12.608 23.368 24.632 35 37-13.795-11.872-26.664-24.669-39-38z"/><path
        fill="#512A04"
        d="M259.044 143c1.377.043 2.196-.471 3-1-.003-1.003.81-1.19 1-2 4.683-.984 6.317-5.016 11-6 .184.851-.39.943-1 1-3.03 1.97-5.97 4.03-9 6h-1c-.354 1.313-1.761 1.573-2 3h-2c-48.536 34.798-99.625 67.042-148 102-.851-.184-.943.39-1 1h-2c49.429-35.571 101.453-68.547 151-104z"/><path
        fill="maroon"
        d="M199.044 72c17.755 6.839 37.65 14.261 55 21 7.961 3.092 18.807 5.774 21 11v5c-6.085.166-12.498-3.822-18-1 3.425 1.687 18.551-2.667 17 7-5.452-1.548-9.548-4.452-15-6 4.328 3.672 11.148 4.852 16 8v9c-2.319-.319-3.839.161-5 1 .616 2.717 1.983 4.683 4 6v1c-4.683.984-6.317 5.016-11 6-11.632-12.368-23.608-24.392-35-37 10.278.48 21.971 4.572 30 4-4.674-1.166-8.253-3.513-13-2 .162-1.172 1.823-.843 3-1-11.227-5.773-23.255-10.745-35-16-4.026-5.974-10.762-9.238-14-16z"/><path
        fill="#512A04"
        d="M213.044 88c11.745 5.255 23.773 10.227 35 16-1.177.157-2.838-.172-3 1 4.747-1.513 8.326.834 13 2-8.029.572-19.722-3.52-30-4-1.891.224-2.206-1.127-4-1-.776-.224-1.973-.027-2-1h3c6.012 1.654 12.742 2.591 20 3-8.585-5.748-19.893-8.773-29-14-3.073-.26-4.497-2.169-7-3-1.182-.485-2.267-1.066-3-2 3.073.26 4.497 2.169 7 3z"/><path
        fill="#804000"
        d="M93.044 206c-2.3-2.366-.358-8.976-1-13-2.481 17.818 2.568 36.763 2 56 .638 3.695-1.295 9.962 1 12v2c-1.488 1.861-4.216 5.49-7 3-.52-13.525 2.971-28.354 0-41h-2c2.906-17.271-1.932-25.959 2-39-20.299-18.701-38.649-39.351-58-59-1.743-.903-3.852-2.237-2-4 2.503-1.9 3.927.83 7-1v1c-1.701-.368-1.887.78-2 2 .279 2.054 2.671 1.996 4 3 13.134 13.199 25.267 27.399 39 40a68.37 68.37 0 0 0 11 11c1.172-.161.843-1.823 1-3v-21c1.788.296.063-3.88-2-3-4.125-22.876-4.163-49.837-7-74-.826-2.826 1.409-2.591 1-5 6.794 16.873 5.145 42.189 7 64 2.881-4.786-.845-16.178 2-21 6.245 7.425 1.934 23.333 3 36 1.304 15.487 1.343 40.242 1 54zm-4 13c-.051-1.976-1.612 6.124 0 5 1.382-.963 2.925-25.201 1-6 1.023-10.199 1.759-36.79-1-47 1.098 12.884-.209 39.882 0 48z"/><path
        d="M89.044 171c2.759 10.21 2.023 36.801 1 47 1.925-19.201.382 5.037-1 6-1.612 1.124-.051-6.976 0-5-.209-8.118 1.098-35.116 0-48z"/><path
        fill="#FFF"
        d="M37.044 128c2.043.957 3.957 2.043 6 3 10.7 12.634 22.043 24.624 33 37-13.733-12.601-25.866-26.801-39-40z"/><path
        fill="#512A04"
        d="M40.044 128c15.024 8.309 29.761 16.905 46 24 2.063-.88 3.788 3.296 2 3-.027-.973-1.224-.776-2-1-14.003-7.997-28.673-15.327-43-23-2.043-.957-3.957-2.043-6-3-1.329-1.004-3.721-.946-4-3 2.503.831 3.927 2.74 7 3z"/><path
        fill="maroon"
        d="M216.044 90c9.107 5.227 20.415 8.252 29 14-7.258-.409-13.988-1.346-20-3-2.836-3.831-6.04-7.294-9-11z"/><path
        fill="#512A04"
        d="M275.044 125v-8c-4.852-3.148-11.672-4.328-16-8 5.452 1.548 9.548 4.452 15 6 1.551-9.667-13.575-5.313-17-7 5.502-2.822 11.915 1.166 18 1-1.017 5.714 3.092 11.535 0 16z"/><path
        fill="maroon"
        d="M295.044 113c58.744 50.922 116.568 102.766 175 154-26.906-4.761-54.642-8.692-82-13-1.086-.247-.679-1.988-2-2-30.164-46.503-61.823-91.51-91-139z"/><path
        fill="#804000"
        d="M386.044 252c1.321.012.914 1.753 2 2 .282 1.615-.945 1.722-1 3-3.347.903-.873 2.237 0 4h-5c-.521 1.479-1.479 2.521-2 4-.891.443-1.788.878-2 2h-5c.19-.81 1.003-.997 1-2 1.714-1.286 3.933-2.067 4-5 2.039-.294 1.961-2.706 4-3v-2c.851.184.943-.39 1-1 .807-.86 2.739-.595 3-2zm-5 9c1.543-.239 4.793-3.718 2-5-.294 2.039-2.706 1.961-3 4-1.386 1.614-2.834 3.166-4 5 3.817.817 3.871-2.129 5-4z"/><path
        d="M282.044 133c31.773 42.228 68.272 79.728 101 121-.057.61-.149 1.184-1 1-31.048-37.619-63.063-74.27-95-111-1.391-2.276-3.459-3.874-5-6 .463 42.479-1.474 91.618-1 125v7c29.421-2.246 61.057-2.276 92-3h5c3.715-.472 17.538 1.414 12-2-1.004-1.329-.945-3.721-3-4-.873-1.763-3.347-3.097 0-4 4.757 3.274 3.353 12.086 9 8v3c-4.146.854-12.299-2.299-12 3 2.417 1.917 8.035.631 12 1v26c-110.516-1.822-231.255-2.075-337-12h-1c-.057-.61-.149-1.184-1-1-11.332-2.001-19.061-7.606-21-19 17.984-1.941 34.868 7.741 50 2-.826-2.826 1.409-2.591 1-5v-11c.342-10.351.107-15.184 1-27 2.971 12.646-.52 27.475 0 41-.19.81-1.003.997-1 2v2c.753 1.33 9.775 2.508 9-1 .132-2.465.151-4.818-1-6v-2c-.638-3.695 1.295-9.962-1-12 .568-19.237-4.481-38.182-2-56 .642 4.024-1.3 10.634 1 13v4c.188 9.813.843 19.157 2 28-.467 8.467 1.778 14.223 1 23-.163 1.163.221 1.779 1 2v6c22.453 6.788 50.291 4.067 77 3 26.922-1.076 54.178-.052 79-2 .973-.027.776-1.224 1-2v-4c.19-.81 1.003-.997 1-2-1.136-4.386.006-3.284 1-7v-5c5.967-31.033 9.27-64.73 15-96v-6c1.61-3.39 2.05-7.951 2-13 .61-.057 1.184-.149 1-1v-1c1.982-2.555-1.037-4.598 1-6 3.754 1.381 3.522 2.287 6 6 .547-1.453-1.169-5.168 1-5v5zm-9 62v6c1.758.575 5.875-1.209 6 1h-6v5h7c-.697-5.03 1.697-6.97 1-12h-8zm0-1h-7c.022 2.355-1.723 2.944-1 6h7c-.132-2.465-.151-4.818 1-6zm-7-1h7v-6c-5.22-.887-7.789.878-7 6zm8-12c-.125-2.209-4.242-.425-6-1 .022 2.355-1.723 2.944-1 6h6c-.826-2.826 1.409-2.591 1-5zm7 0c-5.22-.887-7.789.878-7 6 5.195.862 8.56-.107 7-6zm-13-2h6v-5c-2.465-.132-4.818-.151-6 1v4zm2-13c.489 3.156-1.802 3.531-1 7h5c.319-2.348 1.58-3.754 1-7h-5zm5 7h6v-6h-5c.723 3.056-1.023 3.645-1 6zm-5-8h5v-6c-4.78-1.113-4.608 2.725-5 6zm1-8c-.169 2.168 3.547.453 5 1v-6c-4.518-1.185-4.333 2.334-5 5zm5-6c-.723-3.056 1.022-3.644 1-6-4.78-1.113-4.608 2.725-5 6h4zm1 1h3c2.209-.125.425-4.242 1-6-4.25-.917-4.271 2.396-4 6zm-4-8h4c-.443-1.89 1.36-6.027-2-5-1.486.847-1.447 3.22-2 5zm5-5h3c.282-2.615-.365-4.301-3-4v4zm2 6c2.169.168.453-3.547 1-5h-3c.443 1.89-1.36 6.027 2 5zm-1 14c8.191-6.663-8.191-6.663 0 0zm-3 7h5v-6h-5v6zm-1 14h6v-6h-6v6zm-1 8v6h7v-6h-7zm-18 74c.003 1.003-.81 1.19-1 2v4c-.395 3.235 11.395 3.235 11 0 .055-1.278 1.282-1.385 1-3v-6c-3.565 1.102-12.045-2.712-11 3zm12 3c.043 1.377-.471 2.196-1 3v2c3.92-1.08 12.315 2.315 13-2v-8h-8c-2.612-.279-5.004-.338-4 3v2zm-11-9c.003 1.003-.81 1.19-1 2 3.326-1.007 10.878 2.212 11-2 .839-1.161 1.319-2.681 1-5h-11v5zm12-4c.075 1.742-.224 3.11-1 4-1.004 3.338 1.388 3.279 4 3h8v-7h-10c.221-.779.837-1.163 2-1h8v-6h-8c-.776-.224-1.973-.027-2-1 2.714-.619 7.937 1.27 9-1 1.165-.168 1.086-1.581 1-3v-4h-7c-3.338-1.004-3.279 1.388-3 4h-1v-5c-4.748.252-11.771-1.771-10 5v2c1.712 2.288 7.633.367 11 1-2.669 2.313.685 7.671-1 9zm1-27h-9c.785 4.118-1.535 5.132-1 9h9c.042-3.292 1.688-4.979 1-9zm3 1c-2.425.184-5.469 10.239 0 9h7v-9h-7zm-2-9h-9c-.011 2.656.378 5.711-1 7h9c-.58-3.246.681-4.652 1-7zm2 1h-1c-1.378 1.289-.989 4.344-1 7h9v-7h-7zm-9-11c-.841 2.492-1.309 5.357-1 9h8c-.773-6.107 1.31-9.356 1-15-4.801-.468-8.88-.214-8 5 2.071.595 6.569-1.236 7 1h-7zm8 1v9h8v-9h-8zm12 64c-9.737.846-24.944-1.043-33 1 8.521 1.063 26.115 2.873 33-1zm-26-22h10v-6h-10v6z"/><path
        fill="maroon"
        d="M43.044 131c14.327 7.673 28.997 15.003 43 23 1.325 6.675.077 15.923 2 22-.157 1.177.172 2.839-1 3a68.37 68.37 0 0 1-11-11c-10.957-12.376-22.3-24.366-33-37z"/><path
        fill="#FF8040"
        d="M281.044 263c22.08-.039 48.766.521 73 1 8.23.163 17.925 2.899 22-4h1c.439 2.522-8.15 4.133-3 5 .003 1.003-.81 1.19-1 2-30.943.724-62.579.754-92 3v-2c7.977-1.69 19.204-.129 27-2 2.688-.369 12.173.917 10-1h-37v-2z"/><path
        fill="maroon"
        d="M279.044 243c-1.063 2.27-6.286.381-9 1 .027.973 1.224.776 2 1v6c-1.163-.163-1.779.221-2 1h-1c1.686-1.329-1.669-6.688 1-9h9zM271.044 207c-.431-2.236-4.929-.405-7-1-.88-5.214 3.199-5.468 8-5 .31 5.644-1.773 8.893-1 15h-8c-.309-3.643.159-6.508 1-9h7z"/><path
        fill="#FFF" d="M62.044 254c-6.085 1.401-17.315-.672-24-2 8.447.22 16.399.935 24 2z"/><path fill="#512A04"
                                                                                                   d="M124.044 253h3c1.378 1.289.99 4.344 1 7v2c.042 3.292 1.688 4.979 1 9h-1c-.187-3.813.578-8.577-3-9-2 1.105 1.218 5.37 0 9h-1c.309-3.643-.159-6.508-1-9v-2c.01-2.656-.378-5.711 1-7z"/><path
        fill="#FF8040"
        d="M87.044 263c-4.436-.484-6.065.284-6 2-7.345-1.665-21.655-1.665-29 0 11.978.355 21.079 3.588 34 3-15.132 5.741-32.016-3.941-50-2 .396-2.396-4.555.555-3-3 14.081.414 25.556-1.777 40-1 1.753-.276 4.99 2.815 6 0 .745-2.255 5.609-.391 8-1v2z"/><path
        fill="#008500" d="M58.044 286h1c5.887 12.446 12.669 23.998 18 37h-1c-5.379-12.954-12.078-24.589-18-37z"/><path
        fill="#804000"
        d="M275.044 139c3.36-1.027 1.557 3.11 2 5h-4c.553-1.78.514-4.153 2-5zM272.044 151c.392-3.275.22-7.113 5-6 .022 2.356-1.723 2.944-1 6h-4zM276.044 152v6c-1.453-.547-5.169 1.168-5-1 .667-2.666.482-6.185 5-5z"/><path
        fill="maroon"
        d="M275.044 159v6h-5c.392-3.275.22-7.113 5-6zM275.044 166c.58 3.246-.681 4.652-1 7h-5c-.802-3.469 1.489-3.844 1-7h5z"/><path
        fill="#804000"
        d="M274.044 187c-.789-5.122 1.78-6.887 7-6 1.56 5.893-1.805 6.862-7 6zM281.044 188v6h-7v-6h7zM281.044 195c.697 5.03-1.697 6.97-1 12h-7v-5h6c-.125-2.209-4.242-.425-6-1v-6h8z"/><path
        fill="maroon"
        d="M88.044 225c-.893 11.816-.658 16.649-1 27-16.651-2.016-34.276-3.058-51-5-6.83-2.336-19.833-5.142-27-1h-5c8.467-39.866 17.533-79.134 26-119 19.351 19.649 37.701 40.299 58 59-3.932 13.041.906 21.729-2 39h2z"/><path
        fill="#804000"
        d="M273.044 236h7v4h-8c.776-.89 1.075-2.258 1-4zM272.044 245h8v6h-8v-6zM36.044 247c16.724 1.942 34.349 2.984 51 5v4c-5.74-1.261-13.407-.593-19-2h-6a211.958 211.958 0 0 0-24-2 211.958 211.958 0 0 0-24-2c-3.774-.226-9.05 1.05-10-2v-2h5c10.106-.772 17.335 1.331 27 1zM270.044 252h10v7h-8v-2c-.31-1.357-2.504-.829-4-1 .776-.89 1.075-2.258 1-4h1zM272.044 260h8v8h-8v-2c-.186-1.48-2.417-.917-4-1v-2h4v-3z"/><path
        fill="#FFF"
        d="M396.044 268v-3c-5.647 4.086-4.243-4.726-9-8 .055-1.278 1.282-1.385 1-3 27.358 4.308 55.094 8.239 82 13 .61.057 1.184.149 1 1h-75z"/><path
        fill="#804000" d="M280.044 208v9h-8v-9h8z"/></g></svg>