<?xml version="1.0" encoding="UTF-8" standalone="no"?>
<svg
   version="1.1"
   id="Layer_1"
   x="0px"
   y="0px"
   width="1033.7324"
   height="2197.8066"
   viewBox="0 0 1033.7324 2197.8066"
   enable-background="new 0 0 1200 2349.176"
   xml:space="preserve"
   sodipodi:docname="Vietnam_location_map.svg"
   inkscape:version="1.1.1 (3bf5ae0d25, 2021-09-20)"
   xmlns:inkscape="http://www.inkscape.org/namespaces/inkscape"
   xmlns:sodipodi="http://sodipodi.sourceforge.net/DTD/sodipodi-0.dtd"
   xmlns="http://www.w3.org/2000/svg"
   xmlns:svg="http://www.w3.org/2000/svg"><defs
   id="defs3726">
	
	
	
	
	
	
	
	
	
	
	
	
	
	
	
	
	
	
	
	
	
	
	
	
	
	
	
	
	
	
	
	
	
	
	
	
	
	
	
	
	
	
	
	
	
	
	
	
	
	
	
	
	
	
	
	
	
	
	
	
	
	
	
	
	
	
	
	
	
	
	
	
	
	
	
	
	
	
<clipPath
   clipPathUnits="userSpaceOnUse"
   id="clipPath4874"><path
     id="path4876"
     d="m 13.752196,-1.6270974 -0.17868,0.2554705 -0.19179,0.038358 c 0,0 8e-6,0.1791292 -0.01311,0.2174873 -0.01266,0.038358 -0.07672,0.16609298 -0.07672,0.16609298 l -0.357884,-0.0893769 -0.05094,0.11507407 -0.281617,0.1024129 -0.153432,-0.12811011 c 0,0 -0.166099,0.16647122 -0.217038,0.21748742 -0.05148,0.0510158 -0.28162,0.16609032 -0.370994,0.19179021 -0.0893,0.0256999 -0.102413,0.25584508 -0.102413,0.25584508 h -0.127735 l -0.140771,-0.15343217 -0.115075,0.0767161 -0.05102,0.25547032 c 0,0 -0.05094,0.0256972 -0.102413,0.0256972 -0.05102,0 -0.306864,-0.0256972 -0.306864,-0.0256972 0,0 0.128184,0.25584546 0.128184,0.2942035 v 0.21748703 l 0.115075,0.25547032 0.101963,0.038358 0.0257,0.15343217 c 0,0 -0.102416,0.10241022 -0.153432,0.12811011 -0.05094,0.0253162 -0.153429,0.0767187 -0.255845,0.0893773 -0.101956,0.012658 -0.17868,0.3068643 -0.17868,0.3068643 h -0.153432 l 0.05094,0.2174871 c 0,0 -0.115074,5.7e-6 -0.19179,-0.013036 -0.07672,-0.012658 -0.166018,0 -0.166018,0 0,0 -0.102493,-0.06368 -0.191791,-0.1020382 C 9.95474,1.4415459 9.980445,1.5819421 9.980445,1.5819421 H 9.8527862 l -0.076716,-0.1403962 -0.06413,0.012661 c -0.064058,0.012658 -0.1534291,0.038361 -0.179129,0.089377 -0.025317,0.0514 -0.1787546,0.2174871 -0.1787546,0.2174875 L 9.130052,1.8569668 c 0,0 -0.076719,0.057534 -0.1085563,0.083234 -0.03176,0.025316 -0.121592,0.051022 -0.15995,0.06368 -0.038358,0.013042 -0.082854,0.076713 -0.095895,0.1407713 -0.012658,0.064096 -0.057538,0.083234 -0.095895,0.083234 -0.038358,0 -0.1020386,0.083234 -0.1020386,0.083234 L 8.4012492,2.2087068 c 0,0 -0.012661,-0.050975 -0.012661,-0.083234 0,-0.031799 -0.038363,-0.083278 -0.1468396,-0.070198 -0.1085533,0.01262 -0.2301483,-0.051019 -0.2301483,-0.051019 0,0 -0.019182,-0.070576 -0.03184,-0.1024129 -0.013119,-0.032259 -0.044876,-0.1085563 -0.044876,-0.1085563 0,0 0.064063,-0.2301483 0.070123,-0.2493273 0.0066,-0.019179 -0.00652,-0.070576 -0.044876,-0.1024129 -0.038358,-0.032259 -0.1403966,0.01922 -0.1595756,0.051019 -0.019179,0.031837 -0.140774,0.04492 -0.2109692,0.051019 -0.070579,0.00652 -0.089755,-5.7e-6 -0.121592,0.032215 -0.031837,0.031837 -0.1277292,0.070198 -0.217487,0.051019 -0.089374,-0.019179 -0.1277384,0.070195 -0.1403966,0.095895 -0.013042,0.025699 -0.057537,0.127735 -0.057537,0.127735 0,0 -0.1342532,0.1407683 -0.1917903,0.1664681 -0.057537,0.025316 -0.095889,0.1787543 -0.1281097,0.2362912 -0.031837,0.057537 0.044876,0.1024129 0.044876,0.1024133 l -0.012661,0.108556 c 0,0 -0.057537,0.2240052 -0.057537,0.2431842 0,0.019179 -0.019176,0.1342562 -0.044876,0.1660934 -0.0257,0.031837 0,0.1277292 0,0.15995 0,0.031837 0.00652,0.076719 -0.025697,0.1085563 -0.031837,0.031837 0.013036,0.1215919 0.013036,0.1215919 0,0 -0.1533896,0.051019 -0.204751,0.070198 C 6.3940476,3.3529303 6.2471363,3.225195 6.2149155,3.2060159 6.1830784,3.1868369 6.1255413,3.1484819 6.0998414,3.103603 6.0745251,3.0587241 6.016988,3.0077079 5.9655883,3.026887 5.9145721,3.046066 5.8953869,3.0011898 5.8827288,2.9820107 5.869687,2.9628317 5.7484756,2.8285786 5.7484756,2.8285786 c 0,0 -0.1342501,-0.1403962 -0.1407709,-0.1595753 C 5.6011838,2.6498243 5.4285726,2.4323373 5.3967354,2.3939793 5.3648983,2.3556212 5.3392014,2.3237837 5.2751435,2.3172632 5.2114692,2.3107423 5.1665872,2.1830098 5.1665872,2.1830101 L 4.993976,2.0103989 c 0,0 -0.08324,-0.044882 -0.1085563,-0.070198 -0.0257,-0.0257 -0.121592,-0.1534322 -0.121592,-0.1534322 L 4.6422358,1.7353745 c 0,0 -0.03184,0.013036 -0.051019,0.013036 -0.019179,0 -0.095895,0.1403932 -0.1150741,0.1660934 -0.019179,0.025316 -0.1085533,0.15995 -0.1534322,0.198308 -0.044879,0.038358 -0.095895,0.1595694 -0.076716,0.2109692 0.019179,0.051016 0.083234,0.1212171 0.083234,0.1212171 l -0.044876,0.1472892 -0.095895,0.025322 c 0,0 -0.012658,0.051397 -0.038358,0.083234 -0.0257,0.032221 -0.083234,0.1534322 -0.083234,0.1534322 L 3.9583088,2.7967387 3.9391298,2.7392016 3.8367169,2.7008436 c 0,0 -0.076719,-0.095898 -0.1277353,-0.1469144 -0.051016,-0.051016 -0.038358,-0.1150741 -0.038358,-0.1342531 0,-0.019179 0.00652,-0.064061 -0.019179,-0.089377 -0.0257,-0.0257 -0.1660934,-0.1664681 -0.1660934,-0.1664677 L 3.5939074,2.029578 3.5682106,1.9275394 3.4723155,1.9210216 c 0,0 -0.025319,-0.038355 -0.03184,-0.064055 -0.00614,-0.0257 -0.044876,-0.051013 -0.1024129,-0.064055 C 3.2805253,1.7802534 3.2168509,1.7161924 3.1462721,1.6843556 3.0760769,1.652518 2.9544819,1.6394794 2.9544819,1.6394794 l -0.00614,0.1726111 c 0,0 -0.070579,0.1664682 -0.1534322,0.2048262 -0.083237,0.038358 -0.019179,0.1595753 -0.019179,0.1595753 0,0 -0.032218,0.1281126 -0.044876,0.1791292 -0.012658,0.0514 -0.15995,0.064055 -0.15995,0.064055 L 2.5264,2.4706953 2.4239871,2.5665904 2.2513759,2.5539292 c 0,0 -0.044879,0.044876 -0.057537,0.064055 -0.012658,0.019179 -0.1660934,0.2554703 -0.1660934,0.2554707 L 2.1746599,3.084424 c 0,0 -0.044882,0.064052 -0.1277354,0.070573 -0.083237,0.00614 -0.1407709,0.076719 -0.15995,0.089377 -0.019179,0.012658 -0.1150741,0.076716 -0.1917902,0.076716 -0.076716,0 -0.095892,0.064061 -0.1024129,0.1277353 -0.00614,0.064058 0.064058,0.2109719 0.038358,0.2428091 -0.025316,0.032221 -0.1150742,-0.03184 -0.1150742,-0.03184 0,0 -0.1212114,0.038358 -0.1917902,0.038358 -0.070195,0 -0.1534352,-0.1469117 -0.1660934,-0.1726112 -0.012658,-0.0257 -0.044879,-0.038358 -0.1150741,-0.038358 -0.0701952,0 -0.0958951,-0.051019 -0.0958951,-0.051019 l -0.13425314,0.03184 -0.019179,-0.1215923 -0.0767161,-0.082859 -0.10855633,-0.083234 0.0510193,-0.038358 c 0,0 -0.0640549,-0.1215923 -0.10241291,-0.1599504 -0.038358,-0.038358 0.006518,-0.095895 0.006518,-0.095895 0,0 -0.0126612,-0.063677 -0.0893773,-0.089377 -0.0767161,-0.0257 -0.0897548,-0.05754 -0.14077095,-0.089377 C 0.28245762,2.6751406 0.15434482,2.6816646 0.15434482,2.6816646 0.03313341,2.6751437 0.07148531,2.5600723 0.07148531,2.5600723 h -0.07671608 c -0.07671609,0 -0.09124995,-0.117022 -0.09124995,-0.117022 0,0 -0.05604493,0.00847 -0.10054026,0.00847 -0.0448789,0 -0.0767099,-0.044882 -0.12810973,-0.070198 -0.0510162,-0.0257 -0.10855633,-0.1215923 -0.10855633,-0.1215919 0,0 -0.0958951,0.03184 -0.17261119,0.03184 -0.0767161,0 -0.17260812,-0.1212171 -0.2750241,-0.1979332 -0.10203239,-0.076716 -0.12121757,0.1212171 -0.12121757,0.1212171 l -0.1150741,0.00652 c 0,0 -0.083234,-0.1983083 -0.1024129,-0.2366664 -0.019179,-0.038358 -0.102416,-0.089374 -0.1342532,-0.1150741 -0.031837,-0.025316 -0.1085562,-0.082856 -0.1469143,-0.070198 -0.038358,0.012658 -0.07671,0.057537 -0.1856469,0.095895 -0.1085533,0.038358 0,0.198308 0,0.198308 0,0 -0.031837,0.019185 -0.076716,0.025322 -0.044495,0.00652 -0.044495,0.12811 -0.076716,0.166468 -0.031837,0.038358 -0.089377,0.063674 -0.1660933,0.038358 -0.076716,-0.0257 -0.095895,0.031843 -0.095895,0.082859 0,0.0514 0.095895,0.1407713 0.095895,0.1407713 l 0.1150741,0.083234 c 0,0 -0.057537,0.00652 -0.095895,0.012661 -0.038358,0.00652 -0.070192,0.095898 -0.1024129,0.127735 -0.031837,0.032221 -0.070201,0.095892 -0.1595755,0.1024133 -0.089758,0.00652 -0.00652,0.1150737 -0.00652,0.1150741 l -0.1277352,0.044876 -0.044876,0.1020381 c 0,0 -0.1150741,0.1599473 -0.1726111,0.2048262 -0.057537,0.044495 -0.089377,0.146914 -0.089377,0.1469144 l -0.051019,0.076716 -0.076716,0.051019 c 0,0 0.063677,0.102416 0.089377,0.1534322 0.025316,0.0514 0.0257,0.1024133 -0.019179,0.1024133 -0.044879,0 -0.121592,-0.070198 -0.121592,-0.070198 h -0.1726112 c -0.044879,0 -0.1342532,-0.044876 -0.1342532,-0.044876 l -0.1469143,0.051019 -0.044876,0.1534322 0.121592,0.1342532 c 0,0 -0.025697,0.032221 -0.025697,0.095895 0,0.064058 0.1791291,0.1089311 0.1791291,0.1089311 0,0 -0.012655,0.044501 -0.064055,0.082859 -0.051016,0.038358 -0.051019,0.083231 -0.03184,0.089752 0.019179,0.00614 0.179129,0.1020382 0.179129,0.1020382 l 0.1085563,0.00652 c 0,0 3e-6,0.1024156 0.012661,0.1534321 0.012658,0.051016 0.019179,0.102413 0.019179,0.102413 l 0.070198,0.03184 h 0.1089308 l 0.019179,0.1726112 h 0.2056501 l 0.1085562,0.083234 -0.00614,0.1342531 0.1085562,0.012661 c 0,0 0.038358,2.7e-6 0.095895,0.051019 0.057537,0.0514 0.057537,0.1472892 0.057537,0.1472892 0,0 0.051019,0.025319 0.070198,0.03184 0.019179,0.00614 0.076713,0.00652 0.121592,0.012661 0.044879,0.00652 0.1085533,0.089302 0.1150741,0.1084816 0.00652,0.019179 0.025697,0.1534321 0.025697,0.1534321 0,0 0.044501,0.038358 0.082859,0.057537 0.038358,0.019179 0.102413,0.083237 0.140771,0.1342532 0.038358,0.0514 0.1534322,0.038358 0.1534322,0.038358 l 0.025697,0.070648 c 0,0 -0.044882,0.031837 -0.070198,0.038358 -0.0257,0.00614 -0.076716,0.03184 -0.076716,0.03184 v 0.1468396 l 0.038358,0.038358 c 0.038358,0.038358 0.1085593,0.064096 0.1403965,0.076716 0.032221,0.01308 0.1281097,0.083275 0.1472887,0.1150742 0.019179,0.032259 0.31952556,0.1150741 0.31952556,0.1150741 l 0.0448758,0.1342531 -0.0575371,0.147364 c 0,0 0.0893742,0.050947 0.13425315,0.063605 0.0444953,0.01308 0.0318433,0.051472 0.0253224,0.083309 -0.006137,0.031799 0.0575371,0.1407406 0.0575371,0.1660186 0,0.025738 0,0.057537 0.038358,0.1150741 0.038358,0.057537 -6.14e-6,0.1281849 -0.0445015,0.1665429 -0.0448789,0.038358 0,0.146873 -0.019179,0.1917902 -0.019179,0.044457 0.0318433,0.070126 0.0636805,0.1403214 0.0322208,0.070617 0.019179,0.1600248 0.019179,0.1600248 l 0.1089307,0.1342532 0.0445015,-0.051019 h 0.19830801 l 0.0640549,0.038358 c 0,0 0.0636774,-0.083237 0.10855633,-0.095895 C -0.03586844,8.0195771 0.046988,7.8600079 0.046988,7.8600079 c 0,0 0.04487891,-0.019179 0.09589511,-0.038358 0.0513998,-0.019179 0.0640549,-0.095895 0.0640549,-0.095895 l 0.0640549,-0.044876 -0.0513936,-0.2938283 0.0256968,-0.064055 -0.0640549,-0.1408461 c 0,0 0.0640579,-0.057504 0.13425315,-0.089302 0.0701952,-0.031837 0.0958982,0.025666 0.10855633,0.050944 0.0130417,0.025738 0.0256968,0.230179 0.0256968,0.2624381 0,0.031799 0.0191821,0.1595004 -0.006518,0.2362165 -0.0253163,0.076716 0,0.1281849 0,0.1281849 l 0.1089307,0.095895 c 0,0 0.0575401,-0.044948 0.10855633,-0.070648 C 0.71173272,7.7706 0.93574062,7.744934 0.93574062,7.744934 L 1.0377785,7.6171908 c 0,0 0.083231,0.1212145 0.089752,0.1469144 0.00614,0.0257 0.025319,0.095861 -0.00652,0.1276602 -0.031837,0.032259 0.025697,0.1281849 0.025697,0.1281849 0,0 3.1e-6,0.063605 -0.00652,0.082784 -0.00652,0.019179 -0.044882,0.1090059 -0.03184,0.1473639 0.012658,0.038358 0.019179,0.1534322 0.019179,0.1534322 l 0.070198,0.1150741 c 0,0 -0.1085533,0.1019603 -0.1342532,0.1276602 -0.0257,0.0257 -0.051019,0.1085563 -0.051019,0.1085563 0,0 -0.15994992,0.1472949 -0.19830797,0.1726112 -0.038358,0.0257 -0.0701983,0.121592 -0.0701983,0.15995 0,0.038358 -0.0448728,0.083309 -0.0897517,0.083309 -0.0444953,0 -0.0767161,0.1534321 -0.0767161,0.1534321 l -0.0828595,0.1276602 c 0,0 0.1150772,-0.01262 0.16609339,-0.038358 0.0510162,-0.0257 0.14077095,-0.1468392 0.14077095,-0.1468392 h 0.0958951 c 0,0 -0.0513998,0.057503 -0.0575371,0.089302 -0.006521,0.031837 -0.0640549,0.1600251 -0.0640549,0.1983832 0,0.038358 -0.11507413,0.1276602 -0.11507413,0.1276602 v 0.102488 c 0,0 -0.0191821,0.089302 -0.0318402,0.1276602 -0.0130417,0.038358 3.07e-6,0.070229 0.0318402,0.1408461 0.0318372,0.07016 -0.0448789,0.0893 -0.0767161,0.0893 -0.0318372,0 -0.17261119,0.03184 -0.17261119,0.03184 l -0.2109654,0.172614 c 0,0 3.07e-6,0.03222 0.0126612,0.08323 0.0130417,0.05102 0.0897517,0.03184 0.12810972,0.01266 0.038358,-0.01918 0.12121755,-0.05754 0.12121755,-0.05754 l 0.15994997,0.07672 0.0893773,0.108931 c 0,0 0.019179,0.102035 0,0.146914 -0.019179,0.0445 0.019179,0.185273 0.019179,0.185273 l 0.14077095,0.04488 c 0,0 0.0318402,0.0257 0.0510193,0.06405 0.019179,0.03836 0,0.06367 -0.019179,0.0959 -0.019179,0.03184 0.0130417,0.06368 0.0958951,0.102038 0.0832369,0.03836 0.038358,0.08324 0.0191791,0.153432 -0.0191791,0.07058 0.089752,0.108937 0.1281097,0.115074 0.038358,0.0065 0.2301482,0.03222 0.2301482,0.03222 0,0 0.051019,0.07672 0.070198,0.115074 0.019179,0.03836 0.2236305,0.383581 0.2236305,0.383581 l -0.00697,0.160025 0.086755,0.02158 0.093947,0.224155 c 0,0 0.079371,-0.07942 0.1514839,-0.0648 0.072535,0.01415 0.1373249,-0.0072 0.1373249,-0.0072 l 0.2527737,0.07215 c 0,0 0.014588,0.101312 0.050645,0.122715 0.036056,0.02167 0.014171,0.05042 0.00727,0.0938 -0.00729,0.04342 0.021531,0.108556 0.079413,0.137324 0.057537,0.02877 0.093585,0.07215 0.1442174,0.04338 0.050633,-0.02923 0.1373249,-0.0651 0.1373249,-0.0651 0,0 0.014562,0.09387 0.101289,0.122641 0.086689,0.02927 0.2166631,0.04346 0.2742002,0.108482 0.057959,0.06475 0.115898,0.101014 0.1734351,0.0648 0.057921,-0.03598 0.086713,-0.0434 0.1300579,-0.03604 0.043345,0.0072 0.1227066,-0.03594 0.1518588,-0.10084 0.028768,-0.06517 0.04339,-0.10135 0.122791,-0.06518 0.079401,0.03598 0.101223,0.05804 0.072071,0.108481 -0.028768,0.05036 -0.035985,0.115599 0.043378,0.144367 0.079401,0.02923 0.028754,0.151934 0.1300579,0.151934 0.1012652,0 0.2094199,0.02883 0.3394537,0.02158 0.1300338,-0.0072 0.1446455,0.05058 0.2094706,0.08676 0.065209,0.03598 0.1445918,0.115598 0.1445918,0.115598 l 0.093273,0.04218 c 0,0 -0.013111,0.166471 0.1019634,0.179129 0.1150741,0.01266 0.1408457,-5e-6 0.2175618,-0.01259 0.076716,-0.01312 0.050944,-0.07671 0.050944,-0.128185 0,-0.05098 -0.025247,-0.217038 -0.025247,-0.217037 0,0 0.1660899,7e-6 0.2301483,-0.05147 0.063674,-0.05098 0.115005,-0.07672 0.063605,-0.217038 -0.051016,-0.140851 -0.038289,-0.217567 0.013111,-0.230148 0.051016,-0.01312 0.076716,-0.03835 0.076716,-0.102488 0,-0.06406 0.038289,-0.217487 0.1403214,-0.179129 0.102416,0.03836 0.1534322,-0.01266 0.1917902,-0.06368 0.038358,-0.0514 0.1535039,-0.153432 0.2559199,-0.115074 0.102416,0.03836 0.2301483,0.06368 0.2685063,0.01266 0.038358,-0.05102 0.1150408,-0.102419 0.1660186,-0.05102 0.051438,0.05102 0.1665456,0.05102 0.2175618,0.03836 0.050978,-0.01304 0.064058,-0.07672 0.076716,-0.115074 0.01262,-0.03836 0.025697,-0.140771 0.025697,-0.140771 0,0 0.1917595,-0.102416 0.2553955,-0.153432 0.064096,-0.05102 0.1408458,-0.01266 0.1408458,0.06405 0,0.07672 0.038325,0.115077 0.1276605,0.08938 0.089796,-0.0257 0.1791705,-0.03836 0.2301483,-0.01266 0.051438,0.02532 0.2685063,0.06368 0.2685063,0.06368 0,0 -0.025278,0.115075 0,0.153433 0.025738,0.03836 0.1281542,0.06406 0.1534322,0 0.025738,-0.06367 0.1024877,-0.07672 0.1792037,-0.01266 0.076716,0.06414 0.1407714,0.115078 0.1407714,0.166094 0,0.0514 0.050947,0.153429 0.1019633,0.179129 0.0514,0.02578 0.2816167,0.153432 0.2816171,0.153432 l 0.1534322,0.140846 h 0.1403214 c 0,0 0.025772,0.0636 0.1024877,0.140321 0.076716,0.07672 0.089303,0.191791 0.089303,0.191791 l 0.1792038,0.19179 c 0,0 0.076644,-0.03836 0.1276605,-0.07672 0.0514,-0.03836 0.1150741,0.01315 0.1534322,0.02577 0.038358,0.01266 0.06413,0.115041 0.06413,0.166019 0,0.05148 0.063986,0.102446 0.1276606,0.08983 0.064058,-0.01312 0.1792041,0 0.1792041,0 L 9.8924181,13.9853 c 0,0 -0.064055,0.01259 -0.2558455,-0.01311 -0.1917902,-0.02524 -0.1917902,0.230141 -0.1917902,0.281618 0,0.05094 -0.089374,0.115074 -0.1534322,0.115074 -0.064058,0 -0.089446,0.07672 -0.1792037,0.140321 -0.089374,0.0641 -0.1917903,0.03836 -0.1917903,0.03836 0,0 -0.063603,0.140804 -0.2043766,0.166543 -0.140774,0.02524 -0.1024877,0.204376 -0.1024877,0.204376 l 0.1665429,0.127736 c 0,0 -0.013039,0.06406 -0.025697,0.115074 -0.012658,0.0514 0.050975,0.140774 0.1407714,0.115074 0.089374,-0.02532 0.1403214,0.07672 0.1403214,0.07672 0,0 0.1281158,-0.01266 0.1917902,-0.07672 0.064058,-0.06367 0.2049037,-0.11508 0.2559199,-0.178755 0.051016,-0.06406 0.1917902,0 0.3452223,-0.03836 0.1534322,-0.03836 0.089302,-0.204826 0.089302,-0.204826 0,0 0.089827,-0.07672 0.166543,-0.08938 0.07672,-0.01258 0.102033,0.06414 0.153432,0.153432 0.05102,0.08938 0.204452,0.255921 0.204452,0.255921 l -0.179204,0.02525 c 0,0 -0.08934,0.07671 -0.230149,0.166543 -0.1403519,0.0893 -0.060534,0.281092 -0.060534,0.281092 0,0 -0.028768,0.230148 -0.047948,0.306864 -0.019179,0.07672 0.019179,0.115075 0.067127,0.143843 0.047947,0.02877 0.1246633,0.05754 0.1822003,0.03836 0.05754,-0.01918 0.124664,0.105485 0.182201,0.115074 0.05754,0.0096 0.153432,0.03836 0.153432,0.03836 0,0 0.105485,0.0096 0.182201,0.01918 0.07672,0.0096 0.20138,0.06713 0.258917,0.09589 0.05754,0.02877 0.1822,0.143843 0.258916,0.172612 0.07672,0.02877 0.153433,0.06713 0.220559,0.04795 0.06713,-0.01918 0.182201,-0.05754 0.182201,-0.05754 0,0 0.01918,0.05754 0.02877,0.09589 0.0096,0.03836 0.07672,0.124664 0.153433,0.172611 0.07672,0.04795 0.1822,0.07672 0.1822,0.07672 l -0.124663,0.239737 c 0,0 -0.191791,0.124664 -0.230149,0.172611 -0.03836,0.04795 -0.115074,0.258917 -0.124663,0.287686 -0.0096,0.02877 -0.05754,0.09589 -0.153432,0.124663 -0.0959,0.02877 -0.163022,0.163022 -0.163022,0.163022 0,0 -0.0096,0.124664 0.0096,0.19179 0.01918,0.06713 -0.07672,0.153432 -0.07672,0.153432 l 0.09589,0.115075 c 0,0 -0.07672,0.115074 -0.07672,0.1822 0,0.06713 -0.07672,0.153432 -0.230148,0.105485 -0.153432,-0.04795 -0.182201,0.20138 -0.182201,0.20138 l -0.201379,-0.01918 -0.316454,0.268506 0.04795,0.143843 -0.134253,0.134253 c 0,0 0.03836,0.07672 0.03836,0.143842 0,0.06713 -0.1630213,0.05754 -0.2685059,0.0096 -0.1054846,-0.04795 -0.1726112,0.105485 -0.1726112,0.105485 0,0 -0.1246636,0.0096 -0.1917902,0 -0.067127,-0.0096 -0.1630217,-0.0959 -0.2013797,-0.143843 -0.038358,-0.04795 -0.047948,-0.08631 -0.1917902,-0.08631 -0.1438427,0 -0.1342532,-0.05754 -0.1630217,-0.0863 -0.028769,-0.02877 -0.1438427,-0.220559 -0.1438427,-0.220559 0,0 -0.2013797,0.03836 -0.2589168,0.07672 -0.057537,0.03836 -0.2109692,0.07672 -0.2109692,0.07672 0,0 -0.057537,-0.105485 -0.095895,-0.105485 -0.038358,0 -0.1822364,-0.0096 -0.2478286,-0.0681 C 7.9422668,19.02103 7.8625175,19.06116 7.7953909,19.08993 7.7282639,19.1187 7.459758,19.14747 7.459758,19.14747 L 7.41181,19.329671 c 0,0 -0.047948,0.01918 -0.1054847,0.01918 -0.057537,0 -0.3260433,-0.09589 -0.3260433,-0.09589 l -0.047948,0.163022 -0.019179,0.153432 c 0,0 0.1438427,0.210969 0.2013797,0.258917 0.057537,0.04795 0.067127,0.153432 0.047948,0.220558 -0.019179,0.06713 0.086306,0.21097 0.086306,0.21097 l -0.1342532,0.03836 -0.086306,0.143842 -0.067127,0.278096 c 0,0 -0.067127,-0.0096 -0.1246637,-0.03836 -0.057537,-0.02877 -0.076716,0.01918 -0.1726112,0.06713 -0.095895,0.04795 -0.2876853,0.0863 -0.2876853,0.0863 0,0 -0.019179,0.08631 -0.028768,0.124664 -0.00959,0.03836 -0.076716,0.124664 -0.1534322,0.134253 -0.076716,0.0096 -0.095895,0.09589 -0.2397378,0.09589 -0.1438426,0 -0.00959,0.163022 -0.00959,0.163022 l 0.1054846,-0.03836 0.1054847,0.04795 c 0,0 0.076716,0.143843 0.1150741,0.21097 0.038358,0.06713 0.3164538,0.153432 0.3164538,0.153432 0,0 0.2685063,-0.01918 0.3452224,-0.04795 0.076716,-0.02877 0.1726112,0.08631 0.2301483,0.153432 0.057537,0.06713 0.3164538,0.115075 0.3835804,0.124664 0.067127,0.0096 0.1054846,0.172611 0.1054846,0.172611 l 0.1534322,0.06713 -0.067127,0.172611 0.1054846,0.06713 0.1822007,-0.04795 0.1726112,0.01918 0.057537,0.124664 c 0,0 0.2013797,0.115074 0.2876853,0.124663 0.086306,0.0096 0.2013797,0.115075 0.2013797,0.143843 0,0.02877 0.1246637,0.163022 0.2013798,0.249327 0.076716,0.08631 0.1630216,0.08631 0.2205587,0.04795 0.057537,-0.03836 0.1342531,-0.02877 0.1726112,0.01918 0.038358,0.04795 0.067127,0.0863 0.1342531,0.0863 0.067127,0 0.1054847,0.0959 0.1054847,0.143843 0,0.04795 0.1630216,0.249327 0.1630216,0.249327 0,0 0.1438427,0.06713 0.1822007,0.08631 0.038358,0.01918 0.1054853,0.08631 0.1342533,0.143843 0.02877,0.05754 0.04795,0.0959 0.115074,0.105484 0.06713,0.0096 0.220559,0.03836 0.230148,0.08631 0.0096,0.04795 0.172612,0.172611 0.172612,0.172611 0,0 0.278095,0.02877 0.326043,0.02877 0.04795,0 0.210969,0.07672 0.249327,0.07672 0.03836,0 0.0959,0.03836 0.0959,0.03836 0,0 0.124664,-0.03836 0.191791,-0.08631 0.06713,-0.04795 0.105484,0.01918 0.201379,0.105485 0.0959,0.0863 0.05754,0.172611 0.05754,0.172611 l 0.163022,-0.01918 h 0.249327 c 0.06713,0 0.143843,0.05754 0.20138,0.08631 0.05754,0.02877 0.08631,0.124663 0.08631,0.124663 h 0.143842 c 0.06713,0 0.153433,0 0.230149,-0.02877 0.07672,-0.02877 0.07672,0.07672 0.04795,0.124663 -0.02877,0.04795 0.105485,0.08631 0.105485,0.08631 l 0.201379,0.163022 0.0096,0.278095 c 0,0 -0.04795,0 -0.182201,-0.03836 -0.134253,-0.03836 -0.0863,0.115074 -0.0863,0.172612 0,0.05754 -0.115074,0.201379 -0.124664,0.249327 -0.0096,0.04795 -0.05754,0.345222 -0.05754,0.450707 0,0.105484 0.134253,0.163021 0.134253,0.163021 l 0.124664,0.172612 h 0.115074 c 0,0 0.04795,0.143842 0.04795,0.172611 0,0.02877 -0.0096,0.182201 -0.0096,0.182201 0,0 0.163022,0.143842 0.249327,0.163021 0.08631,0.01918 0.115074,0.210969 0.115074,0.210969 0,0 0.04795,0 0.124664,-0.0096 0.07672,-0.0096 0.124664,0.09589 0.124664,0.09589 l 0.03836,-0.134253 0.124663,0.02877 c 0,0 0.01918,0.07672 0,0.172612 -0.01918,0.0959 -0.04795,0.19179 -0.04795,0.19179 0,0 0.09589,0.05754 0.1822,0.09589 0.08631,0.03836 0.0959,0.105485 0.191791,0.115074 0.09589,0.0096 0.07672,-0.115074 0.07672,-0.115074 h 0.1822 l 0.0096,-0.124664 0.249327,0.0096 0.05754,0.0863 c 0,0 0.0959,0.172612 0.04795,0.268507 -0.04795,0.0959 0.115074,0.05754 0.115074,0.05754 l 0.01918,0.230148 0.20138,0.05754 c 0,0 0.03836,0.07672 0.04795,0.134253 0.0096,0.05754 0,0.220559 0,0.220559 l 0.08631,0.07672 0.06713,-0.04795 0.172612,0.143842 v 0.07672 c 0,0.02877 -0.04795,0.08631 -0.07672,0.124664 -0.02877,0.03836 -0.0096,0.153432 -0.06713,0.249327 -0.05754,0.09589 0.115074,0.220559 0.153432,0.249327 0.03836,0.02877 0.163022,0.0959 0.210969,0.143843 0.04795,0.04795 -0.04795,0.278096 -0.04795,0.278096 l 0.105484,0.134253 0.191791,0.115074 0.05754,0.124664 0.06713,0.297275 0.134253,-0.06713 c 0,0 0.163022,0.134253 0.20138,0.172611 0.03836,0.03836 0.210969,0.105485 0.210969,0.105485 l 0.335633,0.412349 0.517834,0.623318 0.335633,0.421939 0.297275,0.201379 0.0096,0.08631 0.479476,0.345222 c 0,0 0.105484,0.03836 0.143842,0.01918 0.03836,-0.01918 0.105485,-0.0863 0.105485,-0.0863 l -0.01918,-0.143843 0.172611,-0.0096 v 0.191791 l 0.04795,0.115074 c 0,0 0.143842,-0.0096 0.0863,0.06713 -0.05754,0.07672 -0.172611,0.04795 -0.09589,0.124664 0.07672,0.07672 0.09589,0.20138 0.182201,0.230148 0.0863,0.02877 0.02877,0.163022 0.0863,0.21097 0.05754,0.04795 0.08631,0.115074 0.153433,0.134253 0.06713,0.01918 0.134253,0.153432 0.134253,0.153432 l -0.06915,0.167291 0.09792,0.08204 0.05754,0.208422 c 0,0 0.134253,-0.01663 0.191791,0.04091 0.05754,0.05754 0.134253,0.07672 0.201379,0.08631 0,0 0.134253,-0.0096 0.153432,-0.03836 l 0.07672,-0.08885 v 0.386128 h -0.143843 l -0.01918,0.1822 0.182201,0.172612 -0.01918,0.949361 0.0863,0.172611 c 0,0 0.07672,0.163022 0.07672,0.230149 0,0.06713 0,0.143842 0.08631,0.115074 0.0863,-0.02877 0.163021,0.02877 0.163021,0.02877 l 0.09028,0.05042 0.130282,0.141445 c 0,0 -0.124663,0.134253 -0.105484,0.21097 0.01918,0.07672 0.0863,0.220558 0.115074,0.287685 0.02877,0.06713 0.09589,0.220559 0.172611,0.230148 0.07672,0.0096 0.115074,0 0.143843,0.05754 0.02877,0.05754 0.08066,0.112002 0.126536,0.06563 0.04603,-0.04649 0.113201,-0.05604 0.122791,-0.132753 0.0096,-0.07672 -0.02877,-0.115075 0.01918,-0.153433 0.04795,-0.03836 0.06713,-0.08631 0.09589,-0.02877 0.02877,0.05754 0.08631,-0.0096 0.105485,-0.05754 0.01918,-0.04795 0.115074,-0.383581 0.115074,-0.383581 0,0 0.153432,0.05754 0.210969,0.105485 0.05754,0.04795 0.115074,0.05754 0.0959,0.124664 -0.01918,0.06713 -0.0959,0.172611 -0.04795,0.230148 0.04795,0.05754 0.05754,0.07672 0.0096,0.115074 -0.04795,0.03836 -0.105485,0.09589 -0.105485,0.09589 l 0.153433,0.04795 c 0,0 -0.01524,0.123869 0.069,0.186393 0.08439,0.06291 0.218686,0.158829 0.266633,0.168419 0.04795,0.0096 0.04022,-8.06e-4 0.04398,0.08091 0.0039,0.08209 0.02315,0.235545 0.02315,0.235545 l 0.219735,-0.04795 c 0,0 0.04877,0.03836 0.115898,0.03836 0.06713,0 0.19179,0.0096 0.230148,0 l 0.03836,-0.0096 c 0,0 0.278096,0.153433 0.335633,0.191791 0.05754,0.03836 0.09589,0.105484 0.05754,0.1822 -0.03836,0.07672 -0.07907,0.163812 -0.03439,0.23067 0.04396,0.06659 0.07672,0.134253 0.07672,0.134253 0,0 0.17823,0.200858 0.264535,0.200858 0.08631,0 0.191791,-0.04795 0.191791,-0.04795 l 0.09589,0.03836 0.03836,0.124664 0.115074,0.0096 0.105485,0.239738 0.134253,0.09589 0.220558,-0.03836 0.143843,0.0096 0.05754,-0.115074 0.210969,-0.04795 0.05754,0.124663 c 0,0 -0.124663,0.124664 -0.05754,0.163022 0.06713,0.03836 0.09831,0.06713 0.05754,0.153432 -0.04031,0.08631 -0.1822,0.450707 -0.1822,0.450707 l -0.134253,0.19179 -0.0959,0.06713 -0.0959,-0.05754 -0.249327,0.02877 c 0,0 -0.0096,0.124664 -0.0863,0.134254 -0.07672,0.0096 -0.172612,0.07672 -0.172612,0.07672 0,0 -0.143842,0.07672 -0.210969,0.08631 -0.06713,0.0096 -0.115074,0.05754 -0.115074,0.05754 0,0 0.0959,0.124664 0.06713,0.230149 -0.02877,0.105484 -0.08631,0.210969 -0.08631,0.210969 l 0.04795,0.07672 0.1822,-0.05754 v 0.143843 c 0,0 0.143843,0.02877 0.134253,0.134253 -0.0096,0.105484 -0.105484,0.1822 -0.04795,0.220558 0.05754,0.03836 0.02877,0.191791 0.134253,0.182201 0.105485,-0.0096 0.220559,0.0096 0.220559,0.0096 l 0.124663,0.1822 -0.06713,0.115074 0.115074,0.0096 0.08631,0.402759 0.258916,0.02877 c 0,0 0.04981,-0.08733 0.139873,-0.05335 l 0.163845,0.136578 0.153432,0.01266 c 0,0 0.07672,0.14077 0.06361,0.217486 -0.01266,0.07672 -0.02525,0.127736 -0.02525,0.127736 l 0.230149,0.102413 0.204376,-0.16647 0.140846,0.05139 c 0,0 -0.140846,0.127694 -0.140846,0.191791 0,0.06364 0.01266,0.281168 0.08938,0.281168 0.07672,0 0.115494,0.0898 0.06405,0.153432 -0.05094,0.0641 -0.07671,0.19179 -0.06405,0.242807 0.01312,0.0514 0.06405,0.21749 0.06405,0.21749 l -0.230148,0.14077 0.242809,0.306864 -0.127735,0.102036 0.08938,0.102416 -0.140321,0.127733 0.101963,0.19179 -0.115074,0.01304 -0.03836,0.140394 -0.255396,-0.140394 c 0,0 -0.140845,0.115116 -0.255919,0.127736 -0.115075,0.01266 -0.140779,0.127732 -0.127661,0.204448 0.01258,0.07672 0.0893,0.243186 0.0893,0.243186 0,0 0.242801,0.217494 0.332636,0.242811 0.0893,0.02566 0.204376,0.06405 0.204376,0.06405 l 0.02577,0.166094 c 0,0 -0.294275,0.217452 -0.358333,0.268506 -0.0636,0.05102 -0.114655,0.14077 -0.05102,0.179128 0.06413,0.03836 0.140853,0.06367 0.08938,0.153433 -0.05102,0.08941 -0.05102,0.166094 -0.05102,0.166094 l 0.153432,0.01266 c 0,0 0.0035,0.0373 0.0057,0.089 0.0044,0.09029 0.0059,0.224882 -0.01835,0.28192 -0.03836,0.08937 0.01259,0.268506 -0.08983,0.319523 -0.101956,0.05136 -0.08938,0.153777 -0.05102,0.21749 0.03836,0.06402 -0.0893,0.345222 -0.0893,0.345222 l -0.115074,0.588029 -0.179204,-0.16609 -0.19179,0.07672 c 0,0 0.05101,0.230148 -0.01259,0.319522 -0.06414,0.08972 -0.19179,0.166436 -0.115074,0.268507 0.07672,0.102415 0.14074,0.332564 0.05094,0.421938 -0.0893,0.08972 -0.217487,0.306864 -0.217487,0.306864 l -0.127736,0.230149 -0.03836,0.243186 0.255921,0.07672 c 0,0 -0.102488,0.102032 -0.102488,0.153432 v 0.21711 l 0.115074,0.153433 0.281167,-0.03836 0.102413,0.08975 c 0,0 -0.0257,0.204453 0.02577,0.255469 0.05094,0.0514 0.0636,0.204832 0,0.294206 -0.06413,0.08937 0.0636,0.153432 0.0636,0.153432 l -0.08938,0.345223 0.409353,0.242806 0.0893,0.319902 0.127735,0.178753 0.0257,0.243186 0.25592,0.523974 0.05094,0.907935 -0.12766,0.294203 -0.677859,1.559641 0.05754,0.351744 -0.0959,-0.01259 -0.0061,0.153432 0.09589,0.19179 -0.05754,0.08278 c 0,0 0.02528,0.07065 0.03836,0.08983 0.0127,0.01918 0.108556,0.166021 0.108556,0.166021 l 0.249328,0.281165 c 0,0 -0.01266,0.128116 -0.01266,0.210969 0,0.08324 0.02524,0.179132 -0.0065,0.236669 -0.0323,0.05754 0.07672,0.172611 0.07672,0.172611 0,0 0.0318,0.08937 0.0065,0.134254 -0.02566,0.04496 -0.01308,0.185269 0.01918,0.268506 0.03187,0.08331 0.03184,0.19179 0.03184,0.19179 0,0 -0.01918,0.08331 0.01918,0.146911 0.03836,0.06406 -0.0127,0.102416 -0.07672,0.159953 -0.06414,0.05754 -0.05105,0.127733 -0.0066,0.172612 0.04495,0.04496 0.05147,0.153432 -0.0061,0.172611 -0.05754,0.01918 -0.02566,0.19179 -0.115075,0.281164 -0.0898,0.08976 0.01266,0.249328 0.01266,0.249328 l -0.04495,0.147291 c 0,0 -0.0959,0.04449 -0.14684,0.07672 0,0 -0.102488,0.08938 -0.179204,0.102036 -0.07672,0.01304 -0.07672,0.07671 -0.166018,0.128112 -0.08941,0.05102 -0.115074,0.08938 -0.115074,0.140394 v 0.140774 h -0.153432 c 0,0 -0.128188,-0.0893 -0.140846,-0.166021 -0.01258,-0.07672 -0.06406,-0.166543 -0.115074,-0.204901 -0.05094,-0.03836 -0.153433,-0.05102 -0.230149,-0.05102 -0.07672,0 -0.179132,-0.0257 -0.230148,0 -0.05094,0.02574 -0.115074,0.06405 -0.153432,0.102412 -0.03836,0.03836 -0.0893,0.102036 -0.153432,0.08938 -0.06364,-0.01262 -0.204377,-0.02574 -0.281093,0.0257 -0.07672,0.05098 -0.153432,0.08938 -0.153432,0.178752 0,0.0898 -0.01311,0.166513 -0.102488,0.191791 -0.0893,0.02574 -0.05094,0.115032 -0.153432,0.16647 -0.101994,0.05098 -0.153432,0.178752 -0.153432,0.178752 0,0 -0.0893,0.19179 -0.19179,0.230148 -0.101995,0.03836 -0.08927,0.102416 -0.217038,0.179132 -0.128154,0.07672 -0.370919,0.179201 -0.370919,0.179201 0,0 -0.191755,-0.07672 -0.281168,-0.07672 -0.0898,0 -0.153432,-0.02574 -0.19179,-0.03836 -0.03836,-0.01308 -0.19179,-0.03839 -0.230148,0.02525 -0.03836,0.0641 -0.153432,0.243259 -0.153432,0.243259 0,0 -0.12819,0.217037 -0.140771,0.255395 -0.0127,0.03836 -0.07668,0.115074 -0.166094,0.115074 -0.0898,0 -0.102408,3.1e-5 -0.166543,-0.06361 -0.06364,-0.0641 -0.0893,-0.05147 -0.115074,0.01259 -0.02528,0.0641 -0.127655,0.05102 -0.230148,0.05102 -0.101994,0 -0.332147,0 -0.396166,-0.02532 -0.06414,-0.02574 -0.11507,-0.03832 -0.179205,-0.0257 -0.06364,0.01266 -0.12766,0.03832 -0.166018,-0.01266 -0.03836,-0.05144 -0.102488,-0.07672 -0.140846,-0.03836 -0.03836,0.03836 -0.12766,0.03836 -0.12766,0.03836 l 0.268506,0.613729 c 0,0 -0.166093,0.02532 -0.127735,0.102036 0.03836,0.07672 0.05102,0.140774 -0.01311,0.21749 -0.06364,0.07672 -0.153437,0.255917 -0.12766,0.294275 0.02566,0.03836 0.102413,0.19176 0.102413,0.242738 0,0.05098 0.02528,0.115112 0.07672,0.127732 0.05105,0.01308 0.03836,0.115074 0.03836,0.115074 0,0 -0.204901,-0.02528 -0.281617,-0.07672 -0.07672,-0.05098 -0.166018,-0.06364 -0.242734,-0.03836 -0.07672,0.02574 -0.166094,0.0514 -0.204452,0.06406 -0.03836,0.01266 -0.07675,0.02578 -0.140771,-0.0257 -0.06414,-0.05098 -0.07671,-0.07676 -0.102488,-0.140394 -0.02528,-0.0641 -0.05091,-0.07672 -0.140321,-0.07672 -0.0898,0 -0.230601,-0.0257 -0.281617,-0.08975 -0.05094,-0.06364 -0.115075,-0.06368 -0.230149,-0.02532 -0.115074,0.03836 -0.217037,0.01266 -0.255395,-0.0257 -0.03836,-0.03836 -0.12819,-0.115074 -0.179129,-0.115074 -0.05144,0 -0.140846,-0.03836 -0.179204,-0.03836 -0.03836,0 -0.04285,0.01458 -0.10039,0.03836 -0.05754,0.02374 -0.04338,0.143843 -0.03836,0.20138 0.0046,0.05754 -0.03379,0.158377 -0.08631,0.177556 -0.05297,0.01918 -0.10099,0.138856 -0.10099,0.172611 0,0.03337 -0.119569,0.153432 -0.119569,0.153432 0,0 -0.0242,0.0092 -0.0863,0 -0.06256,-0.01001 -0.297275,-0.182577 -0.297275,-0.182577 0,0 -0.03379,0.01 -0.153432,0.0675 -0.120099,0.05754 -0.07222,0.129309 -0.07222,0.129309 l -0.08121,0.120018 -0.08181,0.0092 c 0,0 -0.0095,0.134253 0.01468,0.172611 0.02374,0.03836 0.05244,0.134253 0.08121,0.134253 0.02877,0 0.124733,-4e-6 0.187295,0.01461 0.0621,0.01458 0.10039,0.148829 0.10039,0.201379 0,0.05251 0.0242,0.196735 -0.0096,0.273451 -0.03333,0.07672 -0.0096,0.11512 0.06713,0.143467 0.07672,0.02919 0.06713,0.06256 0.06713,0.09133 0,0.02877 -0.04795,0.07672 -0.124664,0.124664 -0.07672,0.04795 -0.01918,0.134253 -0.04795,0.172611 -0.02877,0.03836 0.07222,0.07169 0.07222,0.07169 0,0 -0.05761,0.230102 -0.07222,0.278472 -0.01415,0.04753 -0.06203,0.234793 -0.06203,0.234793 l 0.10039,-0.05297 0.163021,0.03379 c 0,0 0.0096,0.0959 0.0096,0.17718 0,0.08174 0.09596,0.196811 0.187295,0.273527 0.09087,0.07672 0.359307,0.06713 0.359307,0.06713 0,0 0.0096,0.119642 0.0096,0.196359 0,0.07672 0.19179,0.148863 0.19179,0.148863 l 0.134253,0.17718 0.05754,-0.03836 0.05754,0.08668 0.0096,0.09095 0.07672,-0.01918 0.0096,-0.0242 c 0.0096,-0.02374 0.05754,-0.0667 0.105485,-0.09589 0.04795,-0.02835 0.105554,-0.02835 0.120169,-0.01416 0.01415,0.01415 0.148337,0.225127 0.148337,0.225127 0,0 0.03843,0.187222 0.05304,0.244759 0.01415,0.05754 0.04285,0.19179 0.04285,0.19179 0,0 -0.08128,0.03371 -0.115074,0.03371 -0.03333,0 -0.0908,-0.03371 -0.0908,-0.03371 h -0.11058 l 0.03836,0.239738 -0.04795,0.124664 0.249327,0.469886 v 0.249327 l -0.143843,-0.143843 c 0,0 -0.19179,0 -0.345222,0.01918 -0.153432,0.01918 -0.316454,-0.134253 -0.421938,-0.201379 -0.105485,-0.06713 -0.39317,-0.412349 -0.39317,-0.412349 l 0.03836,0.220558 -0.134253,0.09589 0.0096,0.143843 -0.431528,-0.172611 0.07672,-0.172611 c 0,0 -0.07672,-0.134253 -0.153432,-0.220559 -0.07672,-0.08631 -0.306864,-0.527423 -0.306864,-0.527423 0,0 -0.04795,0.01918 -0.0959,0.01918 -0.04795,0 -0.239738,0.06713 -0.258917,0.09589 -0.01918,0.02877 -0.220559,0.143843 -0.297275,0.182201 -0.07672,0.03836 -0.680855,0.143842 -0.747982,0.153432 -0.06713,0.0096 -0.172611,0.03836 -0.249327,-0.03836 -0.07672,-0.07672 -0.124664,0.02877 -0.124664,0.02877 l -0.0959,-0.115074 c 0,0 -0.124664,0.268507 -0.20138,0.306865 -0.07672,0.03836 -0.239737,0.306864 -0.239737,0.306864 0,0 -0.21097,-0.06713 -0.316454,-0.124664 -0.105485,-0.05754 -0.115074,-0.03836 -0.249328,-0.02877 -0.134253,0.0096 -0.220558,-0.08631 -0.220558,-0.08631 l -0.249328,-0.07672 -0.194786,0.008 0.03416,-0.166842 -0.164969,-0.03888 -0.220934,0.187817 c 0,0 -0.06713,0.08631 -0.105484,0.124663 -0.03836,0.03836 0.01918,0.210969 0.01918,0.210969 0,0 0.105484,0.21097 0.105484,0.268507 0,0.05754 0.0959,0.210969 0.153433,0.268506 0.05754,0.05754 0.05754,0.258917 0.05754,0.258917 0,0 -0.661677,0.373991 -0.738393,0.441117 -0.07672,0.06713 -0.258916,0.306865 -0.268506,0.40276 -0.0096,0.09589 -0.210969,0.268506 -0.210969,0.268506 0,0 -0.354812,0.02877 -0.412349,0.02877 -0.05754,0 -0.19179,0 -0.297275,-0.04795 -0.105485,-0.04795 -0.450707,-0.07672 -0.450707,-0.07672 l -0.05754,0.07672 -0.1630219,-0.01918 c -0.1630216,-0.01918 -0.1054846,0.105485 -0.1054846,0.105485 0,0 -0.1342531,0.0863 -0.1438426,0.172611 -0.00959,0.08631 -0.057537,0.1822 -0.1630217,0.20138 -0.1054846,0.01918 -0.1246637,0.143842 -0.1246637,0.143842 l -0.2109692,-0.134253 -0.1054846,0.05754 -0.016182,0.01311 0.025322,0.03139 0.011537,0.03431 0.023374,0.06915 -0.012062,0.0959 v 0.06151 l 0.088778,0.0077 0.088254,-0.0269 0.068999,-0.04982 0.057537,-0.06923 0.042254,-0.08833 h 0.042553 l 0.030267,0.06158 -0.00344,0.05349 -0.026821,0.05364 -0.042553,0.06525 -0.042254,0.03064 h -0.038358 l -0.019179,0.01153 0.026896,0.07672 0.1189697,0.157406 0.053641,0.1111 0.00764,0.153432 h 0.04585 l 0.00397,-0.02682 0.00764,-0.01513 0.023075,-0.03439 0.1495365,0.119121 0.049895,0.07672 0.023075,0.130206 v 0.157479 l 0.011462,0.04997 0.07282,0.08773 0.023075,0.03491 0.00397,0.0687 -0.019179,0.03836 -0.011537,0.03836 0.026671,0.0499 0.015283,-0.01154 0.1917901,0.01154 0.01536,-0.02315 0.023,-0.106908 0.03454,-0.02734 0.06136,-0.01101 0.01161,-0.03836 v -0.05042 l 0.01918,-0.05349 0.14182,-0.126163 0.16879,-0.05034 0.180103,0.02667 0.176582,0.107583 0.111103,0.149462 0.107583,0.18782 0.130207,0.176581 0.172611,0.103536 0.126612,0.0076 0.21494,-0.05357 0.103536,0.01146 0.107433,0.06526 0.214865,0.206999 0.241686,0.330013 0.07282,0.126612 0.03446,0.122715 v 0.245358 l 0.03072,0.214939 0.0039,0.07672 -0.130282,-0.352863 -0.01528,-0.0917 -0.05357,-0.04255 -0.119044,0.05754 -0.333685,0.256968 -0.08825,0.09193 -0.03836,0.09986 -0.04225,0.05357 -0.291656,0.119044 -0.111103,0.172611 -0.07282,0.230149 -0.206998,1.100845 -0.01506,0.234045 0.03836,0.724906 -0.08084,0.256895 -0.03439,0.828668 -0.04233,0.341253 0.004,0.65965 0.02682,0.141822 0.08825,0.05754 v 0.03836 l -0.09987,0.07275 -0.01521,0.130283 0.03836,0.280044 -0.01528,0.119044 -0.07672,0.241687 -0.01918,0.141894 0.100015,0.149462 0.222582,-0.05754 0.345223,-0.153432 -0.02727,0.103536 0.01154,0.115074 0.05409,0.092 v 0.03836 l -0.08833,0.06473 -0.04248,0.01199 h -0.130283 l -0.08825,0.0073 -0.06151,0.01521 -0.02315,0.03064 0.02315,0.06525 0.126537,0.07275 h 0.168715 l 0.172611,-0.04989 0.130283,-0.06158 -0.03836,0.06518 -0.07672,0.06151 -0.08825,0.04593 -0.07672,0.01918 -0.35676,-0.07267 -0.06907,-0.004 -0.07282,0.04241 0.02315,0.02667 0.05754,0.03087 0.02307,0.05754 -0.01918,0.05754 -0.03836,0.023 -0.0499,0.01168 -0.05754,0.03836 -0.314505,0.253302 -0.05357,-0.05349 -0.06518,-0.02322 -0.04233,0.0152 0.01528,0.06151 0.02682,0.01918 0.130283,0.04585 0.337581,0.05754 0.03836,0.01918 0.02682,0.02689 0.03446,0.01918 0.126611,0.01918 1.1891,-0.245353 0.203327,-0.08399 0.145716,-0.111028 0.176582,-0.2993 0.341252,-0.280117 v -0.03836 l 0.14594,0.03079 0.172611,-0.115074 0.153432,-0.168714 0.08825,-0.134253 0.372043,-0.886133 0.004,-0.02674 -0.0077,-0.06158 0.004,-0.02675 0.02682,-0.0233 0.06907,-0.01918 0.01521,-0.01506 0.02315,-0.100015 0.05754,-0.0726 0.141895,-0.115074 0.237715,-0.264609 0.134254,-0.115074 1.196741,-0.460297 1.400068,-0.586832 0.744086,-0.234195 0.153432,-0.03117 0.05357,-0.04233 0.01918,-0.08436 -0.01521,-0.08069 -0.03446,-0.03064 -0.0499,-0.02322 -0.05364,-0.05754 0.199432,-0.218461 0.02682,-0.07282 -0.01528,-0.230148 -0.02308,-0.08818 -0.03446,-0.08076 -0.563684,-0.855415 -0.05364,-0.111101 -0.01918,-0.09987 -0.03439,-0.09979 -1.273382,-1.304173 -0.103087,-0.157706 0.103087,0.01521 0.168641,0.111104 0.187894,0.0499 0.157328,0.119044 0.203328,0.19576 0.510341,0.656133 1.004801,0.974084 0.467938,0.261015 0.260865,0.206849 0.07282,0.03439 0.222507,0.004 0.07672,-0.05342 0.05754,-0.0233 0.0499,0.01521 0.06151,0.02772 0.06518,-0.01528 0.119045,-0.0726 0.134253,-0.122639 0.103462,-0.165047 0.06915,-0.19591 0.02675,-0.287685 -0.004,-0.115074 -0.02667,-0.107433 -0.06518,-0.046 -0.134253,-0.01918 -0.05754,-0.06473 -0.046,-0.222956 -0.09589,-0.179803 -0.138149,-0.157701 -0.471984,-0.398491 -0.103387,-0.134253 -0.03087,-0.01918 -0.275998,-0.268506 -0.03446,-0.05042 -0.046,-0.09589 -0.03072,-0.04555 -0.04989,-0.05035 -0.368447,-0.280117 -0.11897,-0.110955 -0.05754,-0.07275 -0.05364,-0.08069 -0.03431,-0.19179 -0.046,-0.08084 -0.122716,-0.138223 -0.04225,-0.02675 -0.0499,-0.02315 -0.02682,-0.03064 0.046,-0.03439 0.03072,0.0075 0.04989,0.0269 0.046,0.03439 1.354069,1.430859 0.460297,0.283639 0.130357,0.103539 0.322073,0.360428 0.126686,0.103463 0.134253,0.03424 0.14182,-0.0499 0.107508,-0.126685 0.02675,-0.199358 h 0.03446 l 0.02637,0.04248 0.01199,0.05342 -0.0076,0.0499 -0.03079,0.04248 v 0.04241 l 0.07275,-0.06915 0.05754,-0.119044 0.01536,-0.115074 -0.04997,-0.05034 -0.0887,-0.02315 -0.302669,-0.164971 -0.287685,-0.226251 -0.418118,-0.203328 -0.12309,-0.115074 -0.502326,-0.678009 -0.05754,-0.115074 -0.046,-0.214863 -0.06518,-0.07672 -0.160699,-0.13036 -0.02675,-0.01154 -0.03079,-0.01153 -0.02675,-0.03446 0.210969,0.06952 0.157328,0.160701 0.448684,0.74079 0.138224,0.172611 0.160999,0.129984 0.268506,0.115074 0.08069,0.06181 0.07672,0.07245 0.07672,0.06181 0.08825,0.03064 0.203252,0.0077 0.02315,-0.0043 0.01154,-0.01918 0.01521,-0.04218 0.03836,-0.05371 -0.004,-0.03836 0.01918,-0.02675 0.08428,-0.0072 0.02307,-0.02345 -0.02307,-0.05327 -0.03836,-0.04608 -0.01918,-0.01521 0.01161,-0.0499 0.03064,-0.046 0.06922,-0.07672 0.01521,-0.01918 0.02315,-0.09589 h 0.03836 l 0.02315,0.046 0.01154,0.05349 -0.0039,0.0499 -0.03079,0.046 0.09192,0.01918 0.08833,-0.05034 0.291656,-0.314056 0.03439,-0.0887 0.01154,-0.126762 -0.01154,-0.05327 -0.02322,-0.0269 -0.03836,-0.01573 -0.05754,-0.0035 -0.05349,-0.01146 -0.03836,-0.0269 -0.02682,-0.02682 -0.02675,-0.01154 -0.03446,-0.01918 -0.08428,-0.07672 -0.03079,-0.01918 -1.300203,-0.456848 -0.314356,-0.202879 0.08061,-0.02727 0.08061,0.03117 0.08436,0.04997 0.107433,0.02675 h 0.203477 l 0.395568,0.08061 0.57125,-0.0039 0.28379,0.0648 0.103461,0.01199 0.08436,-0.05364 0.02307,-0.122642 -0.03836,-0.48719 -0.03439,-0.08061 -0.06915,-0.08428 -0.0499,-0.07672 -0.04225,-0.09986 -0.05754,-0.08091 -0.092,-0.03417 -0.05754,0.03417 -0.08436,0.153432 -0.04593,0.04255 -0.103462,0.004 -0.04233,-0.06151 -0.01154,-0.09193 -0.02682,-0.08069 h -0.03439 l -0.04233,0.08421 -0.06151,0.07672 -0.08069,0.05005 -0.09589,0.01918 -0.05754,-0.03087 -0.02667,-0.07672 -0.01169,-0.199281 0.03836,0.0499 0.02674,0.05754 0.01528,0.07267 -0.004,0.092 0.06915,-0.04645 0.07275,-0.02644 0.05357,-0.03431 0.04233,-0.115074 0.04593,-0.04241 0.06151,-0.03117 0.06158,-0.01513 -0.03446,-0.03432 -0.01918,-0.03446 -0.01918,-0.08421 h 0.03836 l 0.05364,0.09979 0.08833,0.004 0.172612,-0.0651 0.06907,-0.04233 0.03836,-0.09589 0.03072,-0.115075 0.03079,-0.09192 0.03072,-0.03446 0.03439,-0.02307 0.02682,-0.03079 0.01918,-0.0651 -0.06151,-0.157402 -0.01154,-0.05357 -0.03087,-0.03079 -0.05349,-0.02674 -0.03439,-0.03836 0.02315,-0.06151 0.03439,-0.02675 0.107432,-0.05754 0.02682,-0.01161 0.07275,0.03446 0.08436,0.07267 0.06908,0.08436 0.02682,0.06151 0.0499,0.06151 0.107507,-0.03079 0.180178,-0.092 0.333685,0.287685 -0.02682,0.191791 -0.0042,0.103164 0.03087,0.107356 0.03117,0.04997 0.03079,0.0233 0.02675,0.02682 0.02315,0.05754 -0.004,0.05754 -0.02322,0.06143 -0.0076,0.04945 0.03439,0.0269 0.046,-0.04233 0.119045,-0.218614 0.09192,-0.04989 -0.103536,-0.10354 -0.04233,-0.149386 0.004,-0.168414 0.03439,-0.157629 h 7.7e-5 0.03439 l 0.004,0.153432 -0.01169,0.06915 -0.02667,0.05005 v 0.03439 l 0.07275,0.08069 -0.03836,0.03836 0.06518,0.05754 0.0499,0.02667 0.03439,-0.0075 0.0076,-0.05004 -0.03087,-0.03079 -0.03836,-0.03064 -0.01513,-0.04241 0.06151,-0.138223 0.01521,-0.09193 -0.05754,-0.04233 -0.0651,-0.03439 v -3.84e-4 -0.07274 l 0.04593,-0.141898 -0.03836,-0.04989 -0.07672,-0.05357 -0.05357,-0.06151 0.02315,-0.08436 0.157403,0.153432 0.05754,0.09185 0.0076,0.141894 -0.05754,-0.02682 -0.01918,-0.01154 0.02307,0.05754 0.07282,0.07672 0.01528,0.03439 0.01154,0.406729 -0.0076,0.05357 -0.03836,0.06151 -0.0499,0.03072 -0.06518,0.02682 -0.05364,0.046 -0.01498,0.08825 h 0.03416 l 0.03087,-0.04233 0.04233,-0.03064 0.07672,-0.04233 0.004,0.046 0.03072,0.107433 0.06166,-0.03072 0.03836,-0.04989 0.05342,-0.111181 0.01521,0.07282 v 0.03071 l -0.01521,0.0499 h 0.03117 l 0.08833,-0.05754 0.110953,0.0076 0.107957,0.05364 0.06907,0.07672 h 0.03431 v -0.08069 l 0.0424,0.01918 0.06106,0.0076 h 0.05754 l 0.02727,-0.0076 0.103462,0.115074 0.02682,0.01918 0.02637,0.01918 0.03439,0.03836 0.02675,0.04997 0.004,0.05005 -0.03072,0.03836 -0.046,0.01146 -0.04592,0.01521 -0.02315,0.04997 0.14182,0.02315 0.203402,0.127061 0.0959,0.004 0.134254,-0.210969 0.160999,-0.149462 0.04233,-0.06511 0.05754,0.01918 0.215015,-0.06915 0.245282,-0.03439 0.0959,-0.02682 0.345222,-0.15733 0.103537,-0.06518 0.04593,-0.06907 0.03079,-0.06173 0.138224,-0.145339 0.05754,-0.04645 0.218536,-0.126159 0.126686,-0.04645 0.119045,-0.01498 0.353239,-0.191791 0.198982,-0.06915 0.07275,-0.04233 0.226177,-0.19576 0.318477,-0.138377 0.08428,-0.01918 0.115074,-0.004 0.09192,0.01161 0.241761,0.07275 0.05754,0.03439 h 0.03836 l 0.199357,-0.410323 0.0424,-0.234123 0.07672,-0.157402 0.01513,-0.06915 0.03079,-0.07672 0.127061,-0.134253 0.02637,-0.05754 0.06518,-0.09193 0.157478,-0.05357 0.66722,-0.134253 0.14579,0.046 0.046,0.172611 h 0.03072 l 0.08436,-0.176581 0.05349,-0.04233 0.107582,-0.01146 0.02667,-0.05754 0.06922,-0.257045 0.03431,-0.07275 0.03836,-0.01918 0.092,-0.0076 0.05754,-0.0075 0.19179,-0.09987 0.04225,-0.01918 0.138299,-0.01918 0.04989,-0.06158 0.05349,-0.230149 0.046,-0.08818 0.07672,-0.103609 0.092,-0.08061 0.153432,-0.04997 0.0651,-0.07672 0.03079,-0.01918 h 0.203328 l 0.06143,-0.01514 0.107582,-0.04997 0.05349,-0.01161 0.07282,0.0073 0.115074,0.05754 0.05349,0.01199 h 0.09192 l 0.06555,-0.01199 0.046,-0.04562 0.04188,-0.100019 0.06563,-0.283562 0.04592,-0.103463 0.04585,-0.06915 0.06922,-0.06952 0.180103,-0.13021 0.09192,-0.0424 0.09987,-0.01514 h 0.09589 l 0.08443,0.01918 0.237341,0.10751 0.0959,0.0076 0.08076,-0.02674 0.08069,-0.04997 0.134253,-0.111104 0.0651,-0.06907 0.02675,-0.06915 -0.01918,-0.215013 0.04997,-0.38358 -0.0039,-0.245284 -0.08443,-0.141818 0.03836,0.004 0.115074,-0.004 -0.03439,-0.09193 0.004,-0.08443 0.01918,-0.07672 0.01154,-0.07672 -0.03836,-0.03431 -0.06503,-0.07275 -0.0076,-0.06922 0.126613,-0.03064 0.02682,0.03836 0.03836,0.19576 0.06151,0.07275 0.103463,0.02315 0.08833,-0.0077 0.08069,0.004 0.06503,0.05754 h 0.03836 l 0.06518,-0.08833 0.03071,-0.0651 0.01521,-0.06151 0.01918,-0.04592 0.09987,-0.08428 0.03087,-0.03836 0.02308,-0.08443 v -0.05754 l 0.01528,-0.04982 0.0959,-0.119044 0.04585,-0.115074 0.03836,-0.04233 0.04241,0.03836 0.05753,-0.118971 -0.215014,-0.276147 0.0076,-0.145791 -0.06518,-0.09589 0.0076,-0.07672 0.03438,-0.07282 0.02315,-0.08061 -0.03836,-0.004 -0.08069,0.09192 -0.08069,0.111101 -0.02674,0.05004 -0.172611,-0.03454 -0.03079,-0.187817 0.06151,-0.184076 0.107433,-0.01521 0.134254,-0.126689 0.09193,-0.149462 0.05364,-0.161073 0.01521,-0.160924 -0.03087,-0.092 -0.126609,-0.118971 -0.03109,-0.05754 0.03109,-0.157402 -0.0076,-0.02315 -0.02667,-0.01918 -0.06922,-0.134254 0.07289,-0.09589 0.04982,0.0651 0.05356,0.241763 0.06061,0.165043 0.06203,0.168564 h -0.03836 l 0.06158,0.19179 -0.03439,0.410251 0.04593,0.168718 0.01918,-0.01161 0.03836,-0.01521 0.01918,-0.01154 0.046,0.06907 0.07672,0.04233 0.08825,0.004 0.08833,-0.03454 v -0.04218 l -0.07275,-0.03072 -0.05357,-0.06151 -0.02674,-0.08421 0.0039,-0.09185 0.092,-0.07672 v -0.01918 l 0.01918,-0.09994 v -0.03431 l -0.157406,-0.111177 -0.05012,-0.05754 -0.153431,-0.299224 -0.02682,-0.07777 -0.0074,-0.0218 -0.02322,-0.234118 0.0081,-0.04982 0.06144,-0.06151 0.02322,-0.05042 -0.02682,-0.06473 -0.04233,-0.05035 -0.0076,-0.02308 v -0.01918 l -0.0076,-0.03836 -0.0076,-0.07282 -0.03072,-0.04555 -0.07282,-0.03836 v 0.004 l -0.03431,0.03439 0.023,-0.06518 0.05372,-0.01529 0.141744,0.04233 -0.03836,-0.06151 -0.04585,-0.05754 -0.02322,-0.06495 0.03446,-0.08443 -0.107434,-0.06511 -0.04997,-0.04225 -0.03079,-0.05012 0.03079,0.02315 0.122643,0.05357 0.05364,-0.153432 0.01918,-0.03439 h 0.03431 l 0.06158,0.0269 0.03431,-0.03094 -0.004,-0.04982 -0.06907,-0.04607 -0.04233,-0.04982 -0.03836,-0.05754 -0.01521,-0.04607 -0.004,-0.122492 -0.02323,-0.138224 -0.05349,-0.08833 -0.107506,0.01918 -0.03439,-0.06166 -0.08428,-0.09177 -0.02682,-0.07672 h 0.03836 l 0.01513,0.01506 0.05754,0.0233 -0.01918,-0.0233 -0.02667,-0.06143 -0.02682,-0.03446 0.153432,-0.02307 0.16542,0.107433 0.234116,0.264609 0.07275,0.141822 0.05349,0.0651 0.08076,0.02682 0.06473,-0.04989 0.03439,-0.0959 0.03836,-0.04997 0.06518,0.07672 0.04233,-0.03836 -0.04233,-0.03836 0.06151,-0.05754 -0.05005,-0.07672 -0.09589,-0.06922 -0.08069,-0.03064 -0.03072,-0.01918 -0.02315,-0.04608 -0.004,-0.05754 0.05364,-0.115074 -0.02689,-0.04585 -0.264464,-0.176581 -0.06518,-0.07275 -0.02674,-0.09987 0.02674,-0.08833 0.05357,-0.092 0.0076,-0.07672 -0.08818,-0.03064 v 0.04233 h 0.03431 v 0.03439 l -0.06158,0.01521 -0.02323,0.05357 -0.0072,0.06473 -0.01918,0.05754 h -0.03836 v -0.02637 l -0.0081,-0.0076 h -0.01109 l -0.01521,-0.004 v -0.05356 l -0.01918,-0.09192 -0.004,-0.08428 0.03836,-0.03836 -0.01918,-0.218687 0.004,-0.05349 0.153432,-0.230148 0.04997,-0.03836 0.06908,-0.03087 0.07672,-0.07275 0.134253,-0.168641 0.05357,-0.04997 0.184222,-0.122642 0.02675,-0.04233 0.0076,-0.046 0.01918,-0.03439 0.05724,-0.01521 0.0027,0.0033 0.02008,0.02352 v 0.168714 l 0.03438,0.069 0.09193,0.130283 0.01918,0.08855 -0.02307,0.0499 -0.05005,0.03431 -0.04997,0.01918 -0.02315,0.01536 -0.01521,0.03064 -0.09589,0.141971 h 0.06518 l 0.04989,0.01918 0.03836,0.04218 0.03079,0.05754 0.01918,-0.0499 0.0076,-0.04982 -0.0076,-0.04608 -0.01918,-0.04982 0.06158,0.0076 0.04593,-0.004 0.03079,-0.03079 0.0076,-0.0499 0.111104,0.195765 v 0.03438 l -0.09192,0.08825 -0.01918,0.01162 0.01161,0.05754 0.01918,0.03079 0.02308,0.01521 0.02323,0.0269 0.069,0.164894 0.05357,0.06526 0.06151,-0.03446 0.0039,-0.07275 -0.01521,-0.226251 0.01161,-0.08428 0.03064,-0.03079 0.03836,-0.01146 0.03094,-0.01528 0.01521,-0.04225 -0.01551,-0.02143 -0.09987,-0.0729 -0.08443,-0.0038 -0.08069,-0.09589 -0.241763,-0.479476 -0.004,-0.08069 h 3.84e-4 l 0.0038,-0.07672 v 0 l -0.0038,-0.06893 -0.03836,-0.04607 0.0499,-0.04226 0.04982,-0.01154 0.04608,-0.0041 0.04225,-0.01918 0.02315,-0.03424 0.03439,-0.08436 0.01918,-0.03072 0.115074,-0.07672 0.05754,0.01154 0.004,0.01918 -0.01918,0.02308 -0.01146,0.02315 -0.01918,0.02307 -0.03836,0.02315 -0.03094,0.02675 0.01528,0.03836 h 0.02682 l 0.09589,-0.02675 0.02682,-0.01161 0.02307,-0.05754 0.01918,-0.09589 0.0076,-0.103463 -0.01528,-0.08833 -0.03439,-0.06151 -0.226178,-0.268507 -0.107507,-0.172611 -0.145791,-0.16497 -0.111104,-0.207072 -0.04607,-0.04585 -0.069,-0.04593 0.01918,-0.04997 -0.03454,-0.07282 -0.05356,-0.07275 -0.04233,-0.07672 -0.01918,-0.09987 0.01536,-0.08818 0.02675,-0.08443 0.01161,-0.09193 -0.03454,-0.115074 v -0.05754 l 0.06151,-0.130356 0.01161,-0.04226 -0.0039,-0.115074 -0.01169,-0.05364 -0.02307,-0.0457 -0.03079,-0.03439 -0.02315,0.0039 -0.0075,0.02674 0.02667,0.04608 v 0.03439 l -0.06143,0.02652 -0.01918,0.06937 0.0076,0.176581 -0.069,-0.07672 -0.04608,-0.08069 -0.07672,-0.19179 0.04233,-0.02315 0.01154,-0.004 0.02315,-0.04578 0.02682,0.01918 0.06151,0.03064 0.02674,0.02315 0.0039,-0.05754 -0.0039,-0.03836 -0.01153,-0.03439 -0.02682,-0.02315 v -0.03836 l 0.05754,0.0073 0.04226,-0.02308 0.01918,-0.04233 -0.0076,-0.06151 -0.04592,-0.06915 -0.04233,0.0076 -0.06143,0.06151 -0.07282,-0.05357 -0.09193,-0.126536 -0.09192,-0.04997 0.0076,-0.092 0.01918,-0.05754 0.04225,-0.04225 -0.05754,-0.05364 0.004,-0.04593 0.01191,-0.04585 -0.02682,-0.04608 0.03034,-0.08428 0.03836,-0.04997 0.04256,-0.01918 0.04982,-0.004 0.172612,0.119044 0.03454,0.03836 -0.01206,0.07275 -0.05342,0.03447 -0.05754,0.02674 -0.02682,0.03836 0.02315,0.04997 0.119048,0.02674 0.04607,0.05754 0.05754,-0.03836 0.03431,-0.04592 0.05364,-0.10751 -0.01918,-0.06151 0.046,-0.07672 -0.02682,-0.05754 -0.06166,0.03446 -0.06106,-0.01161 -0.04225,-0.04593 -0.01918,-0.07282 0.0073,-0.04997 0.046,-0.06511 0.01918,-0.05357 -0.06518,0.03079 -0.02315,0.01521 -0.01918,0.03064 h -0.03836 l -0.115074,-0.138224 -0.03836,-0.06136 0.01918,0.0038 0.02315,-0.02667 0.004,-0.03438 -0.04997,-0.0269 -0.06915,-0.06511 -0.02315,-0.05754 -0.01918,-0.111104 -0.02674,-0.06151 -0.046,-0.04225 -0.04562,-0.02315 -0.03117,-0.0424 0.0076,-0.08818 h 0.03836 l 0.04233,0.08428 0.146239,0.168565 0.05754,0.138299 0.119044,0.214867 0.046,0.04997 -0.0076,-0.07275 -0.0081,-0.01918 -0.02263,-0.02315 v -0.03836 l 0.06099,-0.0039 0.02727,-0.02315 0.004,-0.03836 -0.01918,-0.04997 h -0.02682 l -0.07282,-0.0424 -0.06143,-0.04997 -0.0041,-0.02315 -0.0687,-0.04225 -0.05349,-0.0959 -0.03454,-0.119121 -0.01154,-0.111027 v -0.157479 l -0.01154,-0.046 -0.06518,-0.126612 0.0076,-0.119044 0.04989,-0.07275 0.06907,-0.04989 0.05754,-0.06915 -0.06907,-0.01154 -0.03446,-0.046 -0.03836,-0.130283 -0.06511,0.02675 0.0076,-0.03836 0.05754,-0.107506 0.01918,-0.210969 0.01528,-0.05754 0.06907,-0.06511 0.04233,0.09589 0.07275,0.280117 -0.02525,0.269557 -0.0055,0.05649 0.01506,0.06151 h 0.138373 l 0.04608,-0.01918 -0.01918,-0.218686 0.03836,-0.441118 -0.03124,-0.05357 -0.145415,-0.119044 -0.04638,-0.07672 -0.07672,-0.632908 -0.145414,-0.398789 -0.05754,-0.08825 -0.164893,-0.0959 -0.06526,-0.115074 0.01116,-0.08436 0.127138,0.02323 0.05349,0.06158 0.0269,0.06923 0.0418,0.05349 0.100017,0.01153 -0.184147,-0.299219 -0.07672,-0.191791 0.05754,-0.0887 -0.03836,-0.234122 -0.01918,-0.07672 -0.05042,-0.07672 -0.172611,-0.19179 -0.07252,-0.157402 -0.02682,-0.09589 -0.01154,-0.07672 0.0076,-0.306864 -0.02675,-0.07672 -0.09589,-0.130283 -0.180252,-0.506295 -0.004,0.046 -0.03836,0.111105 -0.03117,-0.07275 0.01918,-0.03836 0.03491,-0.02682 0.03072,-0.06151 0.04952,0.004 0.01199,-0.02315 -0.004,-0.03836 -0.03072,-0.05754 -0.02682,-0.445087 0.01918,0.046 0.03431,0.03439 0.04593,0.01918 -0.04997,-0.268507 -0.02675,-0.08061 -0.203401,-0.268506 -0.03439,-0.03446 -0.111104,-0.165043 -0.02315,-0.0499 -0.119044,-0.04982 -0.02675,-0.03454 0.111177,-0.01154 -0.341325,-0.793981 -0.126685,-0.441118 -0.04982,-0.498654 -0.02689,0.06907 -0.0076,0.03446 -0.0039,0.04608 h -0.03087 v -0.0729 l -0.02667,-0.046 -0.04607,-0.01521 -0.04233,0.01918 h -0.03446 l -0.0418,-0.06818 0.03439,-0.03836 0.06915,-0.0076 0.08825,0.03836 0.02682,-0.08069 0.01521,-0.165047 0.02674,-0.0651 0.07672,0.04233 -0.0076,-0.0499 -0.01918,-0.02682 -0.03439,-0.0075 -0.05364,0.0075 v -0.04233 l 0.08833,0.004 0.07275,-0.02667 0.05754,-0.05754 0.04233,-0.07275 -0.03079,-0.01566 -0.07259,-0.0073 -0.04248,-0.01199 -0.0651,-0.04188 -0.138224,-0.126536 -0.03072,-0.07289 0.0076,-0.207 -0.02675,-0.04592 -0.130357,-0.103536 -0.04225,-0.02315 -0.03836,-0.04233 -0.03446,-0.226178 -0.02675,-0.08428 -0.03439,0.02307 -0.03446,0.0076 -0.03416,-0.0076 -0.04255,-0.02307 0.02682,0.0499 0.01521,0.01506 0.03439,0.01529 v 0.03836 l -0.103537,0.07267 -0.03836,0.119121 0.0424,0.09979 0.134253,0.01918 v 0.03836 l -0.09994,0.01206 -0.04593,-0.0042 -0.03836,-0.0076 -0.03072,0.08428 -0.0076,0.03079 h -0.03836 l 0.01161,-0.03079 0.0076,-0.01918 0.01918,-0.03072 -0.03439,-0.06518 v -0.0651 l 0.004,-0.06915 -0.0072,-0.0651 -0.03836,-0.03836 -0.119269,-0.07672 -0.02667,-0.02315 -0.03087,-0.03439 -0.126611,-0.115075 -0.03072,-0.03836 -0.0076,-0.141441 -0.03072,-0.115074 h -0.03446 l -0.11897,0.241609 -0.08833,0.04997 -0.126611,-0.09589 -0.04233,-0.107506 0.04608,-0.06511 0.08054,-0.03836 0.06158,-0.01918 0.06518,0.07672 0.03439,-0.03431 0.0499,-0.161 -0.203328,0.02315 -0.149461,-0.0884 -0.882235,-1.227457 -0.168641,-0.330014 -0.04997,-0.349192 -0.02675,-0.07275 -0.04233,-0.0075 -0.03836,0.02667 -0.03836,0.03836 -0.03087,0.01918 -0.03836,-0.01199 0.0076,-0.02637 0.04607,-0.02674 0.05754,-0.01161 -0.04233,-0.09994 -0.07672,-0.05349 -0.08443,-0.0424 -0.283715,-0.222508 -0.06518,-0.08436 -0.08054,-0.145791 -0.07672,-0.199431 -0.03446,-0.222507 0.03836,-0.207076 0.07672,0.03087 0.134254,-0.03087 0.05364,0.0424 0.01521,-0.06518 0.04585,-0.04233 0.06151,-0.03439 0.06151,-0.05357 -0.06518,-0.07275 -0.01154,-0.02315 -0.01521,-0.01918 -0.03836,0.03439 -0.03439,0.05357 -0.004,0.02682 -0.09192,-0.01521 -0.07672,-0.03836 -0.06151,-0.04997 -0.04997,-0.0499 h -0.03439 l -0.02315,0.0266 -0.0039,0.004 -0.0076,-0.01528 -0.04233,-0.01513 -0.01176,0.046 -0.02315,0.03836 -0.03072,0.03836 -0.046,0.03072 v 0.04225 l 0.122716,0.02315 0.004,0.08069 -0.03836,0.10354 0.004,0.08428 0.04225,0.07672 0.05357,0.287613 -0.009,-0.01251 -0.04076,-0.05656 -0.08413,0.01918 -0.09994,0.05754 -0.09964,0.03072 0.06908,-0.04233 0.06907,-0.0651 0.05364,-0.08061 0.03072,-0.08443 -0.01154,-0.01521 -0.046,-0.19576 -0.03836,-0.01147 -0.04233,0.02675 -0.08428,0.08436 -0.08436,-0.107506 -0.119044,-0.06908 -0.09192,-0.08825 -0.004,-0.16512 0.0648,-0.127061 0.187819,-0.157326 0.08069,-0.09987 -0.138224,0.01153 -0.149461,-0.01521 -0.134253,-0.03079 -0.0959,-0.04233 h -0.03836 l -0.05754,0.01918 -0.103162,-0.01154 -0.09589,-0.04233 -0.0424,-0.06143 0.03072,-0.08436 0.07672,0.02682 0.153432,0.118971 -0.176507,-0.291582 -0.046,-0.09994 -0.0499,-0.191791 -0.004,-0.03836 -0.06518,0.02322 -0.03439,0.04593 -0.02315,0.04997 -0.04593,0.03431 -0.119045,-0.03072 -0.241835,-0.180252 -0.08421,0.01918 0.004,0.05754 0.03836,0.176654 -0.02682,0.03432 -0.195761,0.157475 -0.02675,-0.03446 -0.04997,0.03446 -0.01918,-0.06158 -0.03439,-0.04241 -0.046,-0.0073 -0.0499,0.03423 h -0.03431 l -0.130283,-0.07672 -0.06518,-0.04555 -0.02675,-0.05357 -0.06915,-0.318475 0.01161,-0.04593 0.05357,0.01154 0.04233,0.02315 0.03124,0.02675 0.03836,0.01528 0.03424,-0.004 0.03072,-0.01206 0.01199,-0.01918 -0.107882,-0.04233 -0.115074,-0.157253 -0.09987,-0.06915 -0.126611,-0.199354 -0.0499,-0.04997 -0.203403,-0.141817 -0.02315,-0.04233 -0.02315,-0.05356 -0.03439,-0.03454 -0.05357,0.03086 -0.03079,0.03836 -0.01918,0.03836 -0.02675,0.02323 h -0.05357 l 0.01154,-0.02674 -0.02675,-0.06151 -0.04233,-0.05356 -0.01918,0.0039 0.0076,-0.05357 0.01154,-0.04233 0.02682,-0.03836 0.03072,-0.03439 -0.141895,0.03079 -0.07275,0.01146 -0.08069,-0.0038 0.01528,-0.04233 0.0076,-0.01918 0.01161,-0.01918 h 0.03836 l 0.01513,0.01154 0.05754,0.03079 V 36.8344 l -0.130208,-0.05754 -0.04997,-0.04233 -0.04233,-0.05754 -0.04225,0.03071 -0.0651,0.0076 -0.05754,-0.01521 -0.04607,-0.07672 -0.06143,-0.02315 -0.130358,-0.03439 -0.414221,-0.234119 0.164894,-0.02682 0.662501,0.352491 10e-4,3.83e-4 0.210969,0.06151 v -0.04233 l -0.165044,-0.0499 -0.579266,-0.525474 -0.644895,-0.475506 -0.701533,-0.598519 -0.08076,-0.04233 -0.02674,-0.02674 -0.03079,-0.05364 -0.03836,-0.03431 -0.04982,0.01513 -0.0959,0.07282 v 0.03431 l 0.0072,0.03836 -0.004,0.02645 -0.06143,0.02674 -0.0651,0.01162 h -0.138224 v -0.03836 l 0.195761,-0.111032 0.03064,-0.02322 0.01528,-0.04563 0.03836,-0.02675 0.03836,-0.01918 0.01918,-0.02674 -0.01918,-0.03836 -0.07672,-0.046 -0.291207,-0.425835 -0.06151,-0.05005 0.03439,-0.230148 -0.08428,-0.160924 -0.893847,-0.659729 -0.989593,-0.731724 -0.475505,-0.529371 -0.06907,-0.09979 -0.02307,-0.01521 -0.0039,-0.02307 -0.107507,-0.08436 -0.02315,-0.0076 -0.046,-0.09192 -0.06151,-0.180253 -0.264536,-0.445163 -0.14579,-0.168565 -0.130283,-0.237416 -0.05754,-0.07275 -0.119045,-0.07672 -0.02982,-0.01199 -0.142794,-0.05701 -0.176582,-0.0233 -0.122715,0.05364 0.02682,0.02307 0.01521,0.0233 0.03027,0.06915 -0.156953,-0.08833 0.01918,-0.115074 0.107507,-0.06915 0.106983,0.0424 h 0.03484 v -0.0424 l -0.260864,-0.06952 -0.184149,-0.01918 -0.130357,-0.03836 -0.126612,-0.0499 -0.07672,-0.05349 0.03836,-0.03439 0.07672,0.03439 0.368372,0.03836 0.195761,0.103087 0.08391,0.01199 0.05042,0.03087 0.07267,0.130058 0.160999,0.07275 0.05754,0.004 0.04997,-0.04555 -0.01513,-0.03836 -0.111104,-0.107882 -0.0269,-0.0648 -0.04982,-0.287685 -0.04997,-0.161 -0.04593,-0.103536 0.03439,-0.05754 0.0076,-0.0499 -0.02315,-0.03836 -0.05754,-0.01161 v -0.0424 h 0.103537 l 0.05754,-0.046 0.046,-0.0726 0.05357,-0.06915 0.106983,-0.0887 0.111628,-0.06908 v -0.03836 l -0.464267,-0.575371 -0.06158,-0.119044 -0.02689,-0.11897 0.05754,-0.107432 0.0077,-0.05754 -0.06525,-0.02682 -0.103162,0.122716 -0.046,0.03439 -0.05754,0.004 -0.03836,-0.02315 -0.03446,-0.01154 -0.05754,0.03072 -0.03072,0.03836 -0.02682,0.05754 -0.01521,0.06518 v 0.06907 l -0.05754,-0.111103 -0.0076,-0.05364 0.03072,-0.06518 -0.06908,0.0076 -0.0233,0.0076 -0.0227,0.01918 -0.06907,-0.03446 0.03424,-0.05357 0.06166,-0.046 0.06908,-0.01498 0.05364,0.03416 h 0.03836 l -0.04248,-0.09987 -0.07672,-0.07275 -0.180252,-0.134253 -0.149312,-0.195761 -0.046,-0.03072 -0.11897,-0.04233 -0.03836,-0.02315 -0.283789,-0.218461 -0.08428,-0.03087 -0.126687,0.01918 -0.118969,0.03836 -0.092,0.01918 -0.05357,-0.03836 0.103461,-0.02667 -0.01161,-0.06922 -0.0651,-0.08061 -0.283489,-0.237789 -0.203852,-0.260865 -0.04233,-0.03836 -0.126612,-0.0959 -0.04989,-0.07282 -0.04989,-0.09979 -0.03446,-0.111178 -0.01521,-0.103387 -0.184224,-0.01169 -0.195685,-0.214865 -0.287686,-0.467938 -0.130357,-0.402759 -0.03836,-0.06143 -0.02307,-0.07282 -0.0076,-0.16497 -0.03072,-0.161073 -0.103537,-0.0651 0.01154,0.01918 0.01918,0.341252 V 24.9362 l -0.103462,0.04997 0.01918,-0.07282 0.01521,-0.11897 -0.0076,-0.107507 -0.04989,-0.04592 -0.02308,-0.03836 0.08061,-0.230148 -0.03072,-0.08069 -0.05754,-0.08825 -0.115074,-0.122716 -0.03836,-0.01521 -0.0959,0.01154 -0.03446,-0.01154 -0.01521,-0.02682 -0.05754,-0.130283 0.05357,0.004 0.04233,0.02307 0.03124,0.03836 0.0227,0.04997 0.0732,-0.08069 v -0.03439 l -0.119195,-0.03439 -0.134253,-0.08069 -0.115074,-0.09987 -0.0726,-0.09589 -0.02682,-0.07275 -0.04248,-0.180178 -0.0072,-0.07672 -0.01206,-0.046 -0.02675,-0.05364 0.004,-0.07275 0.05754,-0.16849 0.103462,-0.207074 0.130282,-0.134253 0.149462,0.046 0.03439,-0.05364 0.05364,-0.03439 0.134253,-0.06518 -0.03836,-0.141895 0.0076,-0.206998 0.06518,-0.345222 0.01154,-0.03079 0.07672,0.01161 0.06907,-0.004 0.046,-0.16497 0.04233,-0.01154 h 0.04982 l 0.04233,-0.03079 0.01521,-0.04233 0.01169,-0.111104 -0.02689,-0.01154 -0.03836,0.01154 -0.02315,-0.06151 -0.01521,-0.05754 0.115075,0.07672 -0.01521,-0.08061 -0.09987,-0.187895 -0.02315,-0.157327 -0.02315,-0.0651 -0.06503,-0.04997 v -0.03484 l 0.07672,0.03439 0.07275,-0.153432 0.07672,0.04233 -0.02307,-0.210969 0.05754,-0.42958 V 19.85456 h -0.02315 l -0.0076,-0.02682 v -0.06143 l -0.01506,-0.05364 -0.02719,-0.05334 -0.01528,0.03416 -0.03836,0.046 -0.02308,0.03836 -0.0035,-0.08825 0.06907,-0.05364 0.07672,0.01918 0.0076,0.122716 0.02637,-0.06151 v -0.157403 l 0.01199,-0.08825 0.03836,-0.08818 0.122341,-0.187969 0.02682,-0.0917 0.03446,-0.07672 0.07672,-0.0042 0.07672,0.0042 0.03064,-0.03836 0.02315,-0.0884 0.09589,-0.130283 0.03117,-0.07282 -0.0732,0.03034 -0.153432,0.01528 -0.07282,0.03439 -0.03439,-0.04225 0.149461,-0.08069 0.07672,-0.05357 0.03446,-0.05754 0.05754,0.05357 0.01513,0.02315 0.01918,-0.06518 v -0.157327 l 0.01918,-0.08436 0.115074,-0.153432 -0.0038,-0.05364 -0.03836,-0.08825 v -0.05357 l 0.03439,-0.08833 0.04593,-0.05357 0.23779,-0.21494 0.06151,-0.07275 0.03072,-0.07267 h 0.03439 l 0.04233,0.06151 0.07275,0.06136 0.08833,0.04997 0.07672,0.01918 0.03072,-0.04997 0.08069,-0.241686 0.01918,-0.09192 h 0.03836 l -0.01918,0.111103 -0.03439,0.09987 -0.01528,0.08833 0.03079,0.08428 0.0887,-0.05357 0.203402,-0.05364 0.08061,-0.04593 0.0424,-0.06151 0.06518,-0.168641 0.03836,-0.08069 0.04225,0.04233 -0.02308,0.03079 -0.05004,0.12264 0.08076,-0.04592 0.130208,-0.149537 0.12264,-0.07672 0.134253,-0.18782 0.11912,-0.07672 0.187745,-0.234118 0.06915,-0.153433 0.03836,-0.03836 0.111178,-0.046 0.03836,-0.03072 -0.03836,-0.03836 v -0.04225 l 0.04982,-0.02682 0.0269,-0.004 0.03836,-0.004 v 0.03446 h -0.03836 v 0.04225 l 0.352789,-0.04225 0.06915,-0.01918 0.138149,-0.07672 0.115074,-0.03836 0.06158,-0.05364 0.0499,-0.06518 0.03079,-0.05754 0.02675,-0.03439 0.02315,-0.01154 0.004,-0.01528 -0.01521,-0.0499 -0.02315,-0.02682 -0.130807,-0.09634 -0.023,0.05754 -0.03836,0.02307 -0.04608,-0.01918 -0.03431,-0.06143 h 0.03079 l 0.09589,-0.02682 0.08428,0.02337 0.06915,0.05754 0.05027,0.06907 0.06151,-0.04989 0.02315,-0.08091 0.01161,-0.08825 0.03439,-0.07282 0.01161,-0.05334 -0.04233,-0.06173 -0.09994,-0.09589 0.02323,0.0042 0.01154,-0.0076 0.0076,-0.01154 -0.004,-0.02337 0.0073,0.02682 0.03109,0.05372 0.05754,-0.07672 0.03431,-0.126836 0.01918,-0.245357 -0.05349,-0.05364 -0.122491,0.01528 -0.126836,0.04989 -0.07267,0.0499 h -0.03064 l 0.023,-0.04555 0.03454,-0.05035 0.04218,-0.04225 0.02682,-0.01918 0.01513,-0.01528 0.153432,-0.05342 0.03431,-0.0041 0.02322,-0.09979 -0.05027,-0.08436 -0.03836,-0.08061 0.0651,-0.0884 v -0.03439 l -0.157403,0.08061 -0.08069,0.0042 -0.09192,-0.0499 0.345222,-0.138448 0.119045,-0.107433 0.09192,-0.03446 0.01918,-0.02308 0.01146,-0.03072 0.0077,-0.03446 -0.0077,-0.05754 -0.01918,-0.01528 -0.023,0.004 -0.02682,-0.02315 -0.08069,-0.08825 -0.03836,-0.05754 -0.03087,-0.08436 0.06158,0.046 0.07672,0.111179 0.04585,0.03072 0.0884,0.01154 0.09185,-0.01521 0.08443,-0.03439 0.07275,-0.03836 0.107508,-0.09178 v -0.06518 l -0.08436,-0.05364 -0.134253,-0.05754 v -0.03836 l 0.069,-0.0039 0.153432,0.04225 h 0.0729 l 0.04593,-0.01521 0.03836,-0.01528 0.04555,-0.0076 0.01918,-0.02308 0.05754,-0.03836 0.06173,-0.02682 0.03072,0.03072 0.01918,0.04233 0.0499,0.04997 0.111178,0.08061 -0.092,-0.299223 -0.05357,-0.08825 -0.03439,0.04225 -0.09192,-0.06907 -0.09185,-0.103537 c 0,0 0.05907,-0.03728 0.06405,-0.07057 0.0046,-0.03383 0.02839,-0.110579 0.06675,-0.120168 0.03836,-0.0096 0.08669,-0.02412 0.115075,-0.02412 0.02915,0 0.08166,-0.043 0.08166,-0.043 0,0 -0.13422,-0.0237 -0.148413,-0.05754 -0.01458,-0.03375 -0.08173,-0.129608 -0.08173,-0.129608 0,0 -0.07474,-0.122669 -0.06308,-0.19179 l 0.01191,-0.06915 0.05349,-0.07274 0.01161,-0.07275 -0.01918,-0.09987 c 0,0 -0.004,-0.0929 -0.004,-0.121667 0,-0.02877 -0.01458,-0.09083 -0.01918,-0.105485 -0.0045,-0.01458 -0.01914,-0.05293 -0.05289,-0.05754 -0.03337,-0.0045 -0.196436,-0.04285 -0.196436,-0.04285 0,0 0.08135,-0.02423 0.11058,-0.02922 0.02835,-0.0046 0.10039,0.01457 0.129158,0.02922 0.02877,0.01412 0.08631,0.06667 0.08631,0.0959 0,0.02831 0.03836,0.123839 0.03836,0.123839 l 0.05754,0.08436 0.122716,0.05754 0.111178,-0.03079 h 0.03836 l 0.01154,0.04233 0.0076,0.0076 -0.01918,0.02675 0.103387,0.08069 0.03836,0.115074 0.046,0.03836 0.107432,-0.157403 -0.03072,-0.02675 -0.02307,-0.03446 -0.01206,-0.04225 -0.0072,-0.04997 h 0.03836 l 0.05357,0.111103 0.05364,0.05754 0.08428,0.02315 h 0.14152 v -0.03836 l -0.05754,-0.02637 -0.0227,-0.04248 -0.01154,-0.04592 -0.02323,-0.03836 -0.03072,-0.01918 -0.115075,-0.05754 -0.06518,-0.04997 -0.157328,-0.180178 0.03439,-0.004 0.01528,0.0076 0.02307,0.03079 0.03072,-0.06143 0.06158,0.02308 0.134253,0.115074 0.05349,0.03836 0.06922,0.03446 0.08061,0.03064 0.092,0.01528 0.09979,0.0076 0.103537,-0.0039 0.08436,-0.03836 0.04585,-0.08436 -0.02322,-0.07672 -0.137774,-0.115074 0.01161,-0.07672 0.0959,0.08825 0.05349,0.02682 h 0.07672 l -0.07672,-0.07672 0.05754,0.004 0.01918,-0.004 -0.02667,-0.02308 -0.03087,-0.03836 -0.01918,-0.01918 v -0.03446 l 0.06922,0.0076 0.03431,0.04225 0.01161,0.06151 -0.004,0.08069 0.02323,-0.03439 0.01169,-0.04233 0.0075,-0.05357 -0.004,-0.06151 h 0.03836 l -0.01513,0.111104 0.03087,0.02675 0.0499,-0.04225 0.046,-0.0959 0.0075,0.01528 0.004,0.0039 0.02308,0.01528 -0.01191,0.02307 -0.01918,0.04225 -0.0073,0.03836 0.01918,0.01918 0.05005,-0.01154 0.01506,-0.03439 0.008,-0.03836 0.02323,-0.03836 0.05349,-0.03079 0.06525,-0.02315 0.069,-0.01521 0.07282,-0.004 v 0.03836 l -0.291806,0.187895 -0.160699,0.199281 v 0.03446 l 0.103162,0.04225 0.26506,0.03836 0.08391,0.07672 v -0.03836 l 0.06151,0.03087 0.05754,-0.0076 0.05754,-0.01528 0.08069,-0.0076 -0.01918,-0.08428 0.115074,-0.126686 0.0884,-0.02315 v -0.03836 l -0.03836,-0.0039 -0.0233,-0.0076 -0.01506,-0.01154 -0.03087,-0.01169 0.07275,-0.03439 0.111104,-0.02675 0.115074,-0.0076 0.07282,0.02682 0.06907,-0.02682 0.10009,-0.004 0.126537,-0.004 0.07275,-0.023 0.05357,-0.03079 0.092,-0.06915 V 11.6345 l -0.05364,-0.03836 -0.02308,-0.06518 -0.01169,-0.08436 -0.01918,-0.08428 0.05005,-0.01161 0.01918,-0.01918 -0.004,-0.03439 -0.03117,-0.046 0.08076,-0.08061 0.03431,-0.134254 0.03476,-0.249327 -0.04585,0.01918 -0.05005,-0.004 -0.04585,-0.02308 -0.04233,-0.03072 0.02315,-0.06518 0.01109,-0.207074 0.02315,-0.046 0.03079,-0.03072 0.01528,-0.03439 -0.03446,-0.04233 v -0.03836 l 0.130358,-0.03836 0.176507,0.004 0.103461,-0.046 v -0.03446 l -0.145715,-0.08061 -0.03836,-0.03836 0.03431,-0.076716 0.191791,0.046075 0.03027,0.01146 0.02727,0.05372 0.05754,0.03072 0.05357,0.01154 h 0.01161 l 0.111178,0.01918 0.11897,-0.004 0.05754,-0.01918 -0.06518,-0.03072 v -0.04218 l 0.01918,-0.04608 -0.01513,-0.061358 -0.02323,-0.057537 0.004,-0.023075 0.069,0.019179 0.0269,0.042254 0.01513,0.061358 0.01918,0.065254 0.0424,0.06136 0.04233,0.03454 0.06151,0.01918 0.09192,0.0039 0.04585,-0.0269 0.0269,-0.06518 0.02315,-0.1418944 0.08833,0.026821 0.02308,0.011537 -0.0076,-0.023075 -0.0039,-0.00764 -0.0076,0.00382 -0.01918,-0.011463 0.07672,-0.030716 0.03446,-0.00764 -0.046,-0.038358 -0.01154,-0.030716 0.01521,-0.023 0.04233,-0.023075 v -0.042179 l -0.02315,-0.019179 -0.004,-0.011537 v -0.011537 l -0.01109,-0.030641 0.08421,0.034462 0.06922,-0.00382 0.03431,-0.042179 -0.03836,-0.069074 v -0.034537 l 0.01918,-0.019179 0.01513,-0.023 h 0.0424 l 0.03836,0.046 0.07672,0.026821 0.07267,-0.00382 0.03117,-0.049895 0.02315,-0.019179 0.04989,-0.00382 0.09589,0.00382 0.09192,-0.1534321 -0.03836,-0.034538 0.01918,-0.034462 0.03087,-0.026821 0.04585,-0.019179 0.05754,0.00382 -0.01521,-0.038358 -0.01528,-0.080537 -0.01191,-0.034537 0.07319,0.030716 -0.01918,-0.080612 -0.046,-0.04982 -0.06555,-0.023075 -0.08398,0.0039 V 8.934154 l 0.07672,-0.038358 0.0884,-0.023075 0.0726,0.02682 0.01918,0.1150742 0.03836,-0.042179 0.03117,0.076716 h 0.04233 l -0.0076,-0.076716 -0.01154,-0.015359 -0.02315,-0.023 v -0.038358 l 0.04233,-0.038358 h 0.03439 l -0.004,0.099716 0.01521,0.080612 0.03836,0.038358 0.0651,-0.026821 0.0424,-0.1573278 0.03836,-0.053641 0.02675,0.095895 h 0.03836 l 0.04233,-0.049895 0.0039,-0.026821 -0.0076,-0.038358 0.07672,0.011463 0.0726,0.030716 0.05042,0.049895 0.01918,0.080537 0.004,0.019179 0.01521,0.023075 0.01154,0.030641 0.0076,0.042254 -0.01521,0.019179 -0.03079,0.026821 -0.02675,0.034537 v 0.057537 l 0.07275,0.088179 0.103088,-0.069 0.115074,-0.1189698 0.115074,-0.053641 v 0.030642 l -0.09934,0.1112533 -0.04233,0.07282 -0.0077,0.088253 h 0.03836 l 0.249328,-0.2186109 0.141969,-0.061433 0.203253,-0.023 V 9.049226 L 28.63889,9.030047 28.56929,9.049226 28.50778,9.076047 28.43106,9.091405 28.38521,9.053047 28.37,8.972435 28.41233,8.90336 28.523434,8.89572 28.458404,8.876541 28.262493,8.7384671 28.035417,8.6778581 c 0,0 -0.05147,-0.076716 -0.05147,-0.1150742 0,-0.038358 -0.05102,-0.076722 -0.19179,-0.1020385 -0.140276,-0.0257 -0.115077,-0.1917841 -0.127735,-0.2431838 -0.01254,-0.051016 -0.127618,-0.076722 -0.191791,-0.063681 -0.06406,0.012658 -0.08926,0.038361 -0.140771,0.012661 -0.05102,-0.0257 -0.101963,-0.1024129 -0.101963,-0.1024129 l -0.332636,0.1407709 c 0,0 -0.242692,0.1407741 -0.306865,0.1534322 -0.06406,0.012658 -0.511195,0.038358 -0.601067,0 -0.08937,-0.038358 -0.17868,0.1024129 -0.17868,0.1024129 L 25.56739,8.4223867 c 0,0 -0.0636,-0.1791259 -0.101963,-0.2815419 -0.03836,-0.1020324 -0.204901,-3.1e-6 -0.281617,0.064055 -0.07672,0.064058 -0.230149,0.2301483 -0.230149,0.2301483 L 24.799535,8.4223887 V 8.294279 l 0.03836,-0.2044515 c 0,0 -0.230148,-0.281123 -0.268506,-0.3325611 -0.03836,-0.051016 -0.101963,-0.08938 -0.140321,-0.06368 -0.03836,0.025316 -0.179204,0.025322 -0.179204,0.025322 L 24.173146,7.8596793 23.955658,7.80866 23.815337,7.6038342 c 0,0 -0.358336,-0.2685508 -0.409352,-0.2938288 -0.0509,-0.025738 -0.409278,-0.089752 -0.409278,-0.089752 L 22.868972,7.0925184 22.996707,6.9390862 23.16325,6.7983153 c 0,0 0,-0.1277384 -0.07672,-0.1787546 -0.07671,-0.051438 -0.30686,-0.1534322 -0.30686,-0.1534322 L 22.68984,6.6195607 22.485389,6.5428447 22.382976,6.3380189 c 0,0 -0.204495,-0.01262 -0.255396,-0.038358 -0.05152,-0.025278 -0.128185,-3.83e-5 -0.204901,0.013036 -0.07672,0.01262 -0.10192,-0.038358 -0.204451,-0.1150741 -0.102416,-0.076716 -0.281047,-0.051438 -0.332562,0 -0.05102,0.050978 -0.19179,0.1660934 -0.19179,0.1660934 l -0.08938,-0.179129 0.140846,-0.1277353 -0.02577,-0.1917903 c 0,0 0.127735,-0.140774 0.01266,-0.2301482 -0.115074,-0.089336 -0.07672,-0.2175315 -0.05102,-0.2811675 0.02581,-0.064096 0.01266,-0.076716 -0.03836,-0.1150742 -0.0509,-0.038358 -0.0893,-0.1664677 -0.0893,-0.1664677 L 21.21957,5.046881 c 0,0 3e-6,-0.1534321 -0.0257,-0.1917902 -0.0252,-0.038358 -0.07672,-0.2301482 -0.07672,-0.2301482 l -0.08938,-0.013036 c 0,0 -0.01259,-0.2554707 -0.05094,-0.2938288 -0.03836,-0.038358 -0.115074,-0.038358 -0.230149,-0.038358 -0.115074,0 -0.294277,-0.038358 -0.294277,-0.038358 V 4.1134982 l 0.153432,-0.1019634 -0.127661,-0.1917902 -0.05147,-0.2301482 0.167143,-0.090202 -8.25e-4,-0.3064895 c 0,0 0.05094,-0.076685 0.0893,-0.1403214 0.03836,-0.064096 0,-0.2559203 0,-0.2559203 l 0.166093,-0.025697 0.153432,0.1407709 h 0.204901 c 0.03836,0 0.115074,-0.01262 0.115074,-0.076716 V 2.5922873 c 0,0 0.0893,-0.1024851 0.140322,-0.166543 0.05151,-0.063636 0.179129,-0.2427342 0.179129,-0.2427342 l -0.07672,-0.1917902 c 0,0 0.153388,-0.1277353 0.217561,-0.1277353 0.06356,0 0.0893,-0.089758 0.127661,-0.1534322 0.03836,-0.064058 3e-6,-0.076716 -0.06405,-0.1150741 -0.06356,-0.038358 -0.230148,-0.013036 -0.230148,-0.013036 0,0 -0.153479,-0.1020382 -0.217038,-0.1403962 -0.06417,-0.038358 -0.08987,-0.064055 -0.115074,-0.1407709 -0.02581,-0.076716 -0.07667,-0.076716 -0.179204,-0.1150742 -0.102416,-0.038358 -0.102413,0.064055 -0.102413,0.064055 l -0.07672,0.076716 -0.101964,-0.1150742 c 0,0 -0.08983,-0.1534321 -0.140845,-0.23014821 -0.0509,-0.0767161 -0.10246,-0.0513998 -0.166019,-0.038358 -0.06417,0.0126581 -0.102531,-0.0256941 -0.153432,-0.0897521 -0.05152,-0.0636744 -0.140889,0.0130417 -0.19179,0.0383581 -0.05152,0.0256999 -0.01311,0.15343221 -0.01311,0.15343221 l -0.319525,0.076716 c 0,0 -0.15343,0.051397 -0.217487,0.064055 -0.06356,0.012658 -0.230149,-0.012661 -0.230149,-0.012661 l -0.05102,0.1534322 c 0,0 -0.242688,-0.089752 -0.332561,-0.089752 -0.08937,0 -0.230148,-0.076716 -0.230148,-0.076716 0,0 0.07672,-0.17875425 0,-0.21711229 -0.07672,-0.038358 -0.0384,-0.16647122 -0.140322,-0.17912899 -0.102531,-0.0126585 -0.153432,-0.15343217 -0.153432,-0.15343217 0,0 -0.179201,-0.0126612 -0.243259,-0.0126612 -0.06356,0 -0.281211,0.0126608 -0.37047,-0.0256968 -0.08987,-0.0383581 -0.435049,0.038358 -0.435049,0.038358 v 0.2685063 c 0,0 -0.0636,-3.07e-6 -0.115074,-0.0126612 -0.05102,-0.0130417 -0.08937,0.0510189 -0.268506,0.0126612 -0.178672,-0.038358 -0.345223,0.14077095 -0.345223,0.14077095 l -0.02525,-0.15343218 -0.07672,-0.038358 c 0,0 -0.05147,-0.12811011 -0.08983,-0.16646815 -0.03836,-0.038358 -0.166093,-0.1150772 -0.204451,-0.16609301 -0.03836,-0.0510166 -0.191793,-0.0510193 -0.281168,-0.0893773 -0.08976,-0.038358 -0.08975,-0.0130387 -0.102413,-0.14077094 -0.01258,-0.12773267 -0.281167,-0.0510193 -0.281167,-0.0510193 0,0 -0.140771,-0.10241022 -0.179129,-0.0897521 -0.03836,0.0130417 -0.191793,0.038358 -0.319526,0.038358 -0.128116,0 -0.115074,-0.2428091 -0.115074,-0.2428091 0,0 0.02532,-0.17913244 0.02532,-0.23014825 0,-0.0510162 -0.06368,-0.1917906 -0.102039,-0.19179022 -0.03836,0 -0.294203,-0.0640552 -0.294203,-0.0640552 0,0 -0.0257,-0.16609301 -0.06405,-0.20445105 -0.03836,-0.038358 -0.07672,-0.10241329 -0.153432,-0.2558455 -0.07672,-0.1534322 -0.19179,0.013036 -0.19179,0.013036 L 13.892965,-1.3585911 V -1.525059 Z m 14.549685,11.1782977 -0.705953,0.076791 -0.046,0.023 -0.176506,0.053716 v 0.034462 l 0.134253,-0.026821 0.111103,0.00382 -0.03836,0.023075 -0.03439,0.034462 -0.02315,0.046075 -0.0076,-0.023075 -0.02652,-0.057537 -0.02675,0.065253 -0.01161,0.057537 0.06915,-0.011537 0.368147,-0.1227158 0.04233,-0.023075 h 0.03439 l 0.04233,0.046074 0.08421,-0.030716 0.210969,-0.1342531 z m -1.332193,0.1203932 c -0.04795,0 -0.06713,0.028768 -0.04795,0.062332 0.01918,0.033563 0.07672,0.062332 0.0911,0.019179 0.01438,-0.043153 -0.04315,-0.081511 -0.04315,-0.081511 z m 0.258168,0.1136507 -0.0884,0.034462 -0.314357,0.1841488 -0.06151,0.0729 -0.01521,0.01528 0.529521,-0.2224325 0.04225,-0.00772 0.01154,-0.011463 -0.0075,-0.019179 -0.01169,-0.023075 -0.01191,-0.015283 z m -1.586315,0.4137728 c -0.03356,0 -0.08151,0.02397 0.0048,0.07672 0.0863,0.05274 0.19179,0.105484 0.263711,0.105484 0.07192,0 0.167817,-0.04315 0.134254,-0.07192 -0.03356,-0.02877 -0.129459,-0.0959 -0.167817,-0.0959 -0.03836,0 -0.234943,-0.01438 -0.234943,-0.01438 z m -0.239738,0.06211 -0.02308,0.004 -0.01918,0.0077 -0.01918,0.023 -0.01528,0.03454 -0.01154,0.069 -0.01154,0.14579 0.0074,0.08436 0.02315,0.04225 -0.04997,0.0076 -0.02674,0.03072 -0.004,0.04989 -0.01521,0.004 -0.04233,-0.04608 h -0.03439 l -0.02675,0.172611 -0.04997,0.157403 -0.01154,0.06518 -0.04233,0.111178 -0.08061,0.138224 -0.03446,0.126686 0.08428,0.06915 0.184224,-0.153433 0.06907,-0.03836 0.130283,-0.04997 0.06151,-0.03079 0.180253,-0.245357 0.107433,-0.115074 0.08069,0.01918 h 0.04218 l 0.05754,-0.08436 0.180253,-0.12279 0.06158,-0.0651 0.02315,-0.07275 -0.01536,-0.0076 -0.122865,0.03708 -0.18782,0.05357 -0.03836,0.02315 h -0.03446 l -0.01918,-0.02682 -0.01146,-0.02682 -0.0077,-0.03454 v -0.04585 l -0.01146,-0.046 -0.03079,-0.01536 -0.03446,-0.0074 -0.03439,-0.0269 -0.126761,-0.153432 -0.05349,-0.04233 -0.02322,-0.01154 z m 0.903137,0.08975 c -0.03344,1.53e-4 -0.09282,0.04473 -0.09282,0.04473 -0.02397,0.03356 -0.0911,0.06713 -0.05274,0.08151 0.03836,0.01439 0.167816,-0.03356 0.167816,-0.100689 0,-0.01888 -0.0092,-0.02561 -0.02225,-0.02555 z m -1.131337,0.0029 c -0.04729,9.36e-4 -0.09784,0.01783 -0.09784,0.01783 -0.03836,-0.0048 -0.08151,-0.0048 -0.09589,0.05274 -0.01438,0.05754 -0.03836,0.08631 -0.06233,0.153432 -0.02397,0.06713 -0.04795,0.143843 0.0096,0.153433 0.05754,0.0096 0.163021,-0.01918 0.1822,-0.05754 0.01918,-0.03836 0.03356,-0.08631 0.07192,-0.124664 0.03836,-0.03836 0.100689,-0.124664 0.06233,-0.172611 -0.01438,-0.01798 -0.0416,-0.02319 -0.06997,-0.02262 z m 2.959637,0.04562 c -0.0056,7.6e-5 -0.01161,0.0022 -0.0176,0.0058 -0.02397,0.01438 -0.10069,0.02397 -0.10069,0.02397 -0.03356,0.02397 -0.04315,0.05754 -0.0048,0.06713 0.03836,0.0096 0.153432,0.03836 0.153432,-0.02877 0,-0.05034 -0.01349,-0.06832 -0.03034,-0.0681 z m -2.342687,0.0206 c -0.02965,4.37e-4 -0.04308,0.01918 -0.02435,0.03791 0.02397,0.02397 0.02877,0.09589 0.110279,0.105484 0.08151,0.0096 0.07672,-0.04795 0.06713,-0.07672 -0.0096,-0.02877 -0.124664,-0.06233 -0.124664,-0.06233 -0.01049,-0.0031 -0.02009,-0.0045 -0.02839,-0.0043 z m 0.791584,0.175908 c -0.02111,-0.0014 -0.06376,0.05169 -0.07275,0.09215 -0.0096,0.04315 -0.04795,0.215764 -0.06233,0.263711 -0.01438,0.04795 0.0096,0.0911 0.04315,0.07192 0.03356,-0.01918 0.03836,-0.01439 0.03836,-0.0911 0,-0.07672 0.04795,-0.254122 0.04795,-0.254122 l 0.0096,-0.08151 c -0.0012,-5.98e-4 -0.0026,-9.55e-4 -0.004,-10e-4 z m 0.769858,0.538436 c -0.02318,0.0017 -0.05147,0.06196 -0.05147,0.06196 0.07192,0.03356 0.08631,-0.03356 0.06233,-0.05754 -0.0034,-0.0034 -0.0071,-0.0047 -0.01086,-0.0044 z m -1.05627,0.01251 -0.03843,0.02308 -0.126611,0.126611 -0.01918,0.02682 -0.01521,0.04233 -0.01169,0.04585 -0.01146,0.126762 -0.01521,0.06143 -0.07672,0.07672 -0.01521,0.05364 0.0076,0.06503 0.01521,0.05005 -0.0076,0.03439 -0.05754,0.02315 0.107658,0.01521 0.05357,-0.138224 0.03836,-0.176582 0.191715,-0.410476 0.004,-0.03836 z m -0.263711,0.0093 c -0.01348,0 -0.04046,0.01618 -0.04046,0.01618 -0.02877,0.01438 -0.05754,0.01918 -0.07672,0.01438 -0.01918,-0.0048 -0.04795,0.04315 -0.06713,0.05274 -0.01918,0.0096 -0.07672,0.04315 -0.05754,0.08151 0.01918,0.03836 0.01918,0.134254 0.05754,0.11028 0.03836,-0.02397 0.0959,-0.04315 0.134253,-0.115074 0.03836,-0.07192 0.05754,-0.134253 0.05754,-0.153432 0,-0.0048 -0.003,-0.0066 -0.0075,-0.0066 z m 8.357032,0.301395 -0.122266,0.02682 -0.05372,0.103537 0.03064,0.111253 0.02637,0.0077 0.02307,-0.01918 0.04225,-0.01536 0.08091,-0.03072 0.04555,-0.103537 z m -8.611229,0.138149 -0.05357,0.103537 -0.01528,0.0499 -0.05754,-0.02307 -0.02308,-0.01528 -0.06922,0.161074 -0.01918,0.08825 0.01521,0.06158 -0.09192,0.103537 -0.126761,0.09192 -0.145791,0.08436 -0.157328,0.06503 v 0.03836 l 0.09192,-0.01513 0.24161,-0.06158 0.134253,-0.01154 0.08855,-0.01918 0.07672,-0.046 0.05357,-0.06908 0.03836,-0.08069 0.05364,-0.199432 0.08443,-0.199207 0.01918,-0.07275 -0.03109,-0.01918 -0.03072,0.01521 -0.07597,0.08443 z m 1.676066,0.02742 -0.0881,0.06076 -0.04989,0.107432 0.0073,0.09987 0.0502,-0.004 0.09192,-0.130283 0.04607,-0.04577 0.01918,-0.07282 z m -0.525325,0.08765 -0.03836,0.0959 0.03087,0.05005 0.05357,0.03072 0.02682,0.03439 -0.0076,0.0651 -0.103537,0.18782 0.09987,-0.04585 0.07672,-0.06525 0.03836,-0.08436 -0.0269,-0.111028 h 0.03439 l 0.01918,0.01513 0.05357,0.01918 v -0.03431 l -0.187819,-0.138299 z m -1.475286,0.220559 c -0.008,2.4e-5 -0.01326,0.01191 -0.0227,0.04652 -0.01438,0.05274 -0.06713,0.148637 -0.06713,0.148637 0,0 0.10069,-0.07192 0.115074,-0.105484 0.01439,-0.03356 -0.0096,-0.08151 -0.0096,-0.08151 -0.0066,-0.0049 -0.01149,-0.0082 -0.01566,-0.0082 z m 0.435573,0.04757 -0.01918,0.092 -0.130207,0.257419 -0.0499,0.08436 -0.05754,0.04577 -0.07672,0.01918 -0.111103,0.0077 v 0.03431 l 0.06158,0.06158 -0.01161,0.09185 -0.08848,0.199358 0.07275,-0.004 0.03836,-0.04233 0.03836,-0.111103 0.03446,-0.06518 0.256669,-0.371968 0.046,-0.09192 0.03072,-0.130357 -0.0073,-0.03836 -0.0076,-0.01918 z m -0.570126,0.01124 c -0.004,2.69e-4 -0.0083,0.0024 -0.01281,0.0069 l -0.09589,0.09589 c -0.01918,0.02397 -0.119869,0.177406 -0.119869,0.177406 0,0 0.11028,-0.04315 0.167817,-0.08631 0.05754,-0.04315 0.08151,-0.100689 0.0863,-0.134253 0.0039,-0.02727 -0.0081,-0.06085 -0.02555,-0.05964 z m -0.331812,0.08885 c -0.0092,6.56e-4 -0.02382,0.0049 -0.0454,0.01394 -0.115074,0.04795 -0.172611,0.07672 -0.210969,0.07672 -0.03836,0 -0.0911,-0.02397 -0.0911,-0.02397 -0.105484,0.0048 -0.05274,0.05274 0.02397,0.08151 0.07672,0.02877 0.196585,0.0096 0.254122,-0.04315 0.04675,-0.04285 0.109275,-0.10788 0.06937,-0.105035 z m -2.21263,0.08106 c -0.02877,0 -0.06713,0.02877 -0.02397,0.08151 0.04315,0.05274 0.0863,0.05754 0.105484,-0.0096 0.01918,-0.06713 -0.08151,-0.07192 -0.08151,-0.07192 z m -1.043458,0.05319 -0.06143,0.14594 -0.046,0.160924 0.02682,0.09986 0.07274,0.03439 0.08436,0.01521 0.06907,0.04593 h 0.03836 l -0.02652,-0.04989 -0.0076,-0.05005 0.0076,-0.04997 0.02652,-0.04593 0.01918,0.130283 0.107733,0.222656 0.02652,0.09193 0.046,0.02682 0.0959,0.01918 0.06907,-0.03836 -0.02652,-0.141895 -0.195761,-0.253224 -0.03049,-0.07612 -0.01918,-0.126612 -0.06143,-0.07267 z m 2.817518,0.148187 c -0.03356,0.0048 -0.03836,0.04315 -0.01438,0.0911 0.02397,0.04795 0.0863,0.03356 0.0911,-0.01918 0.0048,-0.05274 -0.07672,-0.07192 -0.07672,-0.07192 z m -1.633363,0.04952 -0.01469,0.0064 c -0.01734,0.0064 -0.06011,0.02562 -0.03012,0.0448 0.03,0.01918 0.07357,0.07349 0.08631,0.01274 0.01281,-0.06072 -0.0415,-0.06391 -0.0415,-0.06391 z m 1.815564,0.03221 -0.03079,0.01169 -0.004,0.02667 0.01528,0.03439 0.02689,0.01176 0.01521,-0.01176 0.05754,0.0693 0.03836,0.03072 0.03439,0.0076 0.03836,-0.0076 0.07275,-0.03072 0.01169,-0.01513 v -0.01161 -0.01146 l 0.01521,-0.01521 0.01169,-0.02315 -0.01521,-0.03439 -0.05342,-0.01933 h -0.08825 l -0.05754,0.004 -0.02307,0.0075 -0.02674,-0.01154 z m -0.815708,0.01858 c -0.04771,9.32e-4 -0.04825,0.04113 0.01019,0.07709 0.06233,0.03836 0.124663,0.06233 0.124663,0.01918 0,-0.04315 -0.124663,-0.0959 -0.124663,-0.0959 -0.0036,-3.07e-4 -0.007,-4.37e-4 -0.01019,-3.83e-4 z m -1.251506,0.05776 -0.04997,0.03439 -0.0076,0.04233 v 0.04233 l -0.01918,0.03836 -0.03836,0.02315 -0.126687,0.04233 -0.01521,0.103312 0.06143,0.08076 0.157403,0.0959 0.06518,0.0693 0.122641,0.168565 0.107507,0.07275 v -0.03836 l -0.01521,-0.01918 -0.02315,-0.06151 h 0.03836 l 0.01918,0.02315 0.03439,0.03079 0.01918,0.02675 h 0.03836 v -0.04233 h 0.03439 l 0.01161,0.01521 0.004,0.0074 0.004,0.0076 0.02322,0.01154 v 0.03836 h -0.115074 v 0.03446 l 0.01513,0.01154 0.02322,0.03072 0.03431,-0.04225 v 0.04225 l 0.02322,-0.01918 0.01513,-0.0075 0.03836,-0.01521 v 0.122716 l 0.05012,-0.09987 0.0266,-0.09589 h 0.03094 v 0.03836 h 0.04233 l -0.03439,-0.09979 -0.165044,-0.092 -0.02675,-0.11897 0.05357,0.04225 0.046,0.02315 h 0.05357 l 0.07274,-0.02682 v -0.03836 l -0.03836,-0.02682 -0.01918,-0.03439 -0.004,-0.04233 0.01918,-0.04593 0.04997,0.09987 0.03836,0.03836 0.0651,0.01161 -0.03079,-0.03836 -0.01918,-0.01918 -0.02337,-0.01521 v -0.04233 l 0.03446,0.01521 0.111103,0.02675 -0.03439,-0.02323 -0.03102,-0.02675 -0.02308,-0.03079 -0.02315,-0.03836 h -0.03439 l -0.05364,0.0077 -0.08406,-0.02315 -0.06518,-0.04225 0.01521,-0.05754 v -0.03836 l -0.05357,-0.04982 -0.07282,-0.02689 -0.05357,0.01918 -0.0076,0.0959 h -0.03461 l -0.05754,-0.05754 -0.165045,-0.02285 -0.07275,-0.07274 z m -0.397291,0.03851 c -0.02877,0.01277 -0.04795,0.02558 -0.05431,0.05754 -0.0064,0.03195 -0.01277,0.06394 0.03191,0.06713 0.04476,0.0032 0.08634,-0.02236 0.07994,-0.05754 -0.0064,-0.03517 -0.05754,-0.06713 -0.05754,-0.06713 z m 1.126168,0.08578 c -0.0043,1.15e-4 -0.0073,5.25e-4 -0.0073,5.25e-4 -0.02562,0 -0.02877,0.0096 -0.0096,0.03514 0.01918,0.02559 0.03836,0.02236 0.04795,-0.0096 0.0072,-0.02396 -0.01798,-0.02636 -0.03102,-0.02607 z m 1.349949,0.06832 0.004,0.08069 0.04585,0.0959 0.05754,0.03087 0.04233,-0.0076 0.03439,0.01918 0.02667,0.03439 0.01918,-0.01154 0.004,-0.07275 -0.01918,-0.03454 -0.06128,-0.0427 -0.06908,-0.01918 -0.06518,-0.07267 z m 0.357284,0.190367 c -0.01501,-2.69e-4 -0.01888,0.01918 -0.01888,0.05829 0,0.04315 -0.0096,0.0911 -0.0096,0.0911 l 0.06713,0.05754 c 0,0 0.0096,-0.06233 0.02877,-0.105484 0.01918,-0.04315 -0.06233,-0.10069 -0.06233,-0.10069 -0.0018,-4.49e-4 -0.0035,-7.21e-4 -0.0051,-7.48e-4 z m -1.54496,0.01041 c -0.02537,-0.0014 -0.0484,0.06106 -0.02742,0.119794 0.02397,0.06713 0.06233,0.115074 0.08151,0.01918 0.01918,-0.0959 -0.04315,-0.134253 -0.04315,-0.134253 -0.0036,-0.003 -0.0073,-0.0045 -0.01094,-0.0047 z m 1.98383,0.164296 c -0.02829,-3.95e-4 -0.06937,0.09455 -0.06937,0.09455 0.05274,0.03836 0.110279,-0.0096 0.0863,-0.07672 -0.0045,-0.01259 -0.0104,-0.01774 -0.01693,-0.01783 z m -1.880293,0.08885 c -0.0089,-2.9e-5 -0.01588,8.98e-4 -0.01588,8.98e-4 -0.02397,0.01918 -0.08631,0.06233 -0.04795,0.0959 0.03836,0.03356 0.07192,-0.01918 0.0959,-0.06233 0.01648,-0.02967 -0.01243,-0.0344 -0.03207,-0.03446 z m 3.250095,3.294896 c 0,0 -0.08631,0.04795 -0.134254,0.09589 -0.04795,0.04795 -0.239737,0.153432 -0.239737,0.153432 0,0 0.143842,0.0096 0.201379,0.01918 0.05754,0.0096 0.06713,-0.03836 0.105485,-0.105484 0.03836,-0.06713 0.06713,-0.163022 0.06713,-0.163022 z m -9.888584,4.467887 c -0.09464,6.68e-4 -0.09185,0.07035 -0.0469,0.106309 0.04795,0.03836 0.134254,0.01918 0.134254,-0.03836 0,-0.05754 -0.06713,-0.06713 -0.06713,-0.06713 -0.0072,-5.98e-4 -0.01392,-8.67e-4 -0.02023,-8.25e-4 z m 7.455095,12.455201 c -0.0285,0.04496 -0.07479,0.115151 -0.05626,0.172612 0.0168,0.05217 0.07516,0.07228 0.112602,0.101664 0.0015,-0.02317 -0.0065,-0.06043 7.48e-4,-0.08234 0.0074,-0.02279 0.05729,-0.05316 0.05993,-0.06885 0.0074,-0.04476 -0.01845,-0.02937 -0.05282,-0.04518 -0.04235,-0.0196 -0.04679,-0.01481 -0.0705,-0.05896 z m 6.460409,6.724645 c -0.05754,0.0096 -0.115074,0.05754 -0.04795,0.0863 0.06713,0.02877 0.115074,0.09589 0.115074,0.09589 l 0.143843,0.124664 v -0.20138 c 0,0 -0.105485,-0.01918 -0.115074,-0.04795 -0.0096,-0.02877 -0.09589,-0.05754 -0.09589,-0.05754 z m 3.444132,3.283057 c -0.0403,-3.84e-4 -0.07821,0.0061 -0.07821,0.0061 -0.07672,0 -0.124664,0.05754 -0.05754,0.08631 0.06713,0.02877 0.230149,0.01918 0.230149,-0.04795 0,-0.03566 -0.04873,-0.04428 -0.0944,-0.0445 z m 1.218241,15.564677 -0.13815,0.01918 -0.04592,0.07672 0.06136,0.04233 0.06518,0.01918 0.03446,0.03836 0.03079,0.04585 0.199354,0.141821 0.08833,0.03079 0.02675,-0.07267 -0.02315,-0.06915 -0.04195,-0.107506 -0.01536,-0.06503 -0.03836,-0.05754 -0.07672,-0.02315 z m -0.395041,2.22851 v 0.06151 0.01918 l -0.03454,-0.01168 -0.08054,-0.01521 -0.03454,-0.01147 v 0.03836 l 0.05027,0.05754 0.08061,0.069 0.09987,0.05357 0.107506,0.01168 -0.01161,-0.02315 -0.004,-0.004 h -0.0077 l -0.01521,-0.01154 0.046,-0.02315 0.04233,0.004 0.03438,0.01918 0.02652,0.03836 0.03102,-0.01528 0.05754,-0.03836 0.02315,-0.02308 -0.01521,-0.03836 -0.01918,-0.03079 -0.03439,-0.02675 -0.04315,-0.01888 -0.199431,-0.03836 z m -13.528627,8.837785 -0.122566,0.004 0.146015,0.230149 0.03836,0.130283 -0.03836,0.141967 -0.03836,0.02315 -0.08848,0.01521 -0.01918,0.01918 0.01918,0.08818 0.01176,0.03836 0.0074,0.004 -0.02315,0.153432 v 0.06915 l 0.02315,0.08833 0.06151,0.134253 0.115074,0.149459 0.134253,0.126612 0.126537,0.05364 0.103611,-0.04233 0.0039,-0.107579 -0.05754,-0.115074 -0.08421,-0.08069 -0.02675,0.0076 -0.0076,0.0076 h -0.01154 l -0.03079,-0.01521 0.06915,-0.03079 0.06907,0.01161 0.07274,0.03439 0.08743,0.01963 v -0.03438 l -0.05754,-0.115074 -0.04233,-0.03836 -0.08825,-0.004 v -0.03836 l 0.134254,-0.0077 0.03836,-0.069 -0.02307,-0.07672 -0.05364,-0.03836 -0.02307,-0.01918 -0.05754,-0.09192 -0.01528,-0.02315 0.01154,-0.06525 0.02682,-0.03836 0.03836,-0.03439 V 70.4063 l -0.03454,-0.08818 -0.06488,-0.06922 -0.149461,-0.04233 -0.03072,-0.03439 -0.04997,-0.08421 -0.04592,-0.04607 z m 0.560237,0.172535 -0.0729,0.01169 -0.05754,0.01521 v 0.03439 l 0.07672,0.04233 0.01536,0.05357 -0.01918,0.115074 -0.01176,0.04233 -0.05005,0.04585 -0.01146,0.05005 0.01146,0.0075 0.05364,0.0884 0.0076,0.01521 0.0457,0.046 0.07672,0.05357 0.06937,0.01918 0.03461,-0.05716 -0.01154,-0.07672 -0.0499,-0.103609 -0.01528,-0.069 h 0.03836 l 0.05005,0.115074 0.03087,0.05357 0.02667,0.01918 0.04233,-0.03439 -0.004,-0.05004 -0.02315,-0.06151 -0.01521,-0.06518 0.01169,-0.01513 0.01918,-0.01521 0.01521,-0.02315 -0.0038,-0.04241 -0.01536,-0.01154 -0.02667,-0.0076 -0.02315,-0.01513 -0.0269,-0.04608 -0.126536,-0.08818 -0.0077,-0.03836 z m 11.180918,0.471834 -0.07282,0.03836 -0.01918,0.08429 0.02315,0.08833 0.05357,0.05754 0.111177,0.0076 0.03064,-0.08428 -0.03836,-0.111028 z m -10.912861,0.172612 -0.115074,0.03836 -0.09987,0.05364 -0.046,0.08428 0.046,0.130283 v -0.08069 h 0.03836 l -0.01521,0.08825 -0.08069,0.122715 -0.01521,0.09986 0.01521,0.06511 0.03072,0.06518 0.02682,0.07672 v 0.10331 h 0.03836 l 0.07282,-0.08076 0.107508,-0.04593 0.26461,-0.06915 -0.04607,-0.06136 -0.05754,-0.05372 -0.11882,-0.07582 -0.03439,0.07672 h -0.04233 l 0.115074,-0.283638 0.02682,-0.172612 z m 1.323353,0.318325 -0.04233,0.04233 -0.0269,0.06503 -0.01146,0.07274 -0.0077,0.05754 -0.03439,0.03447 -0.160999,0.08428 -0.218686,0.05754 -0.03064,0.10339 0.07275,0.28019 0.07274,-0.06922 0.115075,-0.172611 0.07282,-0.06907 0.115074,-0.04225 0.0499,-0.03109 0.04225,-0.111104 0.03836,-0.02682 0.03836,-0.02682 0.01528,-0.07274 h 0.03454 l 0.01918,0.01918 0.01146,0.0075 0.01521,0.004 0.03117,0.01161 -0.04593,-0.06915 z m -17.1498664,0.07672 -0.065253,0.004 -0.049821,0.04585 -0.042254,0.05004 -0.015283,0.05754 -0.00772,0.06151 -0.019179,0.05754 -0.049671,0.01918 -0.023,0.01918 -0.057537,0.08818 -0.011537,0.0269 -0.046,0.04585 -0.1035368,0.0076 -0.3412519,-0.05012 -0.02682,0.01521 0.015208,0.06151 0.046,0.222733 0.069074,0.07267 0.2071484,0.107433 0.1533574,0.130283 0.1074324,0.180252 0.1457905,0.421939 0.07282,0.475505 0.072745,0.2494 0.1077324,0.0499 0.023075,0.02682 0.088179,0.0499 -0.015133,-0.09986 -0.023225,-0.06151 v -0.06503 L 6.92521,73.382321 6.829315,73.232859 6.90221,72.925995 7.1131792,72.377294 v -0.594549 l -0.019629,-0.09537 -0.3906978,-0.425383 z m 13.6592094,0.867103 -0.08436,0.0075 0.256969,0.115075 0.705653,0.134253 0.107358,0.046 0.04607,0.06907 0.03439,0.02682 0.07672,-0.01521 0.07672,-0.03836 0.03439,-0.05004 -0.01918,-0.07275 -0.0457,-0.03064 -0.122641,-0.03079 -0.115074,-0.03836 -0.625266,-0.0075 -0.14609,-0.03439 z M 9.5695212,73.537658 c -0.057537,0.02877 -0.028768,0.143843 0.038358,0.124664 0.067126,-0.01918 -0.038358,-0.124664 -0.038358,-0.124664 z m 1.5837678,0.332863 c -0.02801,5.76e-4 -0.06023,0.01056 -0.06862,0.03154 -0.01918,0.04795 -0.0096,0.143843 -0.0096,0.143843 0.04795,0.04795 0.03836,-0.0863 0.105485,-0.134253 0.03776,-0.02697 0.0087,-0.04184 -0.02727,-0.04113 z m -4.4611457,0.03469 c -0.041692,0.0023 -0.052218,0.116719 -0.018654,0.150283 0.038358,0.03836 0.1150741,-0.02877 0.076716,-0.08631 l -0.038358,-0.05754 c -0.00719,-0.0048 -0.013748,-0.0068 -0.019704,-0.0064 z m 13.0747737,0.214563 v 0.03439 l 0.249327,0.23764 0.153432,0.08436 0.130432,0.214943 0.08054,0.04585 0.046,-0.0499 -0.07275,-0.111104 -0.176357,-0.188119 -0.06908,-0.06503 -0.230148,-0.168641 -0.08825,-0.01918 z m -9.689376,0.660253 c -0.05692,0.0013 -0.1436184,0.04263 -0.1436184,0.04263 -0.038358,0.02877 -0.038358,0.07672 0.038358,0.08631 0.076716,0.0096 0.1438424,0.0096 0.1534324,-0.08631 0.0033,-0.03296 -0.01836,-0.0433 -0.04817,-0.04263 z m 7.905877,0.340278 -0.03064,0.03836 0.115074,0.157402 0.04982,0.08833 0.01918,0.122639 0.02323,0.09193 0.06136,0.103463 0.138224,0.168641 0.184224,0.295326 0.05754,0.0499 0.103461,-0.01154 -0.02675,-0.04233 -0.09192,-0.07275 -0.08069,-0.103536 0.04233,-0.03439 0.08076,0.05754 0.11852,0.10346 0.08069,0.119044 -0.0266,0.107659 v 0.03431 l 0.14167,0.004 0.07672,-0.05364 0.03439,-0.09979 0.0077,-0.141971 -0.06915,-0.04982 -0.302969,-0.07282 -0.06945,-0.06907 -0.03836,-0.06511 -0.260864,-0.260939 -0.261165,-0.38755 -0.0457,-0.03079 -0.01528,-0.01521 z m -9.4975115,0.239362 c -0.047948,0 -0.028768,0.08631 0.019179,0.08631 0.047948,0 -0.019179,-0.08631 -0.019179,-0.08631 z m 0.1534322,0.01918 c -0.047948,0 -0.038358,0.08631 0.00959,0.08631 0.047948,0 -0.00959,-0.08631 -0.00959,-0.08631 z M 8.476317,75.493918 c -0.057537,0.0096 -0.038358,0.0959 -0.019179,0.153432 0.019179,0.05754 0.067127,0.03836 0.067127,-0.04795 0,-0.08631 -0.047948,-0.105485 -0.047948,-0.105485 z m 0.2512751,0.07792 c -0.022401,4.22e-4 -0.00195,0.07552 -0.00195,0.07552 0.057537,0.02877 0.067127,-0.02877 0.019179,-0.06713 -0.00749,-0.006 -0.013083,-0.0085 -0.017231,-0.0084 z m 0.029368,0.202576 c -0.018992,0.0012 -0.069674,0.04555 -0.069674,0.04555 0.00959,0.02877 0.076716,-0.0096 0.076716,-0.03836 0,-0.0054 -0.00266,-0.0075 -0.00704,-0.0072 z m -5.7606737,2.5604 c -0.017427,0 -0.032498,0.0078 -0.048472,0.03356 2.301e-4,0.05926 -0.033177,0.105558 -0.028769,0.163098 0.00464,0.06064 0.055444,0.107518 0.068026,0.167817 0.027119,-0.04526 0.041017,-0.0911 0.074618,-0.135676 0.029536,-0.03916 0.065763,-0.0835 0.074394,-0.13283 0.011853,-0.06755 -0.023775,-0.06839 -0.077016,-0.08151 -0.025527,-0.0063 -0.045333,-0.01438 -0.062781,-0.01446 z m -0.048472,0.03356 c -6.6e-6,-0.0016 3.83e-5,-0.0031 0,-0.0047 l -7.68e-5,0.0048 c 0,0 7.68e-5,0 7.68e-5,0 z m 18.0963056,2.352802 -0.149611,0.06915 -0.176433,0.126685 -0.149611,0.145791 -0.06136,0.138296 0.01918,0.03432 0.08398,0.111104 0.02682,0.02674 0.08436,-0.0076 0.02307,-0.01918 -0.01154,-0.02315 -0.0038,-0.02682 0.0038,-0.0499 -0.0038,-0.06518 0.01146,-0.05357 0.04607,-0.02315 0.06136,-0.01154 0.05372,-0.0152 0.05754,-0.004 0.069,0.03072 -0.03064,-0.07275 -0.05754,-0.08436 v -0.06136 l 0.127286,-0.01214 -0.0039,-0.02667 -0.0076,-0.01918 -0.02682,-0.03439 0.05364,0.004 0.01918,-0.004 -0.004,-0.03439 -0.01161,-0.01918 -0.01918,-0.01161 z m 0.253373,0.449733 c -0.115074,0 -0.182201,0.01918 -0.182201,0.01918 0.02877,0.03836 0.0096,0.09589 0.105485,0.0863 0.0959,-0.0096 0.19179,-0.105484 0.07672,-0.105484 z M 17.883627,81.7271 c -0.05754,0.0096 -0.03836,0.08631 0.01918,0.08631 0.05754,0 -0.01918,-0.08631 -0.01918,-0.08631 z m -6.71528,0.718914 c -0.01888,5.76e-4 -0.04023,0.01828 -0.04533,0.03866 -0.0096,0.03836 -0.05754,0.105485 -0.05754,0.105485 -0.04795,0.03836 -0.01918,0.08631 0.02877,0.08631 0.04795,0 0.105485,-0.105485 0.105485,-0.182201 0,-0.03596 -0.01473,-0.04876 -0.03139,-0.04825 z"
     style="stroke-width:1" /></clipPath></defs><sodipodi:namedview
   id="namedview3724"
   pagecolor="#ffffff"
   bordercolor="#666666"
   borderopacity="1.0"
   inkscape:pageshadow="2"
   inkscape:pageopacity="0.0"
   inkscape:pagecheckerboard="0"
   showgrid="false"
   inkscape:zoom="0.11450823"
   inkscape:cx="344.95336"
   inkscape:cy="930.06411"
   inkscape:window-width="1366"
   inkscape:window-height="697"
   inkscape:window-x="-8"
   inkscape:window-y="-8"
   inkscape:window-maximized="1"
   inkscape:current-layer="Layer_1" />







<g
   id="g4836"
   transform="matrix(26.070152,0,0,26.070152,87.806287,42.418677)"
   style="opacity:1;stroke-width:1.15074"
   clip-path="url(#clipPath4874)"><rect
     width="95.321228"
     height="125.18392"
     fill="#da251d"
     id="rect4824"
     x="-37.517834"
     y="-27.803394"
     style="stroke-width:1.32421" /><polygon
     points="20.71,8.15 9.29,8.15 18.53,14.85 15,4 11.47,14.85 "
     fill="#ffff00"
     id="polygon4826"
     style="stroke-width:1.32421" /></g></svg>
