<?xml version="1.0" encoding="UTF-8" standalone="no"?>
<!-- Generator: Adobe Illustrator 21.0.2, SVG Export Plug-In . SVG Version: 6.00 Build 0)  -->

<svg
   version="1.1"
   id="Layer_1"
   x="0px"
   y="0px"
   viewBox="0 0 480 480"
   style="enable-background:new 0 0 480 480;"
   xml:space="preserve"
   sodipodi:docname="PiCreatures_plain.svg"
   inkscape:version="1.2.1 (9c6d41e410, 2022-07-14)"
   xmlns:inkscape="http://www.inkscape.org/namespaces/inkscape"
   xmlns:sodipodi="http://sodipodi.sourceforge.net/DTD/sodipodi-0.dtd"
   xmlns="http://www.w3.org/2000/svg"
   xmlns:svg="http://www.w3.org/2000/svg"><defs
   id="defs18" /><sodipodi:namedview
   id="namedview16"
   pagecolor="#ffffff"
   bordercolor="#000000"
   borderopacity="0.25"
   inkscape:showpageshadow="2"
   inkscape:pageopacity="0.0"
   inkscape:pagecheckerboard="0"
   inkscape:deskcolor="#d1d1d1"
   showgrid="false"
   inkscape:zoom="2.1395833"
   inkscape:cx="239.76631"
   inkscape:cy="239.76631"
   inkscape:window-width="2560"
   inkscape:window-height="1387"
   inkscape:window-x="1072"
   inkscape:window-y="244"
   inkscape:window-maximized="1"
   inkscape:current-layer="Layer_1" />
<style
   type="text/css"
   id="style2">
	.st0{fill:#FFFFFF;}
	.st1{fill:#0C7F99;}
</style>
<path
   class="st0"
   d="M251.6,114.7c0,4.2-1.4,8.2-3.7,11.3l-30.4,0.3c-2.6-3.1-4-7.3-4-11.6c0-10.5,8.5-19,19-19  C243.1,95.6,251.6,104.2,251.6,114.7z"
   id="path4" />
<path
   class="st0"
   d="M306.6,114.7c0,4.2-1.4,8.2-3.7,11.3l-30.4,0.3c-2.6-3.1-4-7.3-4-11.6c0-10.5,8.5-19,19-19  C298.1,95.6,306.6,104.2,306.6,114.7z"
   id="path6" />
<path
   d="M238,99.8c-1.3,0.1-2.3,1.1-2.3,2.4c0,1.3,1.1,2.4,2.4,2.4c1.3,0,2.4-1.1,2.4-2.4c0-1.3-1.1-2.4-2.4-2.4  C238.1,99.8,238,99.8,238,99.8l2.9-1c4.3,0,7.7,3.5,7.7,7.7s-3.5,7.7-7.7,7.7s-7.7-3.5-7.7-7.7s3.5-7.7,7.7-7.7"
   id="path8" />
<path
   d="M293,99.8c-1.3,0.1-2.3,1.1-2.3,2.4c0,1.3,1.1,2.4,2.4,2.4s2.4-1.1,2.4-2.4c0-1.3-1.1-2.4-2.4-2.4  C293.1,99.8,293,99.8,293,99.8l2.9-1c4.3,0,7.7,3.5,7.7,7.7s-3.5,7.7-7.7,7.7s-7.7-3.5-7.7-7.7s3.5-7.7,7.7-7.7"
   id="path10" />
<path
   id="path2"
   d="M 40.076172,64.228516 C 35.615181,64.228516 32,67.843696 32,72.304688 V 401.36328 c 0,4.461 3.615181,8.07617 8.076172,8.07617 h 93.531248 c 4.461,0 8.07617,-3.61517 8.07617,-8.07617 V 72.304688 c 10e-4,-4.460992 -3.61517,-8.076172 -8.07617,-8.076172 z m 39.36914,39.746094 h 14.794922 c 0.705,0 1.277344,0.57234 1.277344,1.27734 v 127.42188 c 0,0.706 -0.572344,1.27734 -1.277344,1.27734 H 79.445312 c -0.705998,0 -1.277343,-0.57134 -1.277343,-1.27734 V 105.25195 c 0,-0.705 0.571345,-1.27734 1.277343,-1.27734 z m 84.785158,22.92383 v 31.33203 H 395.46875 V 325.03516 H 164.23047 v 41.22461 h 42.01367 l -29.59766,28.51562 c -0.97799,0.942 -1.52929,2.24256 -1.52929,3.60156 v 6.39649 c 0,2.76099 2.238,5 5,5 h 151.375 c 2.76199,0 5,-2.23901 5,-5 v -6.39649 c 0,-1.358 -0.55325,-2.65856 -1.53125,-3.60156 L 305.36328,366.25977 H 415.4082 c 3.64,0 6.5918,-2.95071 6.5918,-6.59571 V 133.49023 c 0,-3.63999 -2.9518,-6.59179 -6.5918,-6.59179 z M 86.841797,292.04883 c 4.197992,0 7.597656,3.40067 7.597656,7.59765 0,4.195 -3.399664,7.59766 -7.597656,7.59766 -4.195992,0 -7.59961,-3.40166 -7.599609,-7.59766 0,-4.19598 3.402617,-7.59765 7.599609,-7.59765 z m 0,32.46875 c 9.876983,0 17.884763,8.00778 17.884763,17.88476 0,9.87798 -8.00778,17.88477 -17.884763,17.88477 -9.87698,0 -17.884766,-8.00679 -17.884766,-17.88477 0,-9.87698 8.007786,-17.88476 17.884766,-17.88476 z m 168.960933,15.03515 c 4.008,0 7.25391,3.24691 7.25391,7.25391 0,4.006 -3.24591,7.25391 -7.25391,7.25391 -4.00299,0 -7.25,-3.24791 -7.25,-7.25391 0,-4.007 3.24701,-7.25391 7.25,-7.25391 z" />
<path
   d="M246.3,149.1c5.5,0,1.9,0.1,13.5,0c10.3-0.1,12.4-0.1,15.7-0.2c0,0-0.3-3.1-0.3-3.1c-3.7,0.1-9.3,0.2-14.7,0.2  c-3.9,0-8.5,0-14.6,0"
   id="path13" />
</svg>
