<?xml version="1.0" encoding="UTF-8" standalone="no"?>
<!-- Generator: Adobe Illustrator 21.0.2, SVG Export Plug-In . SVG Version: 6.00 Build 0)  -->

<svg
   version="1.1"
   id="Layer_1"
   x="0px"
   y="0px"
   viewBox="0 0 480 480"
   style="enable-background:new 0 0 480 480;"
   xml:space="preserve"
   sodipodi:docname="PiCreatures_plain2.svg"
   inkscape:version="1.2.1 (9c6d41e410, 2022-07-14)"
   xmlns:inkscape="http://www.inkscape.org/namespaces/inkscape"
   xmlns:sodipodi="http://sodipodi.sourceforge.net/DTD/sodipodi-0.dtd"
   xmlns="http://www.w3.org/2000/svg"
   xmlns:svg="http://www.w3.org/2000/svg"><defs
   id="defs427" /><sodipodi:namedview
   id="namedview425"
   pagecolor="#ffffff"
   bordercolor="#000000"
   borderopacity="0.25"
   inkscape:showpageshadow="2"
   inkscape:pageopacity="0.0"
   inkscape:pagecheckerboard="0"
   inkscape:deskcolor="#d1d1d1"
   showgrid="false"
   inkscape:zoom="1.0697917"
   inkscape:cx="-207.51704"
   inkscape:cy="181.34372"
   inkscape:window-width="2560"
   inkscape:window-height="1387"
   inkscape:window-x="1072"
   inkscape:window-y="244"
   inkscape:window-maximized="1"
   inkscape:current-layer="Layer_1" />

<path
   class="st0"
   d="M251.6,114.7c0,4.2-1.4,8.2-3.7,11.3l-30.4,0.3c-2.6-3.1-4-7.3-4-11.6c0-10.5,8.5-19,19-19  C243.1,95.6,251.6,104.2,251.6,114.7z"
   id="path412"
   style="fill:#ffccaa" />
<path
   class="st0"
   d="M306.6,114.7c0,4.2-1.4,8.2-3.7,11.3l-30.4,0.3c-2.6-3.1-4-7.3-4-11.6c0-10.5,8.5-19,19-19  C298.1,95.6,306.6,104.2,306.6,114.7z"
   id="path414"
   style="fill:#ffccaa" />
<path
   d="M238,99.8c-1.3,0.1-2.3,1.1-2.3,2.4c0,1.3,1.1,2.4,2.4,2.4c1.3,0,2.4-1.1,2.4-2.4c0-1.3-1.1-2.4-2.4-2.4  C238.1,99.8,238,99.8,238,99.8l2.9-1c4.3,0,7.7,3.5,7.7,7.7s-3.5,7.7-7.7,7.7s-7.7-3.5-7.7-7.7s3.5-7.7,7.7-7.7"
   id="path416" />
<path
   d="M293,99.8c-1.3,0.1-2.3,1.1-2.3,2.4c0,1.3,1.1,2.4,2.4,2.4s2.4-1.1,2.4-2.4c0-1.3-1.1-2.4-2.4-2.4  C293.1,99.8,293,99.8,293,99.8l2.9-1c4.3,0,7.7,3.5,7.7,7.7s-3.5,7.7-7.7,7.7s-7.7-3.5-7.7-7.7s3.5-7.7,7.7-7.7"
   id="path418" />
<path
   d="m 282.32838,372.44312 c 2.34979,-0.64005 6.41727,-2.73916 8.17713,-4.22 2.54842,-2.14436 5.75492,-7.31424 6.52348,-10.51792 0.93621,-3.90254 0.38773,-7.64184 -1.96659,-13.4077 -4.61186,-11.29471 -9.91964,-29.47742 -11.90583,-40.78541 -2.04464,-11.64084 -2.39378,-13.90741 -2.95675,-19.19555 -0.32683,-3.06994 -0.88743,-8.09346 -1.24583,-11.16339 -0.85233,-7.30119 -0.82473,-37.80054 0.0425,-46.96784 2.0637,-21.81466 4.7022,-39.92192 8.21266,-56.36141 0.92738,-4.34282 1.96155,-9.20159 2.29821,-10.79722 1.06333,-5.03993 -1.46546,-4.71072 36.9061,-4.80453 18.43269,-0.0452 35.16189,-0.22996 37.17604,-0.41094 6.84101,-0.61465 12.27778,-3.49667 14.32037,-7.59113 1.12985,-2.26483 2.03279,-7.87114 1.63024,-10.12177 -0.89041,-4.97794 -1.38291,-5.98361 -3.70158,-7.55819 -4.01803,-2.7286 -5.64533,-2.82517 -47.60317,-2.82517 -34.04159,0 -38.40944,0.30044 -39.17539,0.27227 -1.94463,-0.0713 -29.40208,0.2441 -31.97803,0 -1.30335,-0.12338 -21.71361,0.0454 -23.02201,0 -2.04976,-0.0712 -29.80458,-0.17638 -31.43348,0 -0.74466,0.0806 -2.45159,-0.27569 -15.16966,-0.29601 -8.17091,-0.012 -15.95074,-0.23489 -17.28855,-0.49301 -1.82483,-0.35206 -2.96429,-1.03953 -4.5621,-2.75249 -2.0147,-2.15986 -2.11295,-2.42515 -1.81852,-4.91096 0.17124,-1.44526 0.53137,-3.07527 0.80047,-3.62228 0.26908,-0.547 1.07926,-2.21978 1.80039,-3.7173 1.68122,-3.49137 9.62893,-11.47169 13.48603,-13.541401 5.40585,-2.900778 10.26648,-3.650648 15.96425,-2.462909 3.41241,0.711373 3.96392,0.909175 8.61827,3.090956 4.99655,2.342154 8.14309,3.590844 8.39809,3.332714 1.38535,-1.40252 -4.92143,-9.087113 -11.57348,-14.101919 -5.24974,-3.957637 -8.48281,-5.452703 -11.77062,-5.443094 -6.51098,0.01853 -16.26216,3.87103 -23.27746,9.19522 -5.61166,4.258924 -10.13195,11.452683 -13.03676,20.747253 -1.13316,3.62578 -1.27714,5.15367 -1.28284,13.61384 -0.006,8.56231 0.12325,9.91668 1.27114,13.34159 3.3187,9.90195 7.27635,14.75317 13.04505,15.99035 1.76139,0.37772 8.77784,0.61857 18.02079,0.61857 14.45161,0 15.18095,0.0494 16.12329,1.09063 0.86952,0.96079 0.90897,1.36585 0.33154,3.40345 -0.36048,1.2721 -0.858,2.80295 -1.10562,3.40198 -0.24759,0.599 -1.26065,3.90718 -2.2512,7.3515 -0.99057,3.4443 -2.09488,6.9975 -2.45408,7.89604 -0.35921,0.89849 -1.28459,3.71658 -2.05642,6.26235 -3.80818,12.56092 -9.8691,30.83074 -10.70121,32.2575 -0.30333,0.52007 -0.5515,1.42454 -0.5515,2.00995 0,0.5854 -0.24506,1.2158 -0.54456,1.40089 -0.2995,0.18503 -0.54455,0.82403 -0.54455,1.41986 0,0.5958 -0.49009,2.09765 -1.08911,3.33747 -0.59901,1.23981 -1.08911,2.58758 -1.08911,2.99504 0,0.40749 -0.4901,1.75525 -1.08909,2.99506 -0.59901,1.23979 -1.08914,2.5784 -1.08914,2.97467 0,0.65204 -1.57002,4.54582 -2.72685,6.76279 -0.25282,0.4845 -0.74181,1.92868 -1.08664,3.20929 -0.34484,1.28062 -1.33895,3.88292 -2.20914,5.78287 -0.87018,1.89995 -2.10524,5.11172 -2.74451,7.13722 -0.63932,2.02555 -1.89705,5.27563 -2.79497,7.2224 -1.57531,3.41542 -2.27343,5.03977 -3.15944,7.35152 -0.2296,0.59899 -0.93196,2.25041 -1.56081,3.66978 -0.62887,1.4194 -1.1434,2.85013 -1.1434,3.17946 0,0.32931 -1.10271,2.89631 -2.45046,5.70444 -1.34779,2.80815 -2.45053,5.33958 -2.45053,5.62545 0,0.28583 -0.3449,1.21347 -0.76645,2.06139 -0.42155,0.84789 -1.06014,2.2768 -1.41912,3.1753 -0.35896,0.89851 -1.09455,2.61387 -1.63465,3.81189 -0.54005,1.19804 -1.47806,3.28096 -2.08443,4.62871 -0.60638,1.34778 -1.97638,4.30667 -3.04446,6.5753 -1.06808,2.26862 -1.94195,4.39294 -1.94195,4.72069 0,0.32781 -0.33736,1.28973 -0.7497,2.13762 -0.4123,0.8479 -1.23187,2.64439 -1.82128,3.99217 -0.58942,1.34776 -2.07509,4.5334 -3.30154,7.07918 -2.39992,4.98172 -4.70083,10.01323 -5.97653,13.06933 -0.43757,1.04828 -1.01439,2.27352 -1.28182,2.72278 -0.26742,0.44924 -1.50073,2.89975 -2.74071,5.44555 -1.23998,2.54579 -2.503,5.11587 -2.80673,5.71129 -0.30373,0.59543 -0.52302,3.08321 -0.48731,5.52837 0.0502,3.43675 0.32881,4.92135 1.22775,6.54116 2.99117,5.38996 5.2354,6.45185 13.63512,6.45185 6.73324,0 7.7373,-0.27332 11.47049,-3.12258 4.25596,-3.24828 8.46705,-11.72003 12.92939,-26.01111 6.9312,-22.19791 6.63403,-21.20022 9.04343,-30.35893 0.45308,-1.72212 1.04119,-3.62128 1.30694,-4.22028 0.26575,-0.599 1.85994,-6.72525 3.54265,-13.61386 1.6827,-6.88863 3.65074,-14.73022 4.37341,-17.42577 1.40746,-5.24996 6.25932,-23.8052 9.25539,-35.39606 1.00643,-3.89357 2.36387,-9.0396 3.0165,-11.43565 0.65265,-2.39603 2.16375,-8.15469 3.35802,-12.79702 2.70677,-10.52176 5.15409,-19.92724 8.28914,-31.85647 1.3381,-5.09157 3.57964,-13.66832 4.98119,-19.0594 2.5588,-9.84222 3.18184,-11.64 4.29051,-12.38029 0.32957,-0.22006 14.48823,-0.40385 31.46375,-0.40841 27.33995,-0.008 30.96235,0.0895 31.72034,0.8474 0.47066,0.47062 0.85574,0.94245 0.85574,1.04848 0,0.18277 -2.75774,11.76631 -5.76962,24.23439 -0.7597,3.14481 -1.73272,7.24939 -2.16225,9.12132 -0.42955,1.87189 -1.14199,4.93501 -1.58319,6.8069 -3.51161,14.8992 -7.48492,34.14689 -9.75182,47.24014 -8.71616,50.34326 -7.42753,95.98527 3.3503,118.66339 3.64687,7.67358 7.53629,10.44715 14.48826,10.33167 2.13334,-0.0353 4.49144,-0.2313 5.2402,-0.43527 z"
   id="path422"/>
<path
   d="m 230.58955,147.00574 c 3.18233,-2.61178 2.97102,-3.03501 6.33021,-4.35657 10.13966,-0.22979 16.37723,0.15493 19.63114,0.36169 l 0.17054,-3.10528 c -3.88105,-0.26024 -14.40446,-0.20438 -19.71633,-0.13806 -3.83637,0.0479 -4.56448,2.05652 -5.74281,3.66554"
   id="path420"
   style="fill:#ff5555;stroke-width:1.00755"
   sodipodi:nodetypes="ccccsc" />
</svg>
