<?xml version="1.0" encoding="UTF-8" standalone="no"?>
<!-- Generator: Adobe Illustrator 19.0.0, SVG Export Plug-In . SVG Version: 6.00 Build 0)  -->

<svg
   version="1.1"
   id="Layer_1"
   x="0px"
   y="0px"
   viewBox="0 0 473.935 473.935"
   style="enable-background:new 0 0 473.935 473.935;"
   xml:space="preserve"
   sodipodi:docname="mountain-svgrepo-com.svg"
   inkscape:version="1.2.1 (9c6d41e410, 2022-07-14)"
   xmlns:inkscape="http://www.inkscape.org/namespaces/inkscape"
   xmlns:sodipodi="http://sodipodi.sourceforge.net/DTD/sodipodi-0.dtd"
   xmlns="http://www.w3.org/2000/svg"
   xmlns:svg="http://www.w3.org/2000/svg"><defs
   id="defs49" /><sodipodi:namedview
   id="namedview47"
   pagecolor="#ffffff"
   bordercolor="#000000"
   borderopacity="0.25"
   inkscape:showpageshadow="2"
   inkscape:pageopacity="0.0"
   inkscape:pagecheckerboard="0"
   inkscape:deskcolor="#d1d1d1"
   showgrid="false"
   inkscape:zoom="2.1669638"
   inkscape:cx="236.73676"
   inkscape:cy="236.73676"
   inkscape:window-width="2560"
   inkscape:window-height="1387"
   inkscape:window-x="1072"
   inkscape:window-y="244"
   inkscape:window-maximized="1"
   inkscape:current-layer="Layer_1" />

<polygon
   style="fill:#D2D2D2;"
   points="426.444,306.767 345.116,184.343 327.687,191.617 285.424,124.942 280.417,117.036   264.44,106.143 247.239,79.008 234.954,65.103 218.569,79.008 155.527,180.777 134.05,190.809 62.211,306.767 61.227,342.022   426.897,342.022 "
   id="polygon4" />
<polygon
   style="fill:#A9A9A8;"
   points="426.444,306.767 345.116,184.343 257.835,163.49 193.855,211.052 155.527,180.777   134.05,190.809 62.211,306.767 61.227,342.022 426.897,342.022 "
   id="polygon6" />
<polygon
   style="fill:#F5F3E2;"
   points="426.444,306.767 379.013,226.041 266.307,227.344 165.095,266.763 66.855,282.015   51.521,292.926 52.422,343.541 84.355,350.632 136.096,347.65 193.81,352.626 248.533,345.734 292.316,352.626 361.322,342.291   426.897,342.022 "
   id="polygon8" />
<polygon
   style="fill:#BBBBBB;"
   points="426.444,306.767 383.855,224.272 272.417,242.183 171.92,278 88.336,288.941 51.521,292.926   43.562,319.788 72.419,348.649 136.096,347.65 193.81,352.626 248.533,345.734 292.316,352.626 361.322,342.291 426.897,342.022 "
   id="polygon10" />
<polygon
   style="fill:#FFFFFF;"
   points="286.389,125.447 281.285,117.391 264.743,103.636 247.209,75.981 234.932,64.456   218.232,78.63 185.263,131.535 209.955,122.443 231.564,138.731 257.914,124.123 "
   id="polygon12" />

<g
   id="g16">
</g>
<g
   id="g18">
</g>
<g
   id="g20">
</g>
<g
   id="g22">
</g>
<g
   id="g24">
</g>
<g
   id="g26">
</g>
<g
   id="g28">
</g>
<g
   id="g30">
</g>
<g
   id="g32">
</g>
<g
   id="g34">
</g>
<g
   id="g36">
</g>
<g
   id="g38">
</g>
<g
   id="g40">
</g>
<g
   id="g42">
</g>
<g
   id="g44">
</g>
<path
   style="fill:#f9f9f9;stroke-width:0.461475"
   d="m 220.66442,130.19545 -10.69053,-8.01636 -11.65359,4.316 c -6.40948,2.37381 -11.77992,4.26794 -11.93432,4.2092 -0.1544,-0.0587 7.01,-11.78032 15.92089,-26.04794 l 16.20162,-25.941119 8.21048,-6.977902 8.21047,-6.977901 6.09526,5.74836 6.09525,5.74836 8.73634,13.787883 8.73634,13.787879 8.33824,6.9616 c 7.27408,6.07314 8.62456,7.41626 10.5817,10.52403 1.2339,1.95934 2.16839,3.63623 2.07664,3.72643 -0.0917,0.0902 -6.3569,-0.13716 -13.92255,-0.50526 l -13.75573,-0.66926 -12.93751,7.17118 c -7.11562,3.94415 -13.09072,7.17118 -13.27798,7.17118 -0.18727,0 -5.15123,-3.60736 -11.03102,-8.01636 z"
   id="path609" /></svg>
