<?xml version="1.0" encoding="UTF-8" standalone="no"?>
<!-- Generator: Adobe Illustrator 19.0.0, SVG Export Plug-In . SVG Version: 6.00 Build 0)  -->

<svg
   version="1.1"
   id="Layer_1"
   x="0px"
   y="0px"
   viewBox="0 0 280.028 280.028"
   style="enable-background:new 0 0 280.028 280.028;"
   xml:space="preserve"
   sodipodi:docname="mountain-svgrepo-com (1).svg"
   inkscape:version="1.2.1 (9c6d41e410, 2022-07-14)"
   xmlns:inkscape="http://www.inkscape.org/namespaces/inkscape"
   xmlns:sodipodi="http://sodipodi.sourceforge.net/DTD/sodipodi-0.dtd"
   xmlns="http://www.w3.org/2000/svg"
   xmlns:svg="http://www.w3.org/2000/svg"><defs
   id="defs57" /><sodipodi:namedview
   id="namedview55"
   pagecolor="#ffffff"
   bordercolor="#000000"
   borderopacity="0.25"
   inkscape:showpageshadow="2"
   inkscape:pageopacity="0.0"
   inkscape:pagecheckerboard="0"
   inkscape:deskcolor="#d1d1d1"
   showgrid="false"
   inkscape:zoom="3.6674902"
   inkscape:cx="139.87767"
   inkscape:cy="118.06439"
   inkscape:window-width="2560"
   inkscape:window-height="1387"
   inkscape:window-x="1072"
   inkscape:window-y="244"
   inkscape:window-maximized="1"
   inkscape:current-layer="Layer_1" />
<g
   id="g22">
	<path
   style="fill:#DBDEE0;"
   d="M270.401,93.634c0-1.75,0.875-4.375,0.875-6.126c0-19.252-15.752-35.003-35.003-35.003   c-14.001,0-25.377,7.876-31.503,19.252c-4.375-6.126-12.251-10.501-21.002-10.501c-14.876,0-26.253,11.376-26.253,26.253   c0,1.75,0,4.375,0.875,6.126c-6.126,5.251-9.626,12.251-9.626,20.127c0,14.876,11.376,26.253,26.253,26.253h78.758   c14.876,0,26.253-11.376,26.253-26.253C280.027,105.885,276.527,98.885,270.401,93.634z"
   id="path2" />
	<path
   style="fill:#3DB39E;"
   d="M140.014,0l140.014,280.027H0L140.014,0z"
   id="path4" />
	<g
   id="g12">
		<g
   id="g10">
			<g
   id="g8">
				<path
   style="fill:#E4E7E7;"
   d="M87.509,96.259l26.253,26.253l26.253-26.253l26.253,26.253l26.253-26.253L148.765,0h-17.502      L87.509,96.259z"
   id="path6" />
			</g>
		</g>
	</g>
	<path
   style="fill:#4a4a4a"
   d="m 209.515,253.775 h 17.502 v 26.253 h -17.502 z"
   id="path14" />
	<polygon
   style="fill:#277264"
   points="122.512,253.775 210.021,253.775 182.018,218.771 201.27,218.771 166.266,175.017 131.263,218.771 150.515,218.771 "
   id="polygon16"
   transform="translate(52)" />
	<polygon
   style="fill:#349886;"
   points="61.256,157.515 0,280.027 8.751,280.027 129.513,157.515  "
   id="polygon18" />
	<path
   style="fill:#eceeee;stroke-width:0.753328"
   d="m 152.01671,110.05458 c 0,-1.31923 0.6587,-3.29808 0.6587,-4.61806 0,-14.513062 -11.85825,-26.386903 -26.35057,-26.386903 -10.54009,0 -19.10404,5.937297 -23.71575,14.513063 -3.29354,-4.61807 -9.22267,-7.91615 -15.8105,-7.91615 -11.198789,0 -19.763499,8.57576 -19.763499,19.79074 0,1.31923 0,3.29808 0.658708,4.61807 -4.611709,3.95694 -7.246541,9.23462 -7.246541,15.17192 0,11.21422 8.563957,19.79074 19.763499,19.79074 H 139.5005 c 11.19879,0 19.7635,-8.57576 19.7635,-19.79074 -7.5e-4,-5.9373 -2.63634,-11.21498 -7.24729,-15.17268 z"
   id="path20" />
</g>
<g
   id="g24">
</g>
<g
   id="g26">
</g>
<g
   id="g28">
</g>
<g
   id="g30">
</g>
<g
   id="g32">
</g>
<g
   id="g34">
</g>
<g
   id="g36">
</g>
<g
   id="g38">
</g>
<g
   id="g40">
</g>
<g
   id="g42">
</g>
<g
   id="g44">
</g>
<g
   id="g46">
</g>
<g
   id="g48">
</g>
<g
   id="g50">
</g>
<g
   id="g52">
</g>
<path
   style="fill:#f9f9f9;stroke-width:0.272666"
   d="m 159.301,115.39748 -6.86811,-6.8764 0.16757,-2.3437 c 0.85218,-11.918911 -7.96061,-23.387395 -20.35743,-26.492057 -3.27079,-0.819138 -8.70242,-0.807048 -12.1001,0.02694 -2.69768,0.662159 -6.14093,2.180892 -8.53841,3.766074 -2.47359,1.635511 -5.69438,4.88084 -7.45256,7.509346 l -1.60481,2.399223 -0.86647,-1.0782 c -1.62483,-2.021887 -4.988431,-4.358035 -7.67572,-5.331079 -0.883499,-0.319908 -1.623496,-0.67625 -1.644437,-0.791874 -0.02094,-0.115621 8.729327,-19.520551 19.445047,-43.122065 l 19.48312,-42.91184269 8.72532,2.4021e-4 8.72531,2.4022e-4 14.4513,31.79668226 c 7.94822,17.488175 17.78635,39.110403 21.86253,48.049394 6.87772,15.082745 7.37824,16.283307 6.95298,16.677762 -0.25203,0.233781 -6.16847,6.088906 -13.14763,13.011386 l -12.68939,12.58633 z"
   id="path335" /><path
   style="fill:#e6e6e6;stroke-width:0.272666"
   d="m 76.482822,144.51744 c -8.992118,-1.70954 -15.260297,-8.82421 -15.863407,-18.00569 -0.358342,-5.45525 1.542204,-10.53059 5.574164,-14.88558 l 1.457284,-1.57404 -0.316741,-1.71986 c -0.620954,-3.37167 0.204464,-8.540327 1.900377,-11.899913 2.000376,-3.962721 4.813888,-6.695206 8.884319,-8.628456 2.912792,-1.383429 4.391634,-1.771346 7.498316,-1.966893 5.784635,-0.364106 11.392148,1.781136 15.395386,5.889745 1.29005,1.324016 2.05524,1.731958 2.05524,1.095705 0,-0.624777 3.12057,-4.393756 5.602,-6.766023 2.2499,-2.150918 3.01841,-2.690889 5.65824,-3.975596 5.27548,-2.567381 7.3532,-3.010035 13.10631,-2.792285 4.62972,0.175231 6.14149,0.550339 10.1257,2.512432 4.9704,2.447759 8.7983,5.949712 11.66457,10.671333 0.90284,1.487253 2.01193,3.969159 2.2674,5.073954 0.0607,0.262441 0.16473,0.723026 0.23121,1.023523 0.0665,0.300496 0.19456,0.665582 0.28462,0.811302 0.23806,0.385194 0.5513,3.441642 0.53354,5.206062 -0.008,0.83567 -0.18079,2.39651 -0.38306,3.46853 l -0.36778,1.94912 1.88273,2.00137 c 3.13777,3.33551 4.75799,6.72241 5.30579,11.09122 0.53368,4.25622 -0.65893,9.34816 -3.04852,13.01584 -1.67389,2.56919 -4.69238,5.25674 -7.38901,6.57891 -4.55881,2.2352 -1.58057,2.06745 -37.83909,2.13128 -25.944368,0.0457 -32.687009,-0.0146 -34.219588,-0.30599 z"
   id="path406" /><path
   style="fill:#b3b3b3;stroke-width:0.272666"
   d="m 199.97556,119.51412 -10.25066,-20.499895 1.12051,-0.930756 c 0.61628,-0.51192 1.24784,-1.168682 1.40347,-1.459478 0.23288,-0.435137 -1.0711,-3.507156 -7.36713,-17.356095 -4.20756,-9.255056 -7.64981,-16.908313 -7.64946,-17.007238 0.002,-0.450736 4.14032,-0.832924 7.61854,-0.70353 2.91441,0.10842 4.20535,0.289147 6.09401,0.853143 5.19528,1.55143 9.91376,4.646784 13.13894,8.61923 0.42615,0.524883 0.82288,0.813159 0.88163,0.640616 0.24263,-0.71263 3.41767,-5.267185 4.8449,-6.949972 3.76224,-4.435885 9.66313,-8.38939 15.41183,-10.32569 4.78325,-1.611113 11.88963,-2.115387 17.07289,-1.211504 6.66573,1.162406 13.10463,4.470777 18.13027,9.315511 7.93169,7.646169 11.97637,19.028229 10.17601,28.636129 l -0.42873,2.287963 2.02258,2.117006 c 4.55462,4.76727 6.97978,9.86189 7.52929,15.81702 0.76944,8.33867 -2.09077,15.97208 -8.08952,21.58953 -3.17505,2.97323 -6.85825,4.99495 -11.13345,6.11116 -3.05947,0.79881 -7.70717,0.95209 -28.93949,0.95441 l -21.33576,0.002 z"
   id="path684" /></svg>
