<?xml version="1.0" encoding="UTF-8" standalone="no"?>
<svg
   xmlns="http://www.w3.org/2000/svg">
  <g
     fill-rule="evenodd"
     clip-rule="evenodd"
     id="g4">
    <path
       d="m 203.131,41.249 7.518,-17.511 6.852,63.786 c 38.219,14.208 72.31374,-21.720397 46.86474,-53.706397 57.371,5.615 103.55226,40.263397 103.41326,83.567397 -0.099,31.074 -24.419,60.188 -76.555,75.854 23.408,-40.758 -19.995,-85.585 -54.394,-13.244 -3.788,-40.726 -29.13078,-33.81645 -42.3842,17.47703 C 179.00305,146.37791 153.221,145.214 151.079,178.163 111.776,112.669 72.220793,143.60673 94.398793,192.38673 47.585793,175.61673 19.624,149.741 19.624,117.385 c 0,-36.572 38.626,-72.226 96.826,-83.666 -24.751,33.726 4.464,66.312 48.15,53.586 l 5.856,-64.201 7.339,18.103 c 8.317,-5.927 16.784,-4.895 25.336,0.042 z"
       id="path2" />
  </g>
</svg>
