<?xml version="1.0" encoding="UTF-8" standalone="no"?>
<!-- Created with Inkscape (http://www.inkscape.org/) -->

<svg
   xmlns="http://www.w3.org/2000/svg"
   xmlns:svg="http://www.w3.org/2000/svg">
  <g
     id="layer1">
    <path
       d="m 174.65269,125.60544 c 2.76883,-18.50826 -11.32313,-28.457823 -30.592,-35.095233 l 6.25054,-25.07176 -15.26122,-3.80334 -6.08537,24.411008 c -4.01199,-1.0005 -8.13265,-1.94299 -12.22725,-2.877451 l 6.12885,-24.571834 -15.25254,-3.80334 -6.25489,25.063046 c -3.320862,-0.755703 -6.580882,-1.503202 -9.745262,-2.290779 l 0.0181,-0.08221 -21.046665,-5.255133 -4.059795,16.299963 c 0,0 11.323121,2.59504 11.084045,2.75587 6.181006,1.54264 7.298105,5.6333 7.111185,8.875953 l -7.119871,28.56216 c 0.425991,0.11505 0.977985,0.26449 1.5865,0.50763 -0.508631,-0.1314 -1.051924,-0.2645 -1.61262,-0.39921 l -9.979995,40.01127 c -0.756364,1.87777 -2.673217,4.69442 -6.993812,3.6251 0.152781,0.22178 -11.092756,-2.76884 -11.092756,-2.76884 l -7.576283,17.46933 19.860018,4.95087 c 3.694689,0.92656 7.315482,1.89519 10.879762,2.80811 l -6.315731,25.35844 15.243841,3.80335 6.254877,-25.089 c 4.16413,1.13027 8.20654,2.17331 12.162042,3.15572 l -6.233152,24.97172 15.261222,3.80334 6.31573,-25.31079 c 26.02364,4.92475 45.59243,2.93839 53.8294,-20.59895 6.6374,-18.95151 -0.33038,-29.88349 -14.02242,-37.01211 9.97132,-2.29932 17.48239,-8.85853 19.48622,-22.40706 z"
       id="path543" />
    <path
       d="m 144.56275,123.07094 c -4.29014,17.18635 -30.76753,8.45453 -39.35644,6.31386 l 7.57487,-30.377507 c 8.58892,2.140647 36.24937,6.136167 31.78157,24.063647 z"
       id="path353" />
    <path
       d="m 137.73375,172.2837 c -5.0283,18.77124 -36.06147,9.23419 -46.128203,6.89612 l 8.878223,-33.17886 c 10.06676,2.33806 42.48652,6.70203 37.24998,26.28274 z"
       id="path353-7" />
  </g>
</svg>
