<?xml version="1.0" encoding="UTF-8" standalone="no"?>
<!-- Created with Inkscape (http://www.inkscape.org/) -->

<svg
   width="210mm"
   height="297mm"
   viewBox="0 0 210 297"
   version="1.1"
   id="svg267"
   inkscape:version="1.2.1 (9c6d41e410, 2022-07-14)"
   sodipodi:docname="bitcoin2.svg"
   xmlns:inkscape="http://www.inkscape.org/namespaces/inkscape"
   xmlns:sodipodi="http://sodipodi.sourceforge.net/DTD/sodipodi-0.dtd"
   xmlns="http://www.w3.org/2000/svg"
   xmlns:svg="http://www.w3.org/2000/svg">
  <sodipodi:namedview
     id="namedview269"
     pagecolor="#ffffff"
     bordercolor="#000000"
     borderopacity="0.25"
     inkscape:showpageshadow="2"
     inkscape:pageopacity="0.0"
     inkscape:pagecheckerboard="0"
     inkscape:deskcolor="#d1d1d1"
     inkscape:document-units="mm"
     showgrid="false"
     inkscape:zoom="0.914906"
     inkscape:cx="396.76207"
     inkscape:cy="560.71334"
     inkscape:window-width="2560"
     inkscape:window-height="1387"
     inkscape:window-x="1072"
     inkscape:window-y="244"
     inkscape:window-maximized="1"
     inkscape:current-layer="layer1" />
  <defs
     id="defs264" />
  <g
     inkscape:label="Layer 1"
     inkscape:groupmode="layer"
     id="layer1">
    <path
       fill="#ffffff"
       d="M 183.21596,126.99213 C 186.4349,105.47539 170.05217,93.90847 147.65094,86.192082 l 7.2668,-29.147362 -17.74221,-4.42161 -7.07447,28.379207 c -4.66416,-1.161217 -9.45476,-2.258841 -14.215,-3.345192 l 7.12527,-28.566184 -17.73209,-4.421609 -7.271558,29.137243 C 94.147012,72.928021 90.357004,72.059017 86.678156,71.14341 l 0.01911,-0.09549 -24.467921,-6.109388 -4.719741,18.949644 c 0,0 13.163792,3.016884 12.885707,3.203862 7.185811,1.793399 8.48455,6.549047 8.267203,10.318805 l -8.277126,33.205137 c 0.49466,0.1337 1.136385,0.30749 1.844961,0.59016 -0.592074,-0.15279 -1.222334,-0.3075 -1.875525,-0.46411 l -11.602452,46.51543 c -0.878551,2.18302 -3.107599,5.45754 -8.130636,4.21439 0.171897,0.25784 -12.896022,-3.21895 -12.896022,-3.21895 l -8.807888,20.30911 23.088586,5.75567 c 4.295179,1.07719 8.504604,2.20326 12.648319,3.26441 l -7.34242,29.48084 17.721766,4.4216 7.271759,-29.16741 c 4.841021,1.314 9.540524,2.5266 14.138986,3.66871 l -7.246352,29.03106 17.74201,4.42161 7.34242,-29.42526 c 30.25396,5.72531 53.00393,3.41605 62.57979,-23.94747 7.71637,-22.03222 -0.38389,-34.74127 -16.30176,-43.02871 11.59214,-2.6731 20.32421,-10.29856 22.65371,-26.04969 z m -40.53744,56.84435 c -5.48274,22.03242 -42.57873,10.12171 -54.605557,7.13521 L 97.815542,151.915 c 12.026828,3.00159 50.593448,8.94424 44.862978,31.92148 z m 5.48791,-57.16253 c -5.00279,20.04115 -35.87824,9.8589 -45.89375,7.36247 l 8.8331,-35.423485 c 10.01551,2.496425 42.27066,7.155445 37.06065,28.061015 z"
       id="path4"
       style="stroke-width:5.05327" />
  </g>
</svg>
