<?xml version="1.0" encoding="iso-8859-1"?>
<!-- Generator: Adobe Illustrator 19.0.0, SVG Export Plug-In . SVG Version: 6.00 Build 0)  -->
<svg version="1.1" id="Layer_1" xmlns="http://www.w3.org/2000/svg" xmlns:xlink="http://www.w3.org/1999/xlink" x="0px" y="0px"
	 viewBox="0 0 512 512" style="enable-background:new 0 0 512 512;" xml:space="preserve">
<path style="fill:#E0DDDF;" d="M428.435,114.075H72.954v364.583C76.047,497.541,92.471,512,112.216,512h284.384
	c21.942,0,39.793-17.85,39.793-39.793V122.033C436.393,117.637,432.83,114.075,428.435,114.075z"/>
<path style="fill:#5CC4E0;" d="M72.954,253.614v225.043C76.046,497.541,92.471,512,112.216,512h284.384
	c21.942,0,39.793-17.85,39.793-39.793V253.614L72.954,253.614L72.954,253.614z"/>
<path style="fill:#C1BCBF;" d="M436.393,143.256v-21.223c0-4.395-3.563-7.959-7.958-7.959H112.747H72.954v29.181v335.402
	C76.047,497.541,92.471,512,112.216,512h39.793c-19.746,0-36.17-14.459-39.262-33.343V148.562c0-2.93,2.376-5.306,5.306-5.306
	H436.393z"/>
<path style="fill:#439EE8;" d="M112.747,478.657V253.614H72.954v225.043C76.046,497.541,92.471,512,112.216,512h39.793
	C132.263,512,115.839,497.541,112.747,478.657z"/>
<path style="fill:#E0DDDF;" d="M476.186,126.278H35.815c-9.377,0-16.978-7.601-16.978-16.978v-4.245
	c0-9.377,7.601-16.978,16.978-16.978h440.371c9.377,0,16.978,7.601,16.978,16.978v4.245
	C493.164,118.676,485.562,126.278,476.186,126.278z"/>
<rect x="263.958" y="88.075" style="fill:#F9F8F9;" width="88.424" height="38.201"/>
<g>
	<path style="fill:#439EE8;" d="M168.987,274.306c-14.628,0-26.528,11.901-26.528,26.528c0,14.628,11.901,26.528,26.528,26.528
		c14.628,0,26.528-11.901,26.528-26.528C195.515,286.207,183.615,274.306,168.987,274.306z"/>
	<path style="fill:#439EE8;" d="M365.297,327.363c14.628,0,26.528-11.901,26.528-26.528c0-14.628-11.901-26.528-26.528-26.528
		c-14.628,0-26.528,11.901-26.528,26.528C338.769,315.462,350.669,327.363,365.297,327.363z"/>
	<path style="fill:#439EE8;" d="M272.978,434.538c-14.628,0-26.528,11.901-26.528,26.528c0,14.628,11.901,26.528,26.528,26.528
		c14.628,0,26.528-11.901,26.528-26.528C299.507,446.438,287.606,434.538,272.978,434.538z"/>
	<path style="fill:#439EE8;" d="M272.978,356.014c-14.628,0-26.528,11.901-26.528,26.528s11.901,26.528,26.528,26.528
		c14.628,0,26.528-11.901,26.528-26.528S287.606,356.014,272.978,356.014z"/>
	<path style="fill:#439EE8;" d="M365.297,356.014c-14.628,0-26.528,11.901-26.528,26.528s11.901,26.528,26.528,26.528
		c14.628,0,26.528-11.901,26.528-26.528S379.925,356.014,365.297,356.014z"/>
	<path style="fill:#439EE8;" d="M365.297,434.538c-14.628,0-26.528,11.901-26.528,26.528c0,14.628,11.901,26.528,26.528,26.528
		c14.628,0,26.528-11.901,26.528-26.528C391.826,446.438,379.925,434.538,365.297,434.538z"/>
</g>
<path style="fill:#FAEC8E;" d="M137.668,501.92c-4.319,0-8.678-1.314-12.442-4.044c-9.489-6.88-11.602-20.15-4.722-29.64
	L453.7,8.764c6.88-9.487,20.152-11.602,29.64-4.721c9.489,6.88,11.602,20.15,4.722,29.64L154.866,493.155
	C150.714,498.878,144.237,501.92,137.668,501.92z"/>
<path style="fill:#FBC96C;" d="M488.893,10.011c0.132,4.519-1.152,9.116-4.012,13.059L151.684,482.542
	c-4.151,5.725-10.629,8.765-17.198,8.765c-4.319,0-8.678-1.314-12.442-4.043c-2.292-1.662-4.144-3.703-5.552-5.968
	c0.185,6.355,3.189,12.559,8.734,16.58c3.764,2.729,8.122,4.044,12.442,4.044c6.569,0,13.047-3.04,17.198-8.765L488.063,33.684
	C493.281,26.486,493.315,17.121,488.893,10.011z"/>
<g>
	<polygon style="fill:#FDF7D2;" points="396.186,88.077 368.436,126.344 420.867,126.344 448.617,88.077 	"/>
	<polygon style="fill:#FDF7D2;" points="408.603,143.256 356.171,143.256 276.143,253.614 328.574,253.614 	"/>
</g>
<g>
	<path style="fill:#FAEC8E;" d="M276.143,253.614L120.504,468.236c-6.88,9.489-4.767,22.758,4.722,29.64
		c3.764,2.729,8.122,4.044,12.442,4.044c6.569,0,13.047-3.04,17.198-8.765l173.709-239.541H276.143z"/>
	<polygon style="fill:#FAEC8E;" points="368.436,126.344 356.171,143.256 408.603,143.256 420.867,126.344 	"/>
	<polygon style="fill:#FAEC8E;" points="408.603,143.256 397.725,143.256 317.697,253.614 328.574,253.614 	"/>
</g>
<g>
	<path style="fill:#FBC96C;" d="M317.697,253.614L151.684,482.542c-4.151,5.725-10.629,8.765-17.198,8.765
		c-4.319,0-8.678-1.314-12.442-4.043c-2.292-1.662-4.144-3.703-5.552-5.968c0.185,6.355,3.189,12.559,8.734,16.58
		c3.764,2.729,8.122,4.044,12.442,4.044c6.569,0,13.047-3.04,17.198-8.765l173.709-239.541h-10.879V253.614z"/>
	<polygon style="fill:#FBC96C;" points="409.989,126.344 397.725,143.256 408.603,143.256 420.867,126.344 	"/>
</g>
<polygon style="fill:#FAEC8E;" points="437.74,88.077 409.989,126.344 420.867,126.344 448.617,88.077 "/>
<g>
</g>
<g>
</g>
<g>
</g>
<g>
</g>
<g>
</g>
<g>
</g>
<g>
</g>
<g>
</g>
<g>
</g>
<g>
</g>
<g>
</g>
<g>
</g>
<g>
</g>
<g>
</g>
<g>
</g>
</svg>
